<?xml version="1.0" encoding="UTF-8" standalone="no"?>
<!DOCTYPE svg PUBLIC "-//W3C//DTD SVG 1.1//EN"
 "http://www.w3.org/Graphics/SVG/1.1/DTD/svg11.dtd">
<!-- Generated by graphviz version 2.40.1 (20161225.0304)
 -->
<!-- Pages: 1 -->
<svg width="180pt" height="476pt"
 viewBox="0.00 0.00 180.00 476.00" xmlns="http://www.w3.org/2000/svg" xmlns:xlink="http://www.w3.org/1999/xlink">
<g id="graph0" class="graph" transform="scale(1 1) rotate(0) translate(4 472)">
<polygon fill="#ffffff" stroke="transparent" points="-4,4 -4,-472 176,-472 176,4 -4,4"/>
<!-- 191 -->
<g id="node1" class="node">
<title>191</title>
<ellipse fill="none" stroke="#000000" cx="27" cy="-450" rx="27" ry="18"/>
<text text-anchor="middle" x="27" y="-445.8" font-family="Times,serif" font-size="14.00" fill="#000000">191</text>
</g>
<!-- 83 -->
<g id="node2" class="node">
<title>83</title>
<ellipse fill="none" stroke="#000000" cx="29" cy="-234" rx="27" ry="18"/>
<text text-anchor="middle" x="29" y="-229.8" font-family="Times,serif" font-size="14.00" fill="#000000">83</text>
</g>
<!-- 191&#45;&gt;83 -->
<g id="edge1" class="edge">
<title>191&#45;&gt;83</title>
<path fill="none" stroke="#000000" d="M23.6685,-432.0736C21.8913,-421.5982 19.8913,-408.0982 19,-396 15.5402,-349.0383 20.8584,-294.3573 24.9688,-262.0456"/>
<polygon fill="#000000" stroke="#000000" points="28.4574,-262.3621 26.3021,-251.9888 21.5181,-261.4421 28.4574,-262.3621"/>
</g>
<!-- 192 -->
<g id="node3" class="node">
<title>192</title>
<ellipse fill="none" stroke="#000000" cx="55" cy="-378" rx="27" ry="18"/>
<text text-anchor="middle" x="55" y="-373.8" font-family="Times,serif" font-size="14.00" fill="#000000">192</text>
</g>
<!-- 191&#45;&gt;192 -->
<g id="edge2" class="edge">
<title>191&#45;&gt;192</title>
<path fill="none" stroke="#000000" d="M33.778,-432.5708C36.9872,-424.3187 40.8935,-414.2738 44.4758,-405.0623"/>
<polygon fill="#000000" stroke="#000000" points="47.8248,-406.1069 48.1874,-395.5182 41.3008,-403.5697 47.8248,-406.1069"/>
</g>
<!-- 192&#45;&gt;83 -->
<g id="edge4" class="edge">
<title>192&#45;&gt;83</title>
<path fill="none" stroke="#000000" d="M51.7597,-360.0535C47.3223,-335.4774 39.3099,-291.1008 34.0731,-262.0974"/>
<polygon fill="#000000" stroke="#000000" points="37.5024,-261.3917 32.2812,-252.1727 30.6138,-262.6355 37.5024,-261.3917"/>
</g>
<!-- 400 -->
<g id="node4" class="node">
<title>400</title>
<ellipse fill="none" stroke="#000000" cx="93" cy="-306" rx="27" ry="18"/>
<text text-anchor="middle" x="93" y="-301.8" font-family="Times,serif" font-size="14.00" fill="#000000">400</text>
</g>
<!-- 192&#45;&gt;400 -->
<g id="edge3" class="edge">
<title>192&#45;&gt;400</title>
<path fill="none" stroke="#000000" d="M64.0055,-360.937C68.4828,-352.4537 73.9952,-342.0092 79.007,-332.513"/>
<polygon fill="#000000" stroke="#000000" points="82.2229,-333.9182 83.7952,-323.4407 76.0322,-330.6509 82.2229,-333.9182"/>
</g>
<!-- 400&#45;&gt;83 -->
<g id="edge5" class="edge">
<title>400&#45;&gt;83</title>
<path fill="none" stroke="#000000" d="M79.113,-290.3771C70.4747,-280.659 59.2107,-267.987 49.5503,-257.1191"/>
<polygon fill="#000000" stroke="#000000" points="52.1196,-254.7413 42.8599,-249.5924 46.8877,-259.3918 52.1196,-254.7413"/>
</g>
<!-- 515 -->
<g id="node5" class="node">
<title>515</title>
<ellipse fill="none" stroke="#000000" cx="101" cy="-234" rx="27" ry="18"/>
<text text-anchor="middle" x="101" y="-229.8" font-family="Times,serif" font-size="14.00" fill="#000000">515</text>
</g>
<!-- 400&#45;&gt;515 -->
<g id="edge6" class="edge">
<title>400&#45;&gt;515</title>
<path fill="none" stroke="#000000" d="M95.0187,-287.8314C95.8743,-280.131 96.8917,-270.9743 97.8426,-262.4166"/>
<polygon fill="#000000" stroke="#000000" points="101.3283,-262.7386 98.9541,-252.4133 94.3711,-261.9656 101.3283,-262.7386"/>
</g>
<!-- 547 -->
<g id="node6" class="node">
<title>547</title>
<ellipse fill="none" stroke="#000000" cx="128" cy="-162" rx="27" ry="18"/>
<text text-anchor="middle" x="128" y="-157.8" font-family="Times,serif" font-size="14.00" fill="#000000">547</text>
</g>
<!-- 515&#45;&gt;547 -->
<g id="edge7" class="edge">
<title>515&#45;&gt;547</title>
<path fill="none" stroke="#000000" d="M107.6742,-216.2022C110.7476,-208.0064 114.4616,-198.1024 117.8695,-189.0145"/>
<polygon fill="#000000" stroke="#000000" points="121.1685,-190.1853 121.4026,-179.593 114.6142,-187.7274 121.1685,-190.1853"/>
</g>
<!-- 451 -->
<g id="node7" class="node">
<title>451</title>
<ellipse fill="none" stroke="#000000" cx="73" cy="-90" rx="27" ry="18"/>
<text text-anchor="middle" x="73" y="-85.8" font-family="Times,serif" font-size="14.00" fill="#000000">451</text>
</g>
<!-- 515&#45;&gt;451 -->
<g id="edge8" class="edge">
<title>515&#45;&gt;451</title>
<path fill="none" stroke="#000000" d="M97.5104,-216.0535C92.7317,-191.4774 84.1029,-147.1008 78.4634,-118.0974"/>
<polygon fill="#000000" stroke="#000000" points="81.878,-117.3208 76.5336,-108.1727 75.0067,-118.6569 81.878,-117.3208"/>
</g>
<!-- 547&#45;&gt;451 -->
<g id="edge9" class="edge">
<title>547&#45;&gt;451</title>
<path fill="none" stroke="#000000" d="M115.5196,-145.6621C108.4876,-136.4564 99.5653,-124.7764 91.7117,-114.4953"/>
<polygon fill="#000000" stroke="#000000" points="94.2828,-112.0953 85.431,-106.2733 88.72,-116.3446 94.2828,-112.0953"/>
</g>
<!-- 551 -->
<g id="node8" class="node">
<title>551</title>
<ellipse fill="none" stroke="#000000" cx="145" cy="-90" rx="27" ry="18"/>
<text text-anchor="middle" x="145" y="-85.8" font-family="Times,serif" font-size="14.00" fill="#000000">551</text>
</g>
<!-- 547&#45;&gt;551 -->
<g id="edge10" class="edge">
<title>547&#45;&gt;551</title>
<path fill="none" stroke="#000000" d="M132.2022,-144.2022C134.0821,-136.2406 136.3425,-126.6671 138.4371,-117.7957"/>
<polygon fill="#000000" stroke="#000000" points="141.8955,-118.3792 140.7872,-107.8425 135.0828,-116.7706 141.8955,-118.3792"/>
</g>
<!-- 254 -->
<g id="node9" class="node">
<title>254</title>
<ellipse fill="none" stroke="#000000" cx="145" cy="-18" rx="27" ry="18"/>
<text text-anchor="middle" x="145" y="-13.8" font-family="Times,serif" font-size="14.00" fill="#000000">254</text>
</g>
<!-- 551&#45;&gt;254 -->
<g id="edge11" class="edge">
<title>551&#45;&gt;254</title>
<path fill="none" stroke="#000000" d="M145,-71.8314C145,-64.131 145,-54.9743 145,-46.4166"/>
<polygon fill="#000000" stroke="#000000" points="148.5001,-46.4132 145,-36.4133 141.5001,-46.4133 148.5001,-46.4132"/>
</g>
</g>
</svg>
