<?xml version="1.0" encoding="UTF-8" standalone="no"?>
<!DOCTYPE svg PUBLIC "-//W3C//DTD SVG 1.1//EN"
 "http://www.w3.org/Graphics/SVG/1.1/DTD/svg11.dtd">
<!-- Generated by graphviz version 2.40.1 (20161225.0304)
 -->
<!-- Pages: 1 -->
<svg width="964pt" height="188pt"
 viewBox="0.00 0.00 964.00 188.00" xmlns="http://www.w3.org/2000/svg" xmlns:xlink="http://www.w3.org/1999/xlink">
<g id="graph0" class="graph" transform="scale(1 1) rotate(0) translate(4 184)">
<polygon fill="#ffffff" stroke="transparent" points="-4,4 -4,-184 960,-184 960,4 -4,4"/>
<!-- 15 -->
<g id="node1" class="node">
<title>15</title>
<ellipse fill="none" stroke="#000000" cx="567" cy="-162" rx="27" ry="18"/>
<text text-anchor="middle" x="567" y="-157.8" font-family="Times,serif" font-size="14.00" fill="#000000">15</text>
</g>
<!-- 16 -->
<g id="node2" class="node">
<title>16</title>
<ellipse fill="none" stroke="#000000" cx="171" cy="-90" rx="27" ry="18"/>
<text text-anchor="middle" x="171" y="-85.8" font-family="Times,serif" font-size="14.00" fill="#000000">16</text>
</g>
<!-- 15&#45;&gt;16 -->
<g id="edge1" class="edge">
<title>15&#45;&gt;16</title>
<path fill="none" stroke="#000000" d="M539.7006,-160.8251C478.693,-157.5741 327.2152,-146.0143 207,-108 205.1012,-107.3996 203.179,-106.7097 201.2621,-105.9578"/>
<polygon fill="#000000" stroke="#000000" points="202.4173,-102.642 191.8553,-101.8079 199.5918,-109.0465 202.4173,-102.642"/>
</g>
<!-- 17 -->
<g id="node3" class="node">
<title>17</title>
<ellipse fill="none" stroke="#000000" cx="243" cy="-90" rx="27" ry="18"/>
<text text-anchor="middle" x="243" y="-85.8" font-family="Times,serif" font-size="14.00" fill="#000000">17</text>
</g>
<!-- 15&#45;&gt;17 -->
<g id="edge2" class="edge">
<title>15&#45;&gt;17</title>
<path fill="none" stroke="#000000" d="M540.1663,-159.486C488.4937,-154.0994 372.0576,-139.3035 279,-108 277.1124,-107.365 275.199,-106.6484 273.2888,-105.8761"/>
<polygon fill="#000000" stroke="#000000" points="274.457,-102.5643 263.8999,-101.6714 271.5959,-108.953 274.457,-102.5643"/>
</g>
<!-- 18 -->
<g id="node4" class="node">
<title>18</title>
<ellipse fill="none" stroke="#000000" cx="315" cy="-90" rx="27" ry="18"/>
<text text-anchor="middle" x="315" y="-85.8" font-family="Times,serif" font-size="14.00" fill="#000000">18</text>
</g>
<!-- 15&#45;&gt;18 -->
<g id="edge3" class="edge">
<title>15&#45;&gt;18</title>
<path fill="none" stroke="#000000" d="M540.8468,-157.3813C499.6602,-149.6838 417.5245,-132.609 351,-108 349.1322,-107.3091 347.2341,-106.5489 345.3356,-105.7434"/>
<polygon fill="#000000" stroke="#000000" points="346.5266,-102.4391 335.978,-101.4499 343.6074,-108.8014 346.5266,-102.4391"/>
</g>
<!-- 19 -->
<g id="node5" class="node">
<title>19</title>
<ellipse fill="none" stroke="#000000" cx="387" cy="-90" rx="27" ry="18"/>
<text text-anchor="middle" x="387" y="-85.8" font-family="Times,serif" font-size="14.00" fill="#000000">19</text>
</g>
<!-- 15&#45;&gt;19 -->
<g id="edge4" class="edge">
<title>15&#45;&gt;19</title>
<path fill="none" stroke="#000000" d="M542.7416,-153.7783C513.869,-143.7927 464.3615,-126.0365 423,-108 421.2226,-107.2249 419.4074,-106.4064 417.5837,-105.5629"/>
<polygon fill="#000000" stroke="#000000" points="419.0584,-102.3885 408.5278,-101.2234 416.0334,-108.7011 419.0584,-102.3885"/>
</g>
<!-- 20 -->
<g id="node6" class="node">
<title>20</title>
<ellipse fill="none" stroke="#000000" cx="459" cy="-90" rx="27" ry="18"/>
<text text-anchor="middle" x="459" y="-85.8" font-family="Times,serif" font-size="14.00" fill="#000000">20</text>
</g>
<!-- 15&#45;&gt;20 -->
<g id="edge5" class="edge">
<title>15&#45;&gt;20</title>
<path fill="none" stroke="#000000" d="M547.6918,-149.1278C530.6445,-137.763 505.5981,-121.0654 486.4656,-108.3104"/>
<polygon fill="#000000" stroke="#000000" points="488.4031,-105.3956 478.1411,-102.7607 484.5201,-111.2199 488.4031,-105.3956"/>
</g>
<!-- 21 -->
<g id="node7" class="node">
<title>21</title>
<ellipse fill="none" stroke="#000000" cx="531" cy="-90" rx="27" ry="18"/>
<text text-anchor="middle" x="531" y="-85.8" font-family="Times,serif" font-size="14.00" fill="#000000">21</text>
</g>
<!-- 15&#45;&gt;21 -->
<g id="edge6" class="edge">
<title>15&#45;&gt;21</title>
<path fill="none" stroke="#000000" d="M558.2854,-144.5708C554.0403,-136.0807 548.8464,-125.6929 544.1337,-116.2674"/>
<polygon fill="#000000" stroke="#000000" points="547.237,-114.6477 539.6343,-107.2687 540.976,-117.7782 547.237,-114.6477"/>
</g>
<!-- 22 -->
<g id="node8" class="node">
<title>22</title>
<ellipse fill="none" stroke="#000000" cx="603" cy="-90" rx="27" ry="18"/>
<text text-anchor="middle" x="603" y="-85.8" font-family="Times,serif" font-size="14.00" fill="#000000">22</text>
</g>
<!-- 15&#45;&gt;22 -->
<g id="edge7" class="edge">
<title>15&#45;&gt;22</title>
<path fill="none" stroke="#000000" d="M575.7146,-144.5708C579.9597,-136.0807 585.1536,-125.6929 589.8663,-116.2674"/>
<polygon fill="#000000" stroke="#000000" points="593.024,-117.7782 594.3657,-107.2687 586.763,-114.6477 593.024,-117.7782"/>
</g>
<!-- 23 -->
<g id="node9" class="node">
<title>23</title>
<ellipse fill="none" stroke="#000000" cx="594" cy="-18" rx="27" ry="18"/>
<text text-anchor="middle" x="594" y="-13.8" font-family="Times,serif" font-size="14.00" fill="#000000">23</text>
</g>
<!-- 15&#45;&gt;23 -->
<g id="edge8" class="edge">
<title>15&#45;&gt;23</title>
<path fill="none" stroke="#000000" d="M589.8054,-151.9595C606.8141,-143.0986 628.7979,-128.4041 639,-108 646.1554,-93.6892 644.4468,-87.0443 639,-72 634.6301,-59.9301 626.254,-48.6622 617.9016,-39.575"/>
<polygon fill="#000000" stroke="#000000" points="620.1651,-36.8838 610.669,-32.1852 615.1624,-41.7801 620.1651,-36.8838"/>
</g>
<!-- 24 -->
<g id="node10" class="node">
<title>24</title>
<ellipse fill="none" stroke="#000000" cx="713" cy="-90" rx="27" ry="18"/>
<text text-anchor="middle" x="713" y="-85.8" font-family="Times,serif" font-size="14.00" fill="#000000">24</text>
</g>
<!-- 15&#45;&gt;24 -->
<g id="edge9" class="edge">
<title>15&#45;&gt;24</title>
<path fill="none" stroke="#000000" d="M588.8577,-151.2209C613.4787,-139.079 653.6978,-119.2449 681.6594,-105.4556"/>
<polygon fill="#000000" stroke="#000000" points="683.5722,-108.4148 690.9929,-100.8528 680.4761,-102.1367 683.5722,-108.4148"/>
</g>
<!-- 25 -->
<g id="node11" class="node">
<title>25</title>
<ellipse fill="none" stroke="#000000" cx="785" cy="-90" rx="27" ry="18"/>
<text text-anchor="middle" x="785" y="-85.8" font-family="Times,serif" font-size="14.00" fill="#000000">25</text>
</g>
<!-- 15&#45;&gt;25 -->
<g id="edge10" class="edge">
<title>15&#45;&gt;25</title>
<path fill="none" stroke="#000000" d="M592.495,-155.9417C628.1329,-147.1361 694.586,-129.4841 749,-108 750.8523,-107.2686 752.7384,-106.477 754.6278,-105.6477"/>
<polygon fill="#000000" stroke="#000000" points="756.3805,-108.6921 763.9608,-101.2901 753.4191,-102.3494 756.3805,-108.6921"/>
</g>
<!-- 26 -->
<g id="node12" class="node">
<title>26</title>
<ellipse fill="none" stroke="#000000" cx="857" cy="-90" rx="27" ry="18"/>
<text text-anchor="middle" x="857" y="-85.8" font-family="Times,serif" font-size="14.00" fill="#000000">26</text>
</g>
<!-- 15&#45;&gt;26 -->
<g id="edge11" class="edge">
<title>15&#45;&gt;26</title>
<path fill="none" stroke="#000000" d="M593.5609,-158.6219C640.457,-152.1622 740.5741,-136.139 821,-108 822.8798,-107.3423 824.7872,-106.608 826.6928,-105.8222"/>
<polygon fill="#000000" stroke="#000000" points="828.4001,-108.8914 836.0693,-101.5815 825.5155,-102.5134 828.4001,-108.8914"/>
</g>
<!-- 27 -->
<g id="node13" class="node">
<title>27</title>
<ellipse fill="none" stroke="#000000" cx="929" cy="-90" rx="27" ry="18"/>
<text text-anchor="middle" x="929" y="-85.8" font-family="Times,serif" font-size="14.00" fill="#000000">27</text>
</g>
<!-- 15&#45;&gt;27 -->
<g id="edge12" class="edge">
<title>15&#45;&gt;27</title>
<path fill="none" stroke="#000000" d="M594.2692,-160.2456C651.0877,-155.9955 785.7794,-142.8074 893,-108 894.8942,-107.3851 896.8128,-106.684 898.7269,-105.9235"/>
<polygon fill="#000000" stroke="#000000" points="900.4067,-109.0073 908.1263,-101.7506 897.5663,-102.6094 900.4067,-109.0073"/>
</g>
<!-- 17&#45;&gt;23 -->
<g id="edge17" class="edge">
<title>17&#45;&gt;23</title>
<path fill="none" stroke="#000000" d="M263.8749,-78.2531C268.7251,-75.8959 273.9497,-73.6423 279,-72 371.5536,-41.9031 399.1202,-52.7054 495,-36 515.9102,-32.3568 539.2722,-28.1172 558.0486,-24.668"/>
<polygon fill="#000000" stroke="#000000" points="558.7628,-28.0954 567.9634,-22.8419 557.4949,-21.2112 558.7628,-28.0954"/>
</g>
<!-- 259 -->
<g id="node14" class="node">
<title>259</title>
<ellipse fill="none" stroke="#000000" cx="27" cy="-18" rx="27" ry="18"/>
<text text-anchor="middle" x="27" y="-13.8" font-family="Times,serif" font-size="14.00" fill="#000000">259</text>
</g>
<!-- 17&#45;&gt;259 -->
<g id="edge13" class="edge">
<title>17&#45;&gt;259</title>
<path fill="none" stroke="#000000" d="M222.022,-78.5501C217.1771,-76.1775 211.9808,-73.8425 207,-72 145.128,-49.1121 124.872,-58.8879 63,-36 61.1322,-35.3091 59.2341,-34.5489 57.3356,-33.7434"/>
<polygon fill="#000000" stroke="#000000" points="58.5266,-30.4391 47.978,-29.4499 55.6074,-36.8014 58.5266,-30.4391"/>
</g>
<!-- 260 -->
<g id="node15" class="node">
<title>260</title>
<ellipse fill="none" stroke="#000000" cx="99" cy="-18" rx="27" ry="18"/>
<text text-anchor="middle" x="99" y="-13.8" font-family="Times,serif" font-size="14.00" fill="#000000">260</text>
</g>
<!-- 17&#45;&gt;260 -->
<g id="edge14" class="edge">
<title>17&#45;&gt;260</title>
<path fill="none" stroke="#000000" d="M221.1295,-79.0647C196.7778,-66.8889 157.238,-47.119 129.7715,-33.3858"/>
<polygon fill="#000000" stroke="#000000" points="131.114,-30.1439 120.6045,-28.8022 127.9835,-36.4049 131.114,-30.1439"/>
</g>
<!-- 261 -->
<g id="node16" class="node">
<title>261</title>
<ellipse fill="none" stroke="#000000" cx="171" cy="-18" rx="27" ry="18"/>
<text text-anchor="middle" x="171" y="-13.8" font-family="Times,serif" font-size="14.00" fill="#000000">261</text>
</g>
<!-- 17&#45;&gt;261 -->
<g id="edge15" class="edge">
<title>17&#45;&gt;261</title>
<path fill="none" stroke="#000000" d="M227.7307,-74.7307C217.803,-64.803 204.6847,-51.6847 193.5637,-40.5637"/>
<polygon fill="#000000" stroke="#000000" points="195.7933,-37.8436 186.2473,-33.2473 190.8436,-42.7933 195.7933,-37.8436"/>
</g>
<!-- 262 -->
<g id="node17" class="node">
<title>262</title>
<ellipse fill="none" stroke="#000000" cx="243" cy="-18" rx="27" ry="18"/>
<text text-anchor="middle" x="243" y="-13.8" font-family="Times,serif" font-size="14.00" fill="#000000">262</text>
</g>
<!-- 17&#45;&gt;262 -->
<g id="edge16" class="edge">
<title>17&#45;&gt;262</title>
<path fill="none" stroke="#000000" d="M243,-71.8314C243,-64.131 243,-54.9743 243,-46.4166"/>
<polygon fill="#000000" stroke="#000000" points="246.5001,-46.4132 243,-36.4133 239.5001,-46.4133 246.5001,-46.4132"/>
</g>
<!-- 263 -->
<g id="node18" class="node">
<title>263</title>
<ellipse fill="none" stroke="#000000" cx="315" cy="-18" rx="27" ry="18"/>
<text text-anchor="middle" x="315" y="-13.8" font-family="Times,serif" font-size="14.00" fill="#000000">263</text>
</g>
<!-- 17&#45;&gt;263 -->
<g id="edge18" class="edge">
<title>17&#45;&gt;263</title>
<path fill="none" stroke="#000000" d="M258.2693,-74.7307C268.197,-64.803 281.3153,-51.6847 292.4363,-40.5637"/>
<polygon fill="#000000" stroke="#000000" points="295.1564,-42.7933 299.7527,-33.2473 290.2067,-37.8436 295.1564,-42.7933"/>
</g>
<!-- 264 -->
<g id="node19" class="node">
<title>264</title>
<ellipse fill="none" stroke="#000000" cx="387" cy="-18" rx="27" ry="18"/>
<text text-anchor="middle" x="387" y="-13.8" font-family="Times,serif" font-size="14.00" fill="#000000">264</text>
</g>
<!-- 17&#45;&gt;264 -->
<g id="edge19" class="edge">
<title>17&#45;&gt;264</title>
<path fill="none" stroke="#000000" d="M264.8705,-79.0647C289.2222,-66.8889 328.762,-47.119 356.2285,-33.3858"/>
<polygon fill="#000000" stroke="#000000" points="358.0165,-36.4049 365.3955,-28.8022 354.886,-30.1439 358.0165,-36.4049"/>
</g>
<!-- 265 -->
<g id="node20" class="node">
<title>265</title>
<ellipse fill="none" stroke="#000000" cx="459" cy="-18" rx="27" ry="18"/>
<text text-anchor="middle" x="459" y="-13.8" font-family="Times,serif" font-size="14.00" fill="#000000">265</text>
</g>
<!-- 17&#45;&gt;265 -->
<g id="edge20" class="edge">
<title>17&#45;&gt;265</title>
<path fill="none" stroke="#000000" d="M263.978,-78.5501C268.8229,-76.1775 274.0192,-73.8425 279,-72 340.872,-49.1121 361.128,-58.8879 423,-36 424.8678,-35.3091 426.7659,-34.5489 428.6644,-33.7434"/>
<polygon fill="#000000" stroke="#000000" points="430.3926,-36.8014 438.022,-29.4499 427.4734,-30.4391 430.3926,-36.8014"/>
</g>
</g>
</svg>
