<?xml version="1.0" encoding="UTF-8" standalone="no"?>
<!DOCTYPE svg PUBLIC "-//W3C//DTD SVG 1.1//EN"
 "http://www.w3.org/Graphics/SVG/1.1/DTD/svg11.dtd">
<!-- Generated by graphviz version 2.40.1 (20161225.0304)
 -->
<!-- Pages: 1 -->
<svg width="1070pt" height="188pt"
 viewBox="0.00 0.00 1070.00 188.00" xmlns="http://www.w3.org/2000/svg" xmlns:xlink="http://www.w3.org/1999/xlink">
<g id="graph0" class="graph" transform="scale(1 1) rotate(0) translate(4 184)">
<polygon fill="#ffffff" stroke="transparent" points="-4,4 -4,-184 1066,-184 1066,4 -4,4"/>
<!-- 37 -->
<g id="node1" class="node">
<title>37</title>
<ellipse fill="none" stroke="#000000" cx="423" cy="-162" rx="27" ry="18"/>
<text text-anchor="middle" x="423" y="-157.8" font-family="Times,serif" font-size="14.00" fill="#000000">37</text>
</g>
<!-- 38 -->
<g id="node2" class="node">
<title>38</title>
<ellipse fill="none" stroke="#000000" cx="27" cy="-90" rx="27" ry="18"/>
<text text-anchor="middle" x="27" y="-85.8" font-family="Times,serif" font-size="14.00" fill="#000000">38</text>
</g>
<!-- 37&#45;&gt;38 -->
<g id="edge1" class="edge">
<title>37&#45;&gt;38</title>
<path fill="none" stroke="#000000" d="M395.7006,-160.8251C334.693,-157.5741 183.2152,-146.0143 63,-108 61.1012,-107.3996 59.179,-106.7097 57.2621,-105.9578"/>
<polygon fill="#000000" stroke="#000000" points="58.4173,-102.642 47.8553,-101.8079 55.5918,-109.0465 58.4173,-102.642"/>
</g>
<!-- 39 -->
<g id="node3" class="node">
<title>39</title>
<ellipse fill="none" stroke="#000000" cx="99" cy="-90" rx="27" ry="18"/>
<text text-anchor="middle" x="99" y="-85.8" font-family="Times,serif" font-size="14.00" fill="#000000">39</text>
</g>
<!-- 37&#45;&gt;39 -->
<g id="edge2" class="edge">
<title>37&#45;&gt;39</title>
<path fill="none" stroke="#000000" d="M396.1663,-159.486C344.4937,-154.0994 228.0576,-139.3035 135,-108 133.1124,-107.365 131.199,-106.6484 129.2888,-105.8761"/>
<polygon fill="#000000" stroke="#000000" points="130.457,-102.5643 119.8999,-101.6714 127.5959,-108.953 130.457,-102.5643"/>
</g>
<!-- 40 -->
<g id="node4" class="node">
<title>40</title>
<ellipse fill="none" stroke="#000000" cx="171" cy="-90" rx="27" ry="18"/>
<text text-anchor="middle" x="171" y="-85.8" font-family="Times,serif" font-size="14.00" fill="#000000">40</text>
</g>
<!-- 37&#45;&gt;40 -->
<g id="edge3" class="edge">
<title>37&#45;&gt;40</title>
<path fill="none" stroke="#000000" d="M396.8468,-157.3813C355.6602,-149.6838 273.5245,-132.609 207,-108 205.1322,-107.3091 203.2341,-106.5489 201.3356,-105.7434"/>
<polygon fill="#000000" stroke="#000000" points="202.5266,-102.4391 191.978,-101.4499 199.6074,-108.8014 202.5266,-102.4391"/>
</g>
<!-- 41 -->
<g id="node5" class="node">
<title>41</title>
<ellipse fill="none" stroke="#000000" cx="243" cy="-90" rx="27" ry="18"/>
<text text-anchor="middle" x="243" y="-85.8" font-family="Times,serif" font-size="14.00" fill="#000000">41</text>
</g>
<!-- 37&#45;&gt;41 -->
<g id="edge4" class="edge">
<title>37&#45;&gt;41</title>
<path fill="none" stroke="#000000" d="M398.7416,-153.7783C369.869,-143.7927 320.3615,-126.0365 279,-108 277.2226,-107.2249 275.4074,-106.4064 273.5837,-105.5629"/>
<polygon fill="#000000" stroke="#000000" points="275.0584,-102.3885 264.5278,-101.2234 272.0334,-108.7011 275.0584,-102.3885"/>
</g>
<!-- 29 -->
<g id="node6" class="node">
<title>29</title>
<ellipse fill="none" stroke="#000000" cx="315" cy="-90" rx="27" ry="18"/>
<text text-anchor="middle" x="315" y="-85.8" font-family="Times,serif" font-size="14.00" fill="#000000">29</text>
</g>
<!-- 37&#45;&gt;29 -->
<g id="edge5" class="edge">
<title>37&#45;&gt;29</title>
<path fill="none" stroke="#000000" d="M403.6918,-149.1278C386.6445,-137.763 361.5981,-121.0654 342.4656,-108.3104"/>
<polygon fill="#000000" stroke="#000000" points="344.4031,-105.3956 334.1411,-102.7607 340.5201,-111.2199 344.4031,-105.3956"/>
</g>
<!-- 31 -->
<g id="node7" class="node">
<title>31</title>
<ellipse fill="none" stroke="#000000" cx="387" cy="-90" rx="27" ry="18"/>
<text text-anchor="middle" x="387" y="-85.8" font-family="Times,serif" font-size="14.00" fill="#000000">31</text>
</g>
<!-- 37&#45;&gt;31 -->
<g id="edge6" class="edge">
<title>37&#45;&gt;31</title>
<path fill="none" stroke="#000000" d="M414.2854,-144.5708C410.0403,-136.0807 404.8464,-125.6929 400.1337,-116.2674"/>
<polygon fill="#000000" stroke="#000000" points="403.237,-114.6477 395.6343,-107.2687 396.976,-117.7782 403.237,-114.6477"/>
</g>
<!-- 42 -->
<g id="node8" class="node">
<title>42</title>
<ellipse fill="none" stroke="#000000" cx="459" cy="-90" rx="27" ry="18"/>
<text text-anchor="middle" x="459" y="-85.8" font-family="Times,serif" font-size="14.00" fill="#000000">42</text>
</g>
<!-- 37&#45;&gt;42 -->
<g id="edge7" class="edge">
<title>37&#45;&gt;42</title>
<path fill="none" stroke="#000000" d="M431.7146,-144.5708C435.9597,-136.0807 441.1536,-125.6929 445.8663,-116.2674"/>
<polygon fill="#000000" stroke="#000000" points="449.024,-117.7782 450.3657,-107.2687 442.763,-114.6477 449.024,-117.7782"/>
</g>
<!-- 43 -->
<g id="node9" class="node">
<title>43</title>
<ellipse fill="none" stroke="#000000" cx="531" cy="-90" rx="27" ry="18"/>
<text text-anchor="middle" x="531" y="-85.8" font-family="Times,serif" font-size="14.00" fill="#000000">43</text>
</g>
<!-- 37&#45;&gt;43 -->
<g id="edge8" class="edge">
<title>37&#45;&gt;43</title>
<path fill="none" stroke="#000000" d="M442.3082,-149.1278C459.3555,-137.763 484.4019,-121.0654 503.5344,-108.3104"/>
<polygon fill="#000000" stroke="#000000" points="505.4799,-111.2199 511.8589,-102.7607 501.5969,-105.3956 505.4799,-111.2199"/>
</g>
<!-- 44 -->
<g id="node10" class="node">
<title>44</title>
<ellipse fill="none" stroke="#000000" cx="603" cy="-90" rx="27" ry="18"/>
<text text-anchor="middle" x="603" y="-85.8" font-family="Times,serif" font-size="14.00" fill="#000000">44</text>
</g>
<!-- 37&#45;&gt;44 -->
<g id="edge9" class="edge">
<title>37&#45;&gt;44</title>
<path fill="none" stroke="#000000" d="M447.2584,-153.7783C476.131,-143.7927 525.6385,-126.0365 567,-108 568.7774,-107.2249 570.5926,-106.4064 572.4163,-105.5629"/>
<polygon fill="#000000" stroke="#000000" points="573.9666,-108.7011 581.4722,-101.2234 570.9416,-102.3885 573.9666,-108.7011"/>
</g>
<!-- 45 -->
<g id="node11" class="node">
<title>45</title>
<ellipse fill="none" stroke="#000000" cx="675" cy="-90" rx="27" ry="18"/>
<text text-anchor="middle" x="675" y="-85.8" font-family="Times,serif" font-size="14.00" fill="#000000">45</text>
</g>
<!-- 37&#45;&gt;45 -->
<g id="edge10" class="edge">
<title>37&#45;&gt;45</title>
<path fill="none" stroke="#000000" d="M449.1532,-157.3813C490.3398,-149.6838 572.4755,-132.609 639,-108 640.8678,-107.3091 642.7659,-106.5489 644.6644,-105.7434"/>
<polygon fill="#000000" stroke="#000000" points="646.3926,-108.8014 654.022,-101.4499 643.4734,-102.4391 646.3926,-108.8014"/>
</g>
<!-- 46 -->
<g id="node12" class="node">
<title>46</title>
<ellipse fill="none" stroke="#000000" cx="747" cy="-90" rx="27" ry="18"/>
<text text-anchor="middle" x="747" y="-85.8" font-family="Times,serif" font-size="14.00" fill="#000000">46</text>
</g>
<!-- 37&#45;&gt;46 -->
<g id="edge11" class="edge">
<title>37&#45;&gt;46</title>
<path fill="none" stroke="#000000" d="M449.8337,-159.486C501.5063,-154.0994 617.9424,-139.3035 711,-108 712.8876,-107.365 714.801,-106.6484 716.7112,-105.8761"/>
<polygon fill="#000000" stroke="#000000" points="718.4041,-108.953 726.1001,-101.6714 715.543,-102.5643 718.4041,-108.953"/>
</g>
<!-- 47 -->
<g id="node13" class="node">
<title>47</title>
<ellipse fill="none" stroke="#000000" cx="819" cy="-90" rx="27" ry="18"/>
<text text-anchor="middle" x="819" y="-85.8" font-family="Times,serif" font-size="14.00" fill="#000000">47</text>
</g>
<!-- 37&#45;&gt;47 -->
<g id="edge12" class="edge">
<title>37&#45;&gt;47</title>
<path fill="none" stroke="#000000" d="M450.2994,-160.8251C511.307,-157.5741 662.7848,-146.0143 783,-108 784.8988,-107.3996 786.821,-106.7097 788.7379,-105.9578"/>
<polygon fill="#000000" stroke="#000000" points="790.4082,-109.0465 798.1447,-101.8079 787.5827,-102.642 790.4082,-109.0465"/>
</g>
<!-- 48 -->
<g id="node14" class="node">
<title>48</title>
<ellipse fill="none" stroke="#000000" cx="315" cy="-18" rx="27" ry="18"/>
<text text-anchor="middle" x="315" y="-13.8" font-family="Times,serif" font-size="14.00" fill="#000000">48</text>
</g>
<!-- 45&#45;&gt;48 -->
<g id="edge13" class="edge">
<title>45&#45;&gt;48</title>
<path fill="none" stroke="#000000" d="M654.1732,-78.0998C649.3205,-75.7506 644.0828,-73.5389 639,-72 515.5388,-34.619 474.4612,-73.381 351,-36 349.094,-35.4229 347.1661,-34.7512 345.245,-34.0131"/>
<polygon fill="#000000" stroke="#000000" points="346.3918,-30.6948 335.8268,-29.9002 343.5903,-37.1098 346.3918,-30.6948"/>
</g>
<!-- 49 -->
<g id="node15" class="node">
<title>49</title>
<ellipse fill="none" stroke="#000000" cx="387" cy="-18" rx="27" ry="18"/>
<text text-anchor="middle" x="387" y="-13.8" font-family="Times,serif" font-size="14.00" fill="#000000">49</text>
</g>
<!-- 45&#45;&gt;49 -->
<g id="edge14" class="edge">
<title>45&#45;&gt;49</title>
<path fill="none" stroke="#000000" d="M654.1251,-78.2531C649.2749,-75.8959 644.0503,-73.6423 639,-72 546.4464,-41.9031 515.5536,-66.0969 423,-36 421.1061,-35.3841 419.1877,-34.6823 417.2738,-33.9213"/>
<polygon fill="#000000" stroke="#000000" points="418.4347,-30.6073 407.8749,-29.7469 415.5934,-37.0047 418.4347,-30.6073"/>
</g>
<!-- 50 -->
<g id="node16" class="node">
<title>50</title>
<ellipse fill="none" stroke="#000000" cx="459" cy="-18" rx="27" ry="18"/>
<text text-anchor="middle" x="459" y="-13.8" font-family="Times,serif" font-size="14.00" fill="#000000">50</text>
</g>
<!-- 45&#45;&gt;50 -->
<g id="edge15" class="edge">
<title>45&#45;&gt;50</title>
<path fill="none" stroke="#000000" d="M654.022,-78.5501C649.1771,-76.1775 643.9808,-73.8425 639,-72 577.128,-49.1121 556.872,-58.8879 495,-36 493.1322,-35.3091 491.2341,-34.5489 489.3356,-33.7434"/>
<polygon fill="#000000" stroke="#000000" points="490.5266,-30.4391 479.978,-29.4499 487.6074,-36.8014 490.5266,-30.4391"/>
</g>
<!-- 51 -->
<g id="node17" class="node">
<title>51</title>
<ellipse fill="none" stroke="#000000" cx="531" cy="-18" rx="27" ry="18"/>
<text text-anchor="middle" x="531" y="-13.8" font-family="Times,serif" font-size="14.00" fill="#000000">51</text>
</g>
<!-- 45&#45;&gt;51 -->
<g id="edge16" class="edge">
<title>45&#45;&gt;51</title>
<path fill="none" stroke="#000000" d="M653.1295,-79.0647C628.7778,-66.8889 589.238,-47.119 561.7715,-33.3858"/>
<polygon fill="#000000" stroke="#000000" points="563.114,-30.1439 552.6045,-28.8022 559.9835,-36.4049 563.114,-30.1439"/>
</g>
<!-- 52 -->
<g id="node18" class="node">
<title>52</title>
<ellipse fill="none" stroke="#000000" cx="603" cy="-18" rx="27" ry="18"/>
<text text-anchor="middle" x="603" y="-13.8" font-family="Times,serif" font-size="14.00" fill="#000000">52</text>
</g>
<!-- 45&#45;&gt;52 -->
<g id="edge17" class="edge">
<title>45&#45;&gt;52</title>
<path fill="none" stroke="#000000" d="M659.7307,-74.7307C649.803,-64.803 636.6847,-51.6847 625.5637,-40.5637"/>
<polygon fill="#000000" stroke="#000000" points="627.7933,-37.8436 618.2473,-33.2473 622.8436,-42.7933 627.7933,-37.8436"/>
</g>
<!-- 53 -->
<g id="node19" class="node">
<title>53</title>
<ellipse fill="none" stroke="#000000" cx="675" cy="-18" rx="27" ry="18"/>
<text text-anchor="middle" x="675" y="-13.8" font-family="Times,serif" font-size="14.00" fill="#000000">53</text>
</g>
<!-- 45&#45;&gt;53 -->
<g id="edge18" class="edge">
<title>45&#45;&gt;53</title>
<path fill="none" stroke="#000000" d="M675,-71.8314C675,-64.131 675,-54.9743 675,-46.4166"/>
<polygon fill="#000000" stroke="#000000" points="678.5001,-46.4132 675,-36.4133 671.5001,-46.4133 678.5001,-46.4132"/>
</g>
<!-- 54 -->
<g id="node20" class="node">
<title>54</title>
<ellipse fill="none" stroke="#000000" cx="747" cy="-18" rx="27" ry="18"/>
<text text-anchor="middle" x="747" y="-13.8" font-family="Times,serif" font-size="14.00" fill="#000000">54</text>
</g>
<!-- 45&#45;&gt;54 -->
<g id="edge19" class="edge">
<title>45&#45;&gt;54</title>
<path fill="none" stroke="#000000" d="M690.2693,-74.7307C700.197,-64.803 713.3153,-51.6847 724.4363,-40.5637"/>
<polygon fill="#000000" stroke="#000000" points="727.1564,-42.7933 731.7527,-33.2473 722.2067,-37.8436 727.1564,-42.7933"/>
</g>
<!-- 55 -->
<g id="node21" class="node">
<title>55</title>
<ellipse fill="none" stroke="#000000" cx="819" cy="-18" rx="27" ry="18"/>
<text text-anchor="middle" x="819" y="-13.8" font-family="Times,serif" font-size="14.00" fill="#000000">55</text>
</g>
<!-- 45&#45;&gt;55 -->
<g id="edge20" class="edge">
<title>45&#45;&gt;55</title>
<path fill="none" stroke="#000000" d="M696.8705,-79.0647C721.2222,-66.8889 760.762,-47.119 788.2285,-33.3858"/>
<polygon fill="#000000" stroke="#000000" points="790.0165,-36.4049 797.3955,-28.8022 786.886,-30.1439 790.0165,-36.4049"/>
</g>
<!-- 56 -->
<g id="node22" class="node">
<title>56</title>
<ellipse fill="none" stroke="#000000" cx="891" cy="-18" rx="27" ry="18"/>
<text text-anchor="middle" x="891" y="-13.8" font-family="Times,serif" font-size="14.00" fill="#000000">56</text>
</g>
<!-- 45&#45;&gt;56 -->
<g id="edge21" class="edge">
<title>45&#45;&gt;56</title>
<path fill="none" stroke="#000000" d="M695.978,-78.5501C700.8229,-76.1775 706.0192,-73.8425 711,-72 772.872,-49.1121 793.128,-58.8879 855,-36 856.8678,-35.3091 858.7659,-34.5489 860.6644,-33.7434"/>
<polygon fill="#000000" stroke="#000000" points="862.3926,-36.8014 870.022,-29.4499 859.4734,-30.4391 862.3926,-36.8014"/>
</g>
<!-- 57 -->
<g id="node23" class="node">
<title>57</title>
<ellipse fill="none" stroke="#000000" cx="963" cy="-18" rx="27" ry="18"/>
<text text-anchor="middle" x="963" y="-13.8" font-family="Times,serif" font-size="14.00" fill="#000000">57</text>
</g>
<!-- 45&#45;&gt;57 -->
<g id="edge22" class="edge">
<title>45&#45;&gt;57</title>
<path fill="none" stroke="#000000" d="M695.8749,-78.2531C700.7251,-75.8959 705.9497,-73.6423 711,-72 803.5536,-41.9031 834.4464,-66.0969 927,-36 928.8939,-35.3841 930.8123,-34.6823 932.7262,-33.9213"/>
<polygon fill="#000000" stroke="#000000" points="934.4066,-37.0047 942.1251,-29.7469 931.5653,-30.6073 934.4066,-37.0047"/>
</g>
<!-- 58 -->
<g id="node24" class="node">
<title>58</title>
<ellipse fill="none" stroke="#000000" cx="1035" cy="-18" rx="27" ry="18"/>
<text text-anchor="middle" x="1035" y="-13.8" font-family="Times,serif" font-size="14.00" fill="#000000">58</text>
</g>
<!-- 45&#45;&gt;58 -->
<g id="edge23" class="edge">
<title>45&#45;&gt;58</title>
<path fill="none" stroke="#000000" d="M695.8268,-78.0998C700.6795,-75.7506 705.9172,-73.5389 711,-72 834.4612,-34.619 875.5388,-73.381 999,-36 1000.906,-35.4229 1002.8339,-34.7512 1004.755,-34.0131"/>
<polygon fill="#000000" stroke="#000000" points="1006.4097,-37.1098 1014.1732,-29.9002 1003.6082,-30.6948 1006.4097,-37.1098"/>
</g>
</g>
</svg>
