<?xml version="1.0" encoding="UTF-8" standalone="no"?>
<!DOCTYPE svg PUBLIC "-//W3C//DTD SVG 1.1//EN"
 "http://www.w3.org/Graphics/SVG/1.1/DTD/svg11.dtd">
<!-- Generated by graphviz version 2.40.1 (20161225.0304)
 -->
<!-- Pages: 1 -->
<svg width="1108pt" height="188pt"
 viewBox="0.00 0.00 1108.00 188.00" xmlns="http://www.w3.org/2000/svg" xmlns:xlink="http://www.w3.org/1999/xlink">
<g id="graph0" class="graph" transform="scale(1 1) rotate(0) translate(4 184)">
<polygon fill="#ffffff" stroke="transparent" points="-4,4 -4,-184 1104,-184 1104,4 -4,4"/>
<!-- 0 -->
<g id="node1" class="node">
<title>0</title>
<ellipse fill="none" stroke="#000000" cx="389" cy="-162" rx="27" ry="18"/>
<text text-anchor="middle" x="389" y="-157.8" font-family="Times,serif" font-size="14.00" fill="#000000">0</text>
</g>
<!-- 1 -->
<g id="node2" class="node">
<title>1</title>
<ellipse fill="none" stroke="#000000" cx="27" cy="-90" rx="27" ry="18"/>
<text text-anchor="middle" x="27" y="-85.8" font-family="Times,serif" font-size="14.00" fill="#000000">1</text>
</g>
<!-- 0&#45;&gt;1 -->
<g id="edge1" class="edge">
<title>0&#45;&gt;1</title>
<path fill="none" stroke="#000000" d="M361.7308,-160.2456C304.9123,-155.9955 170.2206,-142.8074 63,-108 61.1058,-107.3851 59.1872,-106.684 57.2731,-105.9235"/>
<polygon fill="#000000" stroke="#000000" points="58.4337,-102.6094 47.8737,-101.7506 55.5933,-109.0073 58.4337,-102.6094"/>
</g>
<!-- 2 -->
<g id="node3" class="node">
<title>2</title>
<ellipse fill="none" stroke="#000000" cx="99" cy="-90" rx="27" ry="18"/>
<text text-anchor="middle" x="99" y="-85.8" font-family="Times,serif" font-size="14.00" fill="#000000">2</text>
</g>
<!-- 0&#45;&gt;2 -->
<g id="edge2" class="edge">
<title>0&#45;&gt;2</title>
<path fill="none" stroke="#000000" d="M362.4391,-158.6219C315.543,-152.1622 215.4259,-136.139 135,-108 133.1202,-107.3423 131.2128,-106.608 129.3072,-105.8222"/>
<polygon fill="#000000" stroke="#000000" points="130.4845,-102.5134 119.9307,-101.5815 127.5999,-108.8914 130.4845,-102.5134"/>
</g>
<!-- 3 -->
<g id="node4" class="node">
<title>3</title>
<ellipse fill="none" stroke="#000000" cx="171" cy="-90" rx="27" ry="18"/>
<text text-anchor="middle" x="171" y="-85.8" font-family="Times,serif" font-size="14.00" fill="#000000">3</text>
</g>
<!-- 0&#45;&gt;3 -->
<g id="edge3" class="edge">
<title>0&#45;&gt;3</title>
<path fill="none" stroke="#000000" d="M363.776,-155.3123C329.1604,-145.9072 265.1711,-127.7049 212,-108 208.9385,-106.8654 205.7779,-105.6186 202.6333,-104.327"/>
<polygon fill="#000000" stroke="#000000" points="203.934,-101.0769 193.3618,-100.3848 201.195,-107.5187 203.934,-101.0769"/>
</g>
<!-- 4 -->
<g id="node5" class="node">
<title>4</title>
<ellipse fill="none" stroke="#000000" cx="209" cy="-18" rx="27" ry="18"/>
<text text-anchor="middle" x="209" y="-13.8" font-family="Times,serif" font-size="14.00" fill="#000000">4</text>
</g>
<!-- 0&#45;&gt;4 -->
<g id="edge4" class="edge">
<title>0&#45;&gt;4</title>
<path fill="none" stroke="#000000" d="M362.43,-158.6074C330.6094,-153.2201 277.5379,-139.8383 245,-108 227.973,-91.3391 218.7689,-65.5848 213.9425,-45.8881"/>
<polygon fill="#000000" stroke="#000000" points="217.3202,-44.9521 211.7445,-35.9431 210.4852,-46.4628 217.3202,-44.9521"/>
</g>
<!-- 5 -->
<g id="node6" class="node">
<title>5</title>
<ellipse fill="none" stroke="#000000" cx="281" cy="-90" rx="27" ry="18"/>
<text text-anchor="middle" x="281" y="-85.8" font-family="Times,serif" font-size="14.00" fill="#000000">5</text>
</g>
<!-- 0&#45;&gt;5 -->
<g id="edge5" class="edge">
<title>0&#45;&gt;5</title>
<path fill="none" stroke="#000000" d="M369.6918,-149.1278C352.6445,-137.763 327.5981,-121.0654 308.4656,-108.3104"/>
<polygon fill="#000000" stroke="#000000" points="310.4031,-105.3956 300.1411,-102.7607 306.5201,-111.2199 310.4031,-105.3956"/>
</g>
<!-- 6 -->
<g id="node7" class="node">
<title>6</title>
<ellipse fill="none" stroke="#000000" cx="353" cy="-90" rx="27" ry="18"/>
<text text-anchor="middle" x="353" y="-85.8" font-family="Times,serif" font-size="14.00" fill="#000000">6</text>
</g>
<!-- 0&#45;&gt;6 -->
<g id="edge6" class="edge">
<title>0&#45;&gt;6</title>
<path fill="none" stroke="#000000" d="M380.2854,-144.5708C376.0403,-136.0807 370.8464,-125.6929 366.1337,-116.2674"/>
<polygon fill="#000000" stroke="#000000" points="369.237,-114.6477 361.6343,-107.2687 362.976,-117.7782 369.237,-114.6477"/>
</g>
<!-- 7 -->
<g id="node8" class="node">
<title>7</title>
<ellipse fill="none" stroke="#000000" cx="425" cy="-90" rx="27" ry="18"/>
<text text-anchor="middle" x="425" y="-85.8" font-family="Times,serif" font-size="14.00" fill="#000000">7</text>
</g>
<!-- 0&#45;&gt;7 -->
<g id="edge7" class="edge">
<title>0&#45;&gt;7</title>
<path fill="none" stroke="#000000" d="M397.7146,-144.5708C401.9597,-136.0807 407.1536,-125.6929 411.8663,-116.2674"/>
<polygon fill="#000000" stroke="#000000" points="415.024,-117.7782 416.3657,-107.2687 408.763,-114.6477 415.024,-117.7782"/>
</g>
<!-- 8 -->
<g id="node9" class="node">
<title>8</title>
<ellipse fill="none" stroke="#000000" cx="497" cy="-90" rx="27" ry="18"/>
<text text-anchor="middle" x="497" y="-85.8" font-family="Times,serif" font-size="14.00" fill="#000000">8</text>
</g>
<!-- 0&#45;&gt;8 -->
<g id="edge8" class="edge">
<title>0&#45;&gt;8</title>
<path fill="none" stroke="#000000" d="M408.3082,-149.1278C425.3555,-137.763 450.4019,-121.0654 469.5344,-108.3104"/>
<polygon fill="#000000" stroke="#000000" points="471.4799,-111.2199 477.8589,-102.7607 467.5969,-105.3956 471.4799,-111.2199"/>
</g>
<!-- 9 -->
<g id="node10" class="node">
<title>9</title>
<ellipse fill="none" stroke="#000000" cx="569" cy="-90" rx="27" ry="18"/>
<text text-anchor="middle" x="569" y="-85.8" font-family="Times,serif" font-size="14.00" fill="#000000">9</text>
</g>
<!-- 0&#45;&gt;9 -->
<g id="edge9" class="edge">
<title>0&#45;&gt;9</title>
<path fill="none" stroke="#000000" d="M413.2584,-153.7783C442.131,-143.7927 491.6385,-126.0365 533,-108 534.7774,-107.2249 536.5926,-106.4064 538.4163,-105.5629"/>
<polygon fill="#000000" stroke="#000000" points="539.9666,-108.7011 547.4722,-101.2234 536.9416,-102.3885 539.9666,-108.7011"/>
</g>
<!-- 10 -->
<g id="node11" class="node">
<title>10</title>
<ellipse fill="none" stroke="#000000" cx="641" cy="-90" rx="27" ry="18"/>
<text text-anchor="middle" x="641" y="-85.8" font-family="Times,serif" font-size="14.00" fill="#000000">10</text>
</g>
<!-- 0&#45;&gt;10 -->
<g id="edge10" class="edge">
<title>0&#45;&gt;10</title>
<path fill="none" stroke="#000000" d="M415.1532,-157.3813C456.3398,-149.6838 538.4755,-132.609 605,-108 606.8678,-107.3091 608.7659,-106.5489 610.6644,-105.7434"/>
<polygon fill="#000000" stroke="#000000" points="612.3926,-108.8014 620.022,-101.4499 609.4734,-102.4391 612.3926,-108.8014"/>
</g>
<!-- 11 -->
<g id="node12" class="node">
<title>11</title>
<ellipse fill="none" stroke="#000000" cx="713" cy="-90" rx="27" ry="18"/>
<text text-anchor="middle" x="713" y="-85.8" font-family="Times,serif" font-size="14.00" fill="#000000">11</text>
</g>
<!-- 0&#45;&gt;11 -->
<g id="edge11" class="edge">
<title>0&#45;&gt;11</title>
<path fill="none" stroke="#000000" d="M415.8337,-159.486C467.5063,-154.0994 583.9424,-139.3035 677,-108 678.8876,-107.365 680.801,-106.6484 682.7112,-105.8761"/>
<polygon fill="#000000" stroke="#000000" points="684.4041,-108.953 692.1001,-101.6714 681.543,-102.5643 684.4041,-108.953"/>
</g>
<!-- 12 -->
<g id="node13" class="node">
<title>12</title>
<ellipse fill="none" stroke="#000000" cx="785" cy="-90" rx="27" ry="18"/>
<text text-anchor="middle" x="785" y="-85.8" font-family="Times,serif" font-size="14.00" fill="#000000">12</text>
</g>
<!-- 0&#45;&gt;12 -->
<g id="edge12" class="edge">
<title>0&#45;&gt;12</title>
<path fill="none" stroke="#000000" d="M416.2994,-160.8251C477.307,-157.5741 628.7848,-146.0143 749,-108 750.8988,-107.3996 752.821,-106.7097 754.7379,-105.9578"/>
<polygon fill="#000000" stroke="#000000" points="756.4082,-109.0465 764.1447,-101.8079 753.5827,-102.642 756.4082,-109.0465"/>
</g>
<!-- 5&#45;&gt;4 -->
<g id="edge13" class="edge">
<title>5&#45;&gt;4</title>
<path fill="none" stroke="#000000" d="M265.7307,-74.7307C255.803,-64.803 242.6847,-51.6847 231.5637,-40.5637"/>
<polygon fill="#000000" stroke="#000000" points="233.7933,-37.8436 224.2473,-33.2473 228.8436,-42.7933 233.7933,-37.8436"/>
</g>
<!-- 56 -->
<g id="node14" class="node">
<title>56</title>
<ellipse fill="none" stroke="#000000" cx="353" cy="-18" rx="27" ry="18"/>
<text text-anchor="middle" x="353" y="-13.8" font-family="Times,serif" font-size="14.00" fill="#000000">56</text>
</g>
<!-- 5&#45;&gt;56 -->
<g id="edge14" class="edge">
<title>5&#45;&gt;56</title>
<path fill="none" stroke="#000000" d="M296.2693,-74.7307C306.197,-64.803 319.3153,-51.6847 330.4363,-40.5637"/>
<polygon fill="#000000" stroke="#000000" points="333.1564,-42.7933 337.7527,-33.2473 328.2067,-37.8436 333.1564,-42.7933"/>
</g>
<!-- 164 -->
<g id="node15" class="node">
<title>164</title>
<ellipse fill="none" stroke="#000000" cx="281" cy="-18" rx="27" ry="18"/>
<text text-anchor="middle" x="281" y="-13.8" font-family="Times,serif" font-size="14.00" fill="#000000">164</text>
</g>
<!-- 5&#45;&gt;164 -->
<g id="edge15" class="edge">
<title>5&#45;&gt;164</title>
<path fill="none" stroke="#000000" d="M281,-71.8314C281,-64.131 281,-54.9743 281,-46.4166"/>
<polygon fill="#000000" stroke="#000000" points="284.5001,-46.4132 281,-36.4133 277.5001,-46.4133 284.5001,-46.4132"/>
</g>
<!-- 10&#45;&gt;56 -->
<g id="edge24" class="edge">
<title>10&#45;&gt;56</title>
<path fill="none" stroke="#000000" d="M620.1251,-78.2531C615.2749,-75.8959 610.0503,-73.6423 605,-72 512.4464,-41.9031 481.5536,-66.0969 389,-36 387.1061,-35.3841 385.1877,-34.6823 383.2738,-33.9213"/>
<polygon fill="#000000" stroke="#000000" points="384.4347,-30.6073 373.8749,-29.7469 381.5934,-37.0047 384.4347,-30.6073"/>
</g>
<!-- 48 -->
<g id="node16" class="node">
<title>48</title>
<ellipse fill="none" stroke="#000000" cx="425" cy="-18" rx="27" ry="18"/>
<text text-anchor="middle" x="425" y="-13.8" font-family="Times,serif" font-size="14.00" fill="#000000">48</text>
</g>
<!-- 10&#45;&gt;48 -->
<g id="edge16" class="edge">
<title>10&#45;&gt;48</title>
<path fill="none" stroke="#000000" d="M620.022,-78.5501C615.1771,-76.1775 609.9808,-73.8425 605,-72 543.128,-49.1121 522.872,-58.8879 461,-36 459.1322,-35.3091 457.2341,-34.5489 455.3356,-33.7434"/>
<polygon fill="#000000" stroke="#000000" points="456.5266,-30.4391 445.978,-29.4499 453.6074,-36.8014 456.5266,-30.4391"/>
</g>
<!-- 49 -->
<g id="node17" class="node">
<title>49</title>
<ellipse fill="none" stroke="#000000" cx="497" cy="-18" rx="27" ry="18"/>
<text text-anchor="middle" x="497" y="-13.8" font-family="Times,serif" font-size="14.00" fill="#000000">49</text>
</g>
<!-- 10&#45;&gt;49 -->
<g id="edge17" class="edge">
<title>10&#45;&gt;49</title>
<path fill="none" stroke="#000000" d="M619.1295,-79.0647C594.7778,-66.8889 555.238,-47.119 527.7715,-33.3858"/>
<polygon fill="#000000" stroke="#000000" points="529.114,-30.1439 518.6045,-28.8022 525.9835,-36.4049 529.114,-30.1439"/>
</g>
<!-- 50 -->
<g id="node18" class="node">
<title>50</title>
<ellipse fill="none" stroke="#000000" cx="569" cy="-18" rx="27" ry="18"/>
<text text-anchor="middle" x="569" y="-13.8" font-family="Times,serif" font-size="14.00" fill="#000000">50</text>
</g>
<!-- 10&#45;&gt;50 -->
<g id="edge18" class="edge">
<title>10&#45;&gt;50</title>
<path fill="none" stroke="#000000" d="M625.7307,-74.7307C615.803,-64.803 602.6847,-51.6847 591.5637,-40.5637"/>
<polygon fill="#000000" stroke="#000000" points="593.7933,-37.8436 584.2473,-33.2473 588.8436,-42.7933 593.7933,-37.8436"/>
</g>
<!-- 51 -->
<g id="node19" class="node">
<title>51</title>
<ellipse fill="none" stroke="#000000" cx="641" cy="-18" rx="27" ry="18"/>
<text text-anchor="middle" x="641" y="-13.8" font-family="Times,serif" font-size="14.00" fill="#000000">51</text>
</g>
<!-- 10&#45;&gt;51 -->
<g id="edge19" class="edge">
<title>10&#45;&gt;51</title>
<path fill="none" stroke="#000000" d="M641,-71.8314C641,-64.131 641,-54.9743 641,-46.4166"/>
<polygon fill="#000000" stroke="#000000" points="644.5001,-46.4132 641,-36.4133 637.5001,-46.4133 644.5001,-46.4132"/>
</g>
<!-- 52 -->
<g id="node20" class="node">
<title>52</title>
<ellipse fill="none" stroke="#000000" cx="713" cy="-18" rx="27" ry="18"/>
<text text-anchor="middle" x="713" y="-13.8" font-family="Times,serif" font-size="14.00" fill="#000000">52</text>
</g>
<!-- 10&#45;&gt;52 -->
<g id="edge20" class="edge">
<title>10&#45;&gt;52</title>
<path fill="none" stroke="#000000" d="M656.2693,-74.7307C666.197,-64.803 679.3153,-51.6847 690.4363,-40.5637"/>
<polygon fill="#000000" stroke="#000000" points="693.1564,-42.7933 697.7527,-33.2473 688.2067,-37.8436 693.1564,-42.7933"/>
</g>
<!-- 53 -->
<g id="node21" class="node">
<title>53</title>
<ellipse fill="none" stroke="#000000" cx="785" cy="-18" rx="27" ry="18"/>
<text text-anchor="middle" x="785" y="-13.8" font-family="Times,serif" font-size="14.00" fill="#000000">53</text>
</g>
<!-- 10&#45;&gt;53 -->
<g id="edge21" class="edge">
<title>10&#45;&gt;53</title>
<path fill="none" stroke="#000000" d="M662.8705,-79.0647C687.2222,-66.8889 726.762,-47.119 754.2285,-33.3858"/>
<polygon fill="#000000" stroke="#000000" points="756.0165,-36.4049 763.3955,-28.8022 752.886,-30.1439 756.0165,-36.4049"/>
</g>
<!-- 54 -->
<g id="node22" class="node">
<title>54</title>
<ellipse fill="none" stroke="#000000" cx="857" cy="-18" rx="27" ry="18"/>
<text text-anchor="middle" x="857" y="-13.8" font-family="Times,serif" font-size="14.00" fill="#000000">54</text>
</g>
<!-- 10&#45;&gt;54 -->
<g id="edge22" class="edge">
<title>10&#45;&gt;54</title>
<path fill="none" stroke="#000000" d="M661.978,-78.5501C666.8229,-76.1775 672.0192,-73.8425 677,-72 738.872,-49.1121 759.128,-58.8879 821,-36 822.8678,-35.3091 824.7659,-34.5489 826.6644,-33.7434"/>
<polygon fill="#000000" stroke="#000000" points="828.3926,-36.8014 836.022,-29.4499 825.4734,-30.4391 828.3926,-36.8014"/>
</g>
<!-- 55 -->
<g id="node23" class="node">
<title>55</title>
<ellipse fill="none" stroke="#000000" cx="929" cy="-18" rx="27" ry="18"/>
<text text-anchor="middle" x="929" y="-13.8" font-family="Times,serif" font-size="14.00" fill="#000000">55</text>
</g>
<!-- 10&#45;&gt;55 -->
<g id="edge23" class="edge">
<title>10&#45;&gt;55</title>
<path fill="none" stroke="#000000" d="M661.8749,-78.2531C666.7251,-75.8959 671.9497,-73.6423 677,-72 769.5536,-41.9031 800.4464,-66.0969 893,-36 894.8939,-35.3841 896.8123,-34.6823 898.7262,-33.9213"/>
<polygon fill="#000000" stroke="#000000" points="900.4066,-37.0047 908.1251,-29.7469 897.5653,-30.6073 900.4066,-37.0047"/>
</g>
<!-- 57 -->
<g id="node24" class="node">
<title>57</title>
<ellipse fill="none" stroke="#000000" cx="1001" cy="-18" rx="27" ry="18"/>
<text text-anchor="middle" x="1001" y="-13.8" font-family="Times,serif" font-size="14.00" fill="#000000">57</text>
</g>
<!-- 10&#45;&gt;57 -->
<g id="edge25" class="edge">
<title>10&#45;&gt;57</title>
<path fill="none" stroke="#000000" d="M661.8268,-78.0998C666.6795,-75.7506 671.9172,-73.5389 677,-72 800.4612,-34.619 841.5388,-73.381 965,-36 966.906,-35.4229 968.8339,-34.7512 970.755,-34.0131"/>
<polygon fill="#000000" stroke="#000000" points="972.4097,-37.1098 980.1732,-29.9002 969.6082,-30.6948 972.4097,-37.1098"/>
</g>
<!-- 58 -->
<g id="node25" class="node">
<title>58</title>
<ellipse fill="none" stroke="#000000" cx="1073" cy="-18" rx="27" ry="18"/>
<text text-anchor="middle" x="1073" y="-13.8" font-family="Times,serif" font-size="14.00" fill="#000000">58</text>
</g>
<!-- 10&#45;&gt;58 -->
<g id="edge26" class="edge">
<title>10&#45;&gt;58</title>
<path fill="none" stroke="#000000" d="M661.4168,-78.192C666.3771,-75.7777 671.7644,-73.5149 677,-72 831.4619,-27.3064 882.5381,-80.6936 1037,-36 1039.127,-35.3846 1041.279,-34.6457 1043.4172,-33.8234"/>
<polygon fill="#000000" stroke="#000000" points="1044.828,-37.0265 1052.5832,-29.808 1042.0192,-30.6148 1044.828,-37.0265"/>
</g>
</g>
</svg>
