<?xml version="1.0" encoding="UTF-8" standalone="no"?>
<!DOCTYPE svg PUBLIC "-//W3C//DTD SVG 1.1//EN"
 "http://www.w3.org/Graphics/SVG/1.1/DTD/svg11.dtd">
<!-- Generated by graphviz version 2.40.1 (20161225.0304)
 -->
<!-- Pages: 1 -->
<svg width="854pt" height="116pt"
 viewBox="0.00 0.00 854.00 116.00" xmlns="http://www.w3.org/2000/svg" xmlns:xlink="http://www.w3.org/1999/xlink">
<g id="graph0" class="graph" transform="scale(1 1) rotate(0) translate(4 112)">
<polygon fill="#ffffff" stroke="transparent" points="-4,4 -4,-112 850,-112 850,4 -4,4"/>
<!-- 232 -->
<g id="node1" class="node">
<title>232</title>
<ellipse fill="none" stroke="#000000" cx="423" cy="-90" rx="27" ry="18"/>
<text text-anchor="middle" x="423" y="-85.8" font-family="Times,serif" font-size="14.00" fill="#000000">232</text>
</g>
<!-- 233 -->
<g id="node2" class="node">
<title>233</title>
<ellipse fill="none" stroke="#000000" cx="27" cy="-18" rx="27" ry="18"/>
<text text-anchor="middle" x="27" y="-13.8" font-family="Times,serif" font-size="14.00" fill="#000000">233</text>
</g>
<!-- 232&#45;&gt;233 -->
<g id="edge1" class="edge">
<title>232&#45;&gt;233</title>
<path fill="none" stroke="#000000" d="M395.7006,-88.8251C334.693,-85.5741 183.2152,-74.0143 63,-36 61.1012,-35.3996 59.179,-34.7097 57.2621,-33.9578"/>
<polygon fill="#000000" stroke="#000000" points="58.4173,-30.642 47.8553,-29.8079 55.5918,-37.0465 58.4173,-30.642"/>
</g>
<!-- 234 -->
<g id="node3" class="node">
<title>234</title>
<ellipse fill="none" stroke="#000000" cx="99" cy="-18" rx="27" ry="18"/>
<text text-anchor="middle" x="99" y="-13.8" font-family="Times,serif" font-size="14.00" fill="#000000">234</text>
</g>
<!-- 232&#45;&gt;234 -->
<g id="edge2" class="edge">
<title>232&#45;&gt;234</title>
<path fill="none" stroke="#000000" d="M396.1663,-87.486C344.4937,-82.0994 228.0576,-67.3035 135,-36 133.1124,-35.365 131.199,-34.6484 129.2888,-33.8761"/>
<polygon fill="#000000" stroke="#000000" points="130.457,-30.5643 119.8999,-29.6714 127.5959,-36.953 130.457,-30.5643"/>
</g>
<!-- 14 -->
<g id="node4" class="node">
<title>14</title>
<ellipse fill="none" stroke="#000000" cx="171" cy="-18" rx="27" ry="18"/>
<text text-anchor="middle" x="171" y="-13.8" font-family="Times,serif" font-size="14.00" fill="#000000">14</text>
</g>
<!-- 232&#45;&gt;14 -->
<g id="edge3" class="edge">
<title>232&#45;&gt;14</title>
<path fill="none" stroke="#000000" d="M396.8468,-85.3813C355.6602,-77.6838 273.5245,-60.609 207,-36 205.1322,-35.3091 203.2341,-34.5489 201.3356,-33.7434"/>
<polygon fill="#000000" stroke="#000000" points="202.5266,-30.4391 191.978,-29.4499 199.6074,-36.8014 202.5266,-30.4391"/>
</g>
<!-- 235 -->
<g id="node5" class="node">
<title>235</title>
<ellipse fill="none" stroke="#000000" cx="243" cy="-18" rx="27" ry="18"/>
<text text-anchor="middle" x="243" y="-13.8" font-family="Times,serif" font-size="14.00" fill="#000000">235</text>
</g>
<!-- 232&#45;&gt;235 -->
<g id="edge4" class="edge">
<title>232&#45;&gt;235</title>
<path fill="none" stroke="#000000" d="M398.7416,-81.7783C369.869,-71.7927 320.3615,-54.0365 279,-36 277.2226,-35.2249 275.4074,-34.4064 273.5837,-33.5629"/>
<polygon fill="#000000" stroke="#000000" points="275.0584,-30.3885 264.5278,-29.2234 272.0334,-36.7011 275.0584,-30.3885"/>
</g>
<!-- 236 -->
<g id="node6" class="node">
<title>236</title>
<ellipse fill="none" stroke="#000000" cx="315" cy="-18" rx="27" ry="18"/>
<text text-anchor="middle" x="315" y="-13.8" font-family="Times,serif" font-size="14.00" fill="#000000">236</text>
</g>
<!-- 232&#45;&gt;236 -->
<g id="edge5" class="edge">
<title>232&#45;&gt;236</title>
<path fill="none" stroke="#000000" d="M403.6918,-77.1278C386.6445,-65.763 361.5981,-49.0654 342.4656,-36.3104"/>
<polygon fill="#000000" stroke="#000000" points="344.4031,-33.3956 334.1411,-30.7607 340.5201,-39.2199 344.4031,-33.3956"/>
</g>
<!-- 237 -->
<g id="node7" class="node">
<title>237</title>
<ellipse fill="none" stroke="#000000" cx="387" cy="-18" rx="27" ry="18"/>
<text text-anchor="middle" x="387" y="-13.8" font-family="Times,serif" font-size="14.00" fill="#000000">237</text>
</g>
<!-- 232&#45;&gt;237 -->
<g id="edge6" class="edge">
<title>232&#45;&gt;237</title>
<path fill="none" stroke="#000000" d="M414.2854,-72.5708C410.0403,-64.0807 404.8464,-53.6929 400.1337,-44.2674"/>
<polygon fill="#000000" stroke="#000000" points="403.237,-42.6477 395.6343,-35.2687 396.976,-45.7782 403.237,-42.6477"/>
</g>
<!-- 238 -->
<g id="node8" class="node">
<title>238</title>
<ellipse fill="none" stroke="#000000" cx="459" cy="-18" rx="27" ry="18"/>
<text text-anchor="middle" x="459" y="-13.8" font-family="Times,serif" font-size="14.00" fill="#000000">238</text>
</g>
<!-- 232&#45;&gt;238 -->
<g id="edge7" class="edge">
<title>232&#45;&gt;238</title>
<path fill="none" stroke="#000000" d="M431.7146,-72.5708C435.9597,-64.0807 441.1536,-53.6929 445.8663,-44.2674"/>
<polygon fill="#000000" stroke="#000000" points="449.024,-45.7782 450.3657,-35.2687 442.763,-42.6477 449.024,-45.7782"/>
</g>
<!-- 239 -->
<g id="node9" class="node">
<title>239</title>
<ellipse fill="none" stroke="#000000" cx="531" cy="-18" rx="27" ry="18"/>
<text text-anchor="middle" x="531" y="-13.8" font-family="Times,serif" font-size="14.00" fill="#000000">239</text>
</g>
<!-- 232&#45;&gt;239 -->
<g id="edge8" class="edge">
<title>232&#45;&gt;239</title>
<path fill="none" stroke="#000000" d="M442.3082,-77.1278C459.3555,-65.763 484.4019,-49.0654 503.5344,-36.3104"/>
<polygon fill="#000000" stroke="#000000" points="505.4799,-39.2199 511.8589,-30.7607 501.5969,-33.3956 505.4799,-39.2199"/>
</g>
<!-- 240 -->
<g id="node10" class="node">
<title>240</title>
<ellipse fill="none" stroke="#000000" cx="603" cy="-18" rx="27" ry="18"/>
<text text-anchor="middle" x="603" y="-13.8" font-family="Times,serif" font-size="14.00" fill="#000000">240</text>
</g>
<!-- 232&#45;&gt;240 -->
<g id="edge9" class="edge">
<title>232&#45;&gt;240</title>
<path fill="none" stroke="#000000" d="M447.2584,-81.7783C476.131,-71.7927 525.6385,-54.0365 567,-36 568.7774,-35.2249 570.5926,-34.4064 572.4163,-33.5629"/>
<polygon fill="#000000" stroke="#000000" points="573.9666,-36.7011 581.4722,-29.2234 570.9416,-30.3885 573.9666,-36.7011"/>
</g>
<!-- 241 -->
<g id="node11" class="node">
<title>241</title>
<ellipse fill="none" stroke="#000000" cx="675" cy="-18" rx="27" ry="18"/>
<text text-anchor="middle" x="675" y="-13.8" font-family="Times,serif" font-size="14.00" fill="#000000">241</text>
</g>
<!-- 232&#45;&gt;241 -->
<g id="edge10" class="edge">
<title>232&#45;&gt;241</title>
<path fill="none" stroke="#000000" d="M449.1532,-85.3813C490.3398,-77.6838 572.4755,-60.609 639,-36 640.8678,-35.3091 642.7659,-34.5489 644.6644,-33.7434"/>
<polygon fill="#000000" stroke="#000000" points="646.3926,-36.8014 654.022,-29.4499 643.4734,-30.4391 646.3926,-36.8014"/>
</g>
<!-- 242 -->
<g id="node12" class="node">
<title>242</title>
<ellipse fill="none" stroke="#000000" cx="747" cy="-18" rx="27" ry="18"/>
<text text-anchor="middle" x="747" y="-13.8" font-family="Times,serif" font-size="14.00" fill="#000000">242</text>
</g>
<!-- 232&#45;&gt;242 -->
<g id="edge11" class="edge">
<title>232&#45;&gt;242</title>
<path fill="none" stroke="#000000" d="M449.8337,-87.486C501.5063,-82.0994 617.9424,-67.3035 711,-36 712.8876,-35.365 714.801,-34.6484 716.7112,-33.8761"/>
<polygon fill="#000000" stroke="#000000" points="718.4041,-36.953 726.1001,-29.6714 715.543,-30.5643 718.4041,-36.953"/>
</g>
<!-- 243 -->
<g id="node13" class="node">
<title>243</title>
<ellipse fill="none" stroke="#000000" cx="819" cy="-18" rx="27" ry="18"/>
<text text-anchor="middle" x="819" y="-13.8" font-family="Times,serif" font-size="14.00" fill="#000000">243</text>
</g>
<!-- 232&#45;&gt;243 -->
<g id="edge12" class="edge">
<title>232&#45;&gt;243</title>
<path fill="none" stroke="#000000" d="M450.2994,-88.8251C511.307,-85.5741 662.7848,-74.0143 783,-36 784.8988,-35.3996 786.821,-34.7097 788.7379,-33.9578"/>
<polygon fill="#000000" stroke="#000000" points="790.4082,-37.0465 798.1447,-29.8079 787.5827,-30.642 790.4082,-37.0465"/>
</g>
</g>
</svg>
