<?xml version="1.0" encoding="UTF-8" standalone="no"?>
<!DOCTYPE svg PUBLIC "-//W3C//DTD SVG 1.1//EN"
 "http://www.w3.org/Graphics/SVG/1.1/DTD/svg11.dtd">
<!-- Generated by graphviz version 2.40.1 (20161225.0304)
 -->
<!-- Pages: 1 -->
<svg width="1557pt" height="188pt"
 viewBox="0.00 0.00 1557.00 188.00" xmlns="http://www.w3.org/2000/svg" xmlns:xlink="http://www.w3.org/1999/xlink">
<g id="graph0" class="graph" transform="scale(1 1) rotate(0) translate(4 184)">
<polygon fill="#ffffff" stroke="transparent" points="-4,4 -4,-184 1553,-184 1553,4 -4,4"/>
<!-- 79 -->
<g id="node1" class="node">
<title>79</title>
<ellipse fill="none" stroke="#000000" cx="342" cy="-162" rx="27" ry="18"/>
<text text-anchor="middle" x="342" y="-157.8" font-family="Times,serif" font-size="14.00" fill="#000000">79</text>
</g>
<!-- 80 -->
<g id="node2" class="node">
<title>80</title>
<ellipse fill="none" stroke="#000000" cx="27" cy="-90" rx="27" ry="18"/>
<text text-anchor="middle" x="27" y="-85.8" font-family="Times,serif" font-size="14.00" fill="#000000">80</text>
</g>
<!-- 79&#45;&gt;80 -->
<g id="edge1" class="edge">
<title>79&#45;&gt;80</title>
<path fill="none" stroke="#000000" d="M315.2238,-159.2744C264.7844,-153.6068 152.6937,-138.4636 63,-108 61.1143,-107.3595 59.2023,-106.6386 57.2932,-105.863"/>
<polygon fill="#000000" stroke="#000000" points="58.4636,-102.552 47.9072,-101.6496 55.5968,-108.938 58.4636,-102.552"/>
</g>
<!-- 81 -->
<g id="node3" class="node">
<title>81</title>
<ellipse fill="none" stroke="#000000" cx="99" cy="-90" rx="27" ry="18"/>
<text text-anchor="middle" x="99" y="-85.8" font-family="Times,serif" font-size="14.00" fill="#000000">81</text>
</g>
<!-- 79&#45;&gt;81 -->
<g id="edge2" class="edge">
<title>79&#45;&gt;81</title>
<path fill="none" stroke="#000000" d="M315.9719,-157.032C276.2059,-149.0383 198.276,-131.775 135,-108 133.1358,-107.2995 131.2404,-106.5319 129.344,-105.7209"/>
<polygon fill="#000000" stroke="#000000" points="130.5391,-102.4179 119.9921,-101.4123 127.61,-108.7756 130.5391,-102.4179"/>
</g>
<!-- 82 -->
<g id="node4" class="node">
<title>82</title>
<ellipse fill="none" stroke="#000000" cx="171" cy="-90" rx="27" ry="18"/>
<text text-anchor="middle" x="171" y="-85.8" font-family="Times,serif" font-size="14.00" fill="#000000">82</text>
</g>
<!-- 79&#45;&gt;82 -->
<g id="edge3" class="edge">
<title>79&#45;&gt;82</title>
<path fill="none" stroke="#000000" d="M318.339,-153.2198C291.1886,-142.9874 245.4562,-125.2694 207,-108 205.2311,-107.2056 203.4227,-106.372 201.6041,-105.5169"/>
<polygon fill="#000000" stroke="#000000" points="203.0888,-102.3472 192.5623,-101.1455 200.0419,-108.6493 203.0888,-102.3472"/>
</g>
<!-- 83 -->
<g id="node5" class="node">
<title>83</title>
<ellipse fill="none" stroke="#000000" cx="243" cy="-90" rx="27" ry="18"/>
<text text-anchor="middle" x="243" y="-85.8" font-family="Times,serif" font-size="14.00" fill="#000000">83</text>
</g>
<!-- 79&#45;&gt;83 -->
<g id="edge4" class="edge">
<title>79&#45;&gt;83</title>
<path fill="none" stroke="#000000" d="M323.3789,-148.4574C308.3065,-137.4956 286.8746,-121.9088 269.9313,-109.5864"/>
<polygon fill="#000000" stroke="#000000" points="271.6836,-106.5331 261.5376,-103.4819 267.5664,-112.1943 271.6836,-106.5331"/>
</g>
<!-- 84 -->
<g id="node6" class="node">
<title>84</title>
<ellipse fill="none" stroke="#000000" cx="370" cy="-18" rx="27" ry="18"/>
<text text-anchor="middle" x="370" y="-13.8" font-family="Times,serif" font-size="14.00" fill="#000000">84</text>
</g>
<!-- 79&#45;&gt;84 -->
<g id="edge5" class="edge">
<title>79&#45;&gt;84</title>
<path fill="none" stroke="#000000" d="M345.4896,-144.0535C350.2683,-119.4774 358.8971,-75.1008 364.5366,-46.0974"/>
<polygon fill="#000000" stroke="#000000" points="367.9933,-46.6569 366.4664,-36.1727 361.122,-45.3208 367.9933,-46.6569"/>
</g>
<!-- 85 -->
<g id="node7" class="node">
<title>85</title>
<ellipse fill="none" stroke="#000000" cx="1342" cy="-90" rx="27" ry="18"/>
<text text-anchor="middle" x="1342" y="-85.8" font-family="Times,serif" font-size="14.00" fill="#000000">85</text>
</g>
<!-- 79&#45;&gt;85 -->
<g id="edge6" class="edge">
<title>79&#45;&gt;85</title>
<path fill="none" stroke="#000000" d="M369.2937,-161.1318C516.5811,-156.3583 1213.3573,-132.6254 1306,-108 1307.9753,-107.4749 1309.9692,-106.8349 1311.9517,-106.1129"/>
<polygon fill="#000000" stroke="#000000" points="1313.811,-109.1245 1321.6294,-101.9745 1311.0587,-102.6883 1313.811,-109.1245"/>
</g>
<!-- 86 -->
<g id="node8" class="node">
<title>86</title>
<ellipse fill="none" stroke="#000000" cx="315" cy="-90" rx="27" ry="18"/>
<text text-anchor="middle" x="315" y="-85.8" font-family="Times,serif" font-size="14.00" fill="#000000">86</text>
</g>
<!-- 79&#45;&gt;86 -->
<g id="edge7" class="edge">
<title>79&#45;&gt;86</title>
<path fill="none" stroke="#000000" d="M335.3258,-144.2022C332.2524,-136.0064 328.5384,-126.1024 325.1305,-117.0145"/>
<polygon fill="#000000" stroke="#000000" points="328.3858,-115.7274 321.5974,-107.593 321.8315,-118.1853 328.3858,-115.7274"/>
</g>
<!-- 87 -->
<g id="node9" class="node">
<title>87</title>
<ellipse fill="none" stroke="#000000" cx="802" cy="-90" rx="27" ry="18"/>
<text text-anchor="middle" x="802" y="-85.8" font-family="Times,serif" font-size="14.00" fill="#000000">87</text>
</g>
<!-- 79&#45;&gt;87 -->
<g id="edge8" class="edge">
<title>79&#45;&gt;87</title>
<path fill="none" stroke="#000000" d="M368.3838,-157.8704C446.337,-145.669 675.7506,-109.7608 765.456,-95.7199"/>
<polygon fill="#000000" stroke="#000000" points="766.0978,-99.1622 775.4363,-94.1578 765.0153,-92.2464 766.0978,-99.1622"/>
</g>
<!-- 88 -->
<g id="node10" class="node">
<title>88</title>
<ellipse fill="none" stroke="#000000" cx="1270" cy="-90" rx="27" ry="18"/>
<text text-anchor="middle" x="1270" y="-85.8" font-family="Times,serif" font-size="14.00" fill="#000000">88</text>
</g>
<!-- 79&#45;&gt;88 -->
<g id="edge9" class="edge">
<title>79&#45;&gt;88</title>
<path fill="none" stroke="#000000" d="M369.021,-159.9035C501.2674,-149.643 1080.0751,-104.7356 1232.8924,-92.879"/>
<polygon fill="#000000" stroke="#000000" points="1233.4478,-96.3466 1243.1471,-92.0834 1232.9063,-89.3675 1233.4478,-96.3466"/>
</g>
<!-- 89 -->
<g id="node11" class="node">
<title>89</title>
<ellipse fill="none" stroke="#000000" cx="1414" cy="-90" rx="27" ry="18"/>
<text text-anchor="middle" x="1414" y="-85.8" font-family="Times,serif" font-size="14.00" fill="#000000">89</text>
</g>
<!-- 79&#45;&gt;89 -->
<g id="edge10" class="edge">
<title>79&#45;&gt;89</title>
<path fill="none" stroke="#000000" d="M369.0389,-161.2523C522.233,-156.9282 1277.9179,-134.395 1378,-108 1379.9763,-107.4788 1381.971,-106.8417 1383.9541,-106.122"/>
<polygon fill="#000000" stroke="#000000" points="1385.8109,-109.1349 1393.6334,-101.9893 1383.0622,-102.6971 1385.8109,-109.1349"/>
</g>
<!-- 272 -->
<g id="node12" class="node">
<title>272</title>
<ellipse fill="none" stroke="#000000" cx="82" cy="-18" rx="27" ry="18"/>
<text text-anchor="middle" x="82" y="-13.8" font-family="Times,serif" font-size="14.00" fill="#000000">272</text>
</g>
<!-- 86&#45;&gt;272 -->
<g id="edge11" class="edge">
<title>86&#45;&gt;272</title>
<path fill="none" stroke="#000000" d="M294.0555,-78.4575C289.2089,-76.0897 284.0034,-73.7801 279,-72 209.9193,-47.4224 187.0807,-60.5776 118,-36 116.1237,-35.3325 114.219,-34.5904 112.3155,-33.7988"/>
<polygon fill="#000000" stroke="#000000" points="113.4967,-30.4913 102.9445,-29.5425 110.6019,-36.8647 113.4967,-30.4913"/>
</g>
<!-- 273 -->
<g id="node13" class="node">
<title>273</title>
<ellipse fill="none" stroke="#000000" cx="154" cy="-18" rx="27" ry="18"/>
<text text-anchor="middle" x="154" y="-13.8" font-family="Times,serif" font-size="14.00" fill="#000000">273</text>
</g>
<!-- 86&#45;&gt;273 -->
<g id="edge12" class="edge">
<title>86&#45;&gt;273</title>
<path fill="none" stroke="#000000" d="M293.4314,-78.8684C288.7094,-76.5289 283.713,-74.1274 279,-72 240.1095,-54.4451 228.8905,-53.5549 190,-36 188.2326,-35.2022 186.4254,-34.3659 184.6077,-33.5087"/>
<polygon fill="#000000" stroke="#000000" points="186.0943,-30.3399 175.5686,-29.1316 183.0434,-36.6401 186.0943,-30.3399"/>
</g>
<!-- 155 -->
<g id="node14" class="node">
<title>155</title>
<ellipse fill="none" stroke="#000000" cx="298" cy="-18" rx="27" ry="18"/>
<text text-anchor="middle" x="298" y="-13.8" font-family="Times,serif" font-size="14.00" fill="#000000">155</text>
</g>
<!-- 86&#45;&gt;155 -->
<g id="edge13" class="edge">
<title>86&#45;&gt;155</title>
<path fill="none" stroke="#000000" d="M310.7978,-72.2022C308.9179,-64.2406 306.6575,-54.6671 304.5629,-45.7957"/>
<polygon fill="#000000" stroke="#000000" points="307.9172,-44.7706 302.2128,-35.8425 301.1045,-46.3792 307.9172,-44.7706"/>
</g>
<!-- 274 -->
<g id="node15" class="node">
<title>274</title>
<ellipse fill="none" stroke="#000000" cx="226" cy="-18" rx="27" ry="18"/>
<text text-anchor="middle" x="226" y="-13.8" font-family="Times,serif" font-size="14.00" fill="#000000">274</text>
</g>
<!-- 86&#45;&gt;274 -->
<g id="edge14" class="edge">
<title>86&#45;&gt;274</title>
<path fill="none" stroke="#000000" d="M297.4165,-75.7751C284.166,-65.0557 265.8155,-50.2103 251.0339,-38.2522"/>
<polygon fill="#000000" stroke="#000000" points="253.22,-35.5188 243.2442,-31.9503 248.8173,-40.9609 253.22,-35.5188"/>
</g>
<!-- 87&#45;&gt;84 -->
<g id="edge17" class="edge">
<title>87&#45;&gt;84</title>
<path fill="none" stroke="#000000" d="M774.9333,-89.3437C709.8912,-87.1202 540.2487,-77.4674 406,-36 404.0972,-35.4123 402.1719,-34.7323 400.2527,-33.9879"/>
<polygon fill="#000000" stroke="#000000" points="401.4033,-30.6707 390.8396,-29.8581 398.5909,-37.0809 401.4033,-30.6707"/>
</g>
<!-- 87&#45;&gt;155 -->
<g id="edge23" class="edge">
<title>87&#45;&gt;155</title>
<path fill="none" stroke="#000000" d="M775.1157,-88.1322C688.5571,-81.9257 417.8785,-60.963 334,-36 332.0912,-35.4319 330.1613,-34.7673 328.2385,-34.0345"/>
<polygon fill="#000000" stroke="#000000" points="329.3822,-30.7153 318.816,-29.9359 326.59,-37.1343 329.3822,-30.7153"/>
</g>
<!-- 275 -->
<g id="node16" class="node">
<title>275</title>
<ellipse fill="none" stroke="#000000" cx="658" cy="-18" rx="27" ry="18"/>
<text text-anchor="middle" x="658" y="-13.8" font-family="Times,serif" font-size="14.00" fill="#000000">275</text>
</g>
<!-- 87&#45;&gt;275 -->
<g id="edge15" class="edge">
<title>87&#45;&gt;275</title>
<path fill="none" stroke="#000000" d="M780.1295,-79.0647C755.7778,-66.8889 716.238,-47.119 688.7715,-33.3858"/>
<polygon fill="#000000" stroke="#000000" points="690.114,-30.1439 679.6045,-28.8022 686.9835,-36.4049 690.114,-30.1439"/>
</g>
<!-- 254 -->
<g id="node17" class="node">
<title>254</title>
<ellipse fill="none" stroke="#000000" cx="730" cy="-18" rx="27" ry="18"/>
<text text-anchor="middle" x="730" y="-13.8" font-family="Times,serif" font-size="14.00" fill="#000000">254</text>
</g>
<!-- 87&#45;&gt;254 -->
<g id="edge16" class="edge">
<title>87&#45;&gt;254</title>
<path fill="none" stroke="#000000" d="M786.7307,-74.7307C776.803,-64.803 763.6847,-51.6847 752.5637,-40.5637"/>
<polygon fill="#000000" stroke="#000000" points="754.7933,-37.8436 745.2473,-33.2473 749.8436,-42.7933 754.7933,-37.8436"/>
</g>
<!-- 276 -->
<g id="node18" class="node">
<title>276</title>
<ellipse fill="none" stroke="#000000" cx="802" cy="-18" rx="27" ry="18"/>
<text text-anchor="middle" x="802" y="-13.8" font-family="Times,serif" font-size="14.00" fill="#000000">276</text>
</g>
<!-- 87&#45;&gt;276 -->
<g id="edge18" class="edge">
<title>87&#45;&gt;276</title>
<path fill="none" stroke="#000000" d="M802,-71.8314C802,-64.131 802,-54.9743 802,-46.4166"/>
<polygon fill="#000000" stroke="#000000" points="805.5001,-46.4132 802,-36.4133 798.5001,-46.4133 805.5001,-46.4132"/>
</g>
<!-- 277 -->
<g id="node19" class="node">
<title>277</title>
<ellipse fill="none" stroke="#000000" cx="874" cy="-18" rx="27" ry="18"/>
<text text-anchor="middle" x="874" y="-13.8" font-family="Times,serif" font-size="14.00" fill="#000000">277</text>
</g>
<!-- 87&#45;&gt;277 -->
<g id="edge19" class="edge">
<title>87&#45;&gt;277</title>
<path fill="none" stroke="#000000" d="M817.2693,-74.7307C827.197,-64.803 840.3153,-51.6847 851.4363,-40.5637"/>
<polygon fill="#000000" stroke="#000000" points="854.1564,-42.7933 858.7527,-33.2473 849.2067,-37.8436 854.1564,-42.7933"/>
</g>
<!-- 278 -->
<g id="node20" class="node">
<title>278</title>
<ellipse fill="none" stroke="#000000" cx="946" cy="-18" rx="27" ry="18"/>
<text text-anchor="middle" x="946" y="-13.8" font-family="Times,serif" font-size="14.00" fill="#000000">278</text>
</g>
<!-- 87&#45;&gt;278 -->
<g id="edge20" class="edge">
<title>87&#45;&gt;278</title>
<path fill="none" stroke="#000000" d="M823.8705,-79.0647C848.2222,-66.8889 887.762,-47.119 915.2285,-33.3858"/>
<polygon fill="#000000" stroke="#000000" points="917.0165,-36.4049 924.3955,-28.8022 913.886,-30.1439 917.0165,-36.4049"/>
</g>
<!-- 279 -->
<g id="node21" class="node">
<title>279</title>
<ellipse fill="none" stroke="#000000" cx="1018" cy="-18" rx="27" ry="18"/>
<text text-anchor="middle" x="1018" y="-13.8" font-family="Times,serif" font-size="14.00" fill="#000000">279</text>
</g>
<!-- 87&#45;&gt;279 -->
<g id="edge21" class="edge">
<title>87&#45;&gt;279</title>
<path fill="none" stroke="#000000" d="M827.5087,-83.8285C862.8212,-74.9533 928.3193,-57.2886 982,-36 983.8512,-35.2658 985.7365,-34.4721 987.6252,-33.641"/>
<polygon fill="#000000" stroke="#000000" points="989.3796,-36.6845 996.9565,-29.279 986.4152,-30.3432 989.3796,-36.6845"/>
</g>
<!-- 6 -->
<g id="node22" class="node">
<title>6</title>
<ellipse fill="none" stroke="#000000" cx="1090" cy="-18" rx="27" ry="18"/>
<text text-anchor="middle" x="1090" y="-13.8" font-family="Times,serif" font-size="14.00" fill="#000000">6</text>
</g>
<!-- 87&#45;&gt;6 -->
<g id="edge22" class="edge">
<title>87&#45;&gt;6</title>
<path fill="none" stroke="#000000" d="M828.7211,-86.5398C875.4014,-79.9998 974.4135,-63.9174 1054,-36 1055.8792,-35.3408 1057.7862,-34.6053 1059.6915,-33.8186"/>
<polygon fill="#000000" stroke="#000000" points="1061.3998,-36.8873 1069.0672,-29.5755 1058.5136,-30.51 1061.3998,-36.8873"/>
</g>
<!-- 280 -->
<g id="node23" class="node">
<title>280</title>
<ellipse fill="none" stroke="#000000" cx="1162" cy="-18" rx="27" ry="18"/>
<text text-anchor="middle" x="1162" y="-13.8" font-family="Times,serif" font-size="14.00" fill="#000000">280</text>
</g>
<!-- 87&#45;&gt;280 -->
<g id="edge24" class="edge">
<title>87&#45;&gt;280</title>
<path fill="none" stroke="#000000" d="M829.1019,-88.2206C885.5717,-83.9236 1019.4368,-70.6526 1126,-36 1127.8939,-35.3841 1129.8123,-34.6823 1131.7262,-33.9213"/>
<polygon fill="#000000" stroke="#000000" points="1133.4066,-37.0047 1141.1251,-29.7469 1130.5653,-30.6073 1133.4066,-37.0047"/>
</g>
<!-- 23 -->
<g id="node24" class="node">
<title>23</title>
<ellipse fill="none" stroke="#000000" cx="442" cy="-18" rx="27" ry="18"/>
<text text-anchor="middle" x="442" y="-13.8" font-family="Times,serif" font-size="14.00" fill="#000000">23</text>
</g>
<!-- 87&#45;&gt;23 -->
<g id="edge25" class="edge">
<title>87&#45;&gt;23</title>
<path fill="none" stroke="#000000" d="M774.8981,-88.2206C718.4283,-83.9236 584.5632,-70.6526 478,-36 476.1061,-35.3841 474.1877,-34.6823 472.2738,-33.9213"/>
<polygon fill="#000000" stroke="#000000" points="473.4347,-30.6073 462.8749,-29.7469 470.5934,-37.0047 473.4347,-30.6073"/>
</g>
<!-- 69 -->
<g id="node25" class="node">
<title>69</title>
<ellipse fill="none" stroke="#000000" cx="1234" cy="-18" rx="27" ry="18"/>
<text text-anchor="middle" x="1234" y="-13.8" font-family="Times,serif" font-size="14.00" fill="#000000">69</text>
</g>
<!-- 87&#45;&gt;69 -->
<g id="edge26" class="edge">
<title>87&#45;&gt;69</title>
<path fill="none" stroke="#000000" d="M829.0667,-89.3437C894.1088,-87.1202 1063.7513,-77.4674 1198,-36 1199.9028,-35.4123 1201.8281,-34.7323 1203.7473,-33.9879"/>
<polygon fill="#000000" stroke="#000000" points="1205.4091,-37.0809 1213.1604,-29.8581 1202.5967,-30.6707 1205.4091,-37.0809"/>
</g>
<!-- 281 -->
<g id="node26" class="node">
<title>281</title>
<ellipse fill="none" stroke="#000000" cx="514" cy="-18" rx="27" ry="18"/>
<text text-anchor="middle" x="514" y="-13.8" font-family="Times,serif" font-size="14.00" fill="#000000">281</text>
</g>
<!-- 87&#45;&gt;281 -->
<g id="edge27" class="edge">
<title>87&#45;&gt;281</title>
<path fill="none" stroke="#000000" d="M775.2789,-86.5398C728.5986,-79.9998 629.5865,-63.9174 550,-36 548.1208,-35.3408 546.2138,-34.6053 544.3085,-33.8186"/>
<polygon fill="#000000" stroke="#000000" points="545.4864,-30.51 534.9328,-29.5755 542.6002,-36.8873 545.4864,-30.51"/>
</g>
<!-- 282 -->
<g id="node27" class="node">
<title>282</title>
<ellipse fill="none" stroke="#000000" cx="586" cy="-18" rx="27" ry="18"/>
<text text-anchor="middle" x="586" y="-13.8" font-family="Times,serif" font-size="14.00" fill="#000000">282</text>
</g>
<!-- 87&#45;&gt;282 -->
<g id="edge28" class="edge">
<title>87&#45;&gt;282</title>
<path fill="none" stroke="#000000" d="M776.4913,-83.8285C741.1788,-74.9533 675.6807,-57.2886 622,-36 620.1488,-35.2658 618.2635,-34.4721 616.3748,-33.641"/>
<polygon fill="#000000" stroke="#000000" points="617.5848,-30.3432 607.0435,-29.279 614.6204,-36.6845 617.5848,-30.3432"/>
</g>
<!-- 70 -->
<g id="node28" class="node">
<title>70</title>
<ellipse fill="none" stroke="#000000" cx="1306" cy="-18" rx="27" ry="18"/>
<text text-anchor="middle" x="1306" y="-13.8" font-family="Times,serif" font-size="14.00" fill="#000000">70</text>
</g>
<!-- 87&#45;&gt;70 -->
<g id="edge29" class="edge">
<title>87&#45;&gt;70</title>
<path fill="none" stroke="#000000" d="M828.8843,-88.1322C915.4429,-81.9257 1186.1215,-60.963 1270,-36 1271.9088,-35.4319 1273.8387,-34.7673 1275.7615,-34.0345"/>
<polygon fill="#000000" stroke="#000000" points="1277.41,-37.1343 1285.184,-29.9359 1274.6178,-30.7153 1277.41,-37.1343"/>
</g>
<!-- 96 -->
<g id="node29" class="node">
<title>96</title>
<ellipse fill="none" stroke="#000000" cx="1378" cy="-18" rx="27" ry="18"/>
<text text-anchor="middle" x="1378" y="-13.8" font-family="Times,serif" font-size="14.00" fill="#000000">96</text>
</g>
<!-- 87&#45;&gt;96 -->
<g id="edge30" class="edge">
<title>87&#45;&gt;96</title>
<path fill="none" stroke="#000000" d="M828.9423,-88.6004C924.0789,-83.4574 1243.802,-64.4136 1342,-36 1344.127,-35.3846 1346.279,-34.6457 1348.4172,-33.8234"/>
<polygon fill="#000000" stroke="#000000" points="1349.828,-37.0265 1357.5832,-29.808 1347.0192,-30.6148 1349.828,-37.0265"/>
</g>
<!-- 88&#45;&gt;69 -->
<g id="edge33" class="edge">
<title>88&#45;&gt;69</title>
<path fill="none" stroke="#000000" d="M1261.2854,-72.5708C1257.0403,-64.0807 1251.8464,-53.6929 1247.1337,-44.2674"/>
<polygon fill="#000000" stroke="#000000" points="1250.237,-42.6477 1242.6343,-35.2687 1243.976,-45.7782 1250.237,-42.6477"/>
</g>
<!-- 88&#45;&gt;70 -->
<g id="edge34" class="edge">
<title>88&#45;&gt;70</title>
<path fill="none" stroke="#000000" d="M1278.7146,-72.5708C1282.9597,-64.0807 1288.1536,-53.6929 1292.8663,-44.2674"/>
<polygon fill="#000000" stroke="#000000" points="1296.024,-45.7782 1297.3657,-35.2687 1289.763,-42.6477 1296.024,-45.7782"/>
</g>
<!-- 88&#45;&gt;96 -->
<g id="edge35" class="edge">
<title>88&#45;&gt;96</title>
<path fill="none" stroke="#000000" d="M1289.3082,-77.1278C1306.3555,-65.763 1331.4019,-49.0654 1350.5344,-36.3104"/>
<polygon fill="#000000" stroke="#000000" points="1352.4799,-39.2199 1358.8589,-30.7607 1348.5969,-33.3956 1352.4799,-39.2199"/>
</g>
<!-- 95 -->
<g id="node30" class="node">
<title>95</title>
<ellipse fill="none" stroke="#000000" cx="1522" cy="-18" rx="27" ry="18"/>
<text text-anchor="middle" x="1522" y="-13.8" font-family="Times,serif" font-size="14.00" fill="#000000">95</text>
</g>
<!-- 88&#45;&gt;95 -->
<g id="edge31" class="edge">
<title>88&#45;&gt;95</title>
<path fill="none" stroke="#000000" d="M1290.9151,-78.3736C1295.7633,-76.0101 1300.9768,-73.7235 1306,-72 1383.1684,-45.5229 1408.8316,-62.4771 1486,-36 1487.8837,-35.3537 1489.7942,-34.6282 1491.7021,-33.8491"/>
<polygon fill="#000000" stroke="#000000" points="1493.4022,-36.9222 1501.0849,-29.6264 1490.5294,-30.5388 1493.4022,-36.9222"/>
</g>
<!-- 68 -->
<g id="node31" class="node">
<title>68</title>
<ellipse fill="none" stroke="#000000" cx="1450" cy="-18" rx="27" ry="18"/>
<text text-anchor="middle" x="1450" y="-13.8" font-family="Times,serif" font-size="14.00" fill="#000000">68</text>
</g>
<!-- 88&#45;&gt;68 -->
<g id="edge32" class="edge">
<title>88&#45;&gt;68</title>
<path fill="none" stroke="#000000" d="M1291.4711,-78.643C1296.1992,-76.3177 1301.2227,-73.9788 1306,-72 1352.745,-52.6376 1367.255,-55.3624 1414,-36 1415.7915,-35.2579 1417.6176,-34.4653 1419.4498,-33.6416"/>
<polygon fill="#000000" stroke="#000000" points="1420.9792,-36.7901 1428.5289,-29.357 1417.9916,-30.4596 1420.9792,-36.7901"/>
</g>
</g>
</svg>
