<?xml version="1.0" encoding="UTF-8" standalone="no"?>
<!DOCTYPE svg PUBLIC "-//W3C//DTD SVG 1.1//EN"
 "http://www.w3.org/Graphics/SVG/1.1/DTD/svg11.dtd">
<!-- Generated by graphviz version 2.40.1 (20161225.0304)
 -->
<!-- Pages: 1 -->
<svg width="422pt" height="116pt"
 viewBox="0.00 0.00 422.00 116.00" xmlns="http://www.w3.org/2000/svg" xmlns:xlink="http://www.w3.org/1999/xlink">
<g id="graph0" class="graph" transform="scale(1 1) rotate(0) translate(4 112)">
<polygon fill="#ffffff" stroke="transparent" points="-4,4 -4,-112 418,-112 418,4 -4,4"/>
<!-- 114 -->
<g id="node1" class="node">
<title>114</title>
<ellipse fill="none" stroke="#000000" cx="207" cy="-90" rx="27" ry="18"/>
<text text-anchor="middle" x="207" y="-85.8" font-family="Times,serif" font-size="14.00" fill="#000000">114</text>
</g>
<!-- 100 -->
<g id="node2" class="node">
<title>100</title>
<ellipse fill="none" stroke="#000000" cx="27" cy="-18" rx="27" ry="18"/>
<text text-anchor="middle" x="27" y="-13.8" font-family="Times,serif" font-size="14.00" fill="#000000">100</text>
</g>
<!-- 114&#45;&gt;100 -->
<g id="edge1" class="edge">
<title>114&#45;&gt;100</title>
<path fill="none" stroke="#000000" d="M182.7416,-81.7783C153.869,-71.7927 104.3615,-54.0365 63,-36 61.2226,-35.2249 59.4074,-34.4064 57.5837,-33.5629"/>
<polygon fill="#000000" stroke="#000000" points="59.0584,-30.3885 48.5278,-29.2234 56.0334,-36.7011 59.0584,-30.3885"/>
</g>
<!-- 106 -->
<g id="node3" class="node">
<title>106</title>
<ellipse fill="none" stroke="#000000" cx="99" cy="-18" rx="27" ry="18"/>
<text text-anchor="middle" x="99" y="-13.8" font-family="Times,serif" font-size="14.00" fill="#000000">106</text>
</g>
<!-- 114&#45;&gt;106 -->
<g id="edge2" class="edge">
<title>114&#45;&gt;106</title>
<path fill="none" stroke="#000000" d="M187.6918,-77.1278C170.6445,-65.763 145.5981,-49.0654 126.4656,-36.3104"/>
<polygon fill="#000000" stroke="#000000" points="128.4031,-33.3956 118.1411,-30.7607 124.5201,-39.2199 128.4031,-33.3956"/>
</g>
<!-- 115 -->
<g id="node4" class="node">
<title>115</title>
<ellipse fill="none" stroke="#000000" cx="171" cy="-18" rx="27" ry="18"/>
<text text-anchor="middle" x="171" y="-13.8" font-family="Times,serif" font-size="14.00" fill="#000000">115</text>
</g>
<!-- 114&#45;&gt;115 -->
<g id="edge3" class="edge">
<title>114&#45;&gt;115</title>
<path fill="none" stroke="#000000" d="M198.2854,-72.5708C194.0403,-64.0807 188.8464,-53.6929 184.1337,-44.2674"/>
<polygon fill="#000000" stroke="#000000" points="187.237,-42.6477 179.6343,-35.2687 180.976,-45.7782 187.237,-42.6477"/>
</g>
<!-- 109 -->
<g id="node5" class="node">
<title>109</title>
<ellipse fill="none" stroke="#000000" cx="243" cy="-18" rx="27" ry="18"/>
<text text-anchor="middle" x="243" y="-13.8" font-family="Times,serif" font-size="14.00" fill="#000000">109</text>
</g>
<!-- 114&#45;&gt;109 -->
<g id="edge4" class="edge">
<title>114&#45;&gt;109</title>
<path fill="none" stroke="#000000" d="M215.7146,-72.5708C219.9597,-64.0807 225.1536,-53.6929 229.8663,-44.2674"/>
<polygon fill="#000000" stroke="#000000" points="233.024,-45.7782 234.3657,-35.2687 226.763,-42.6477 233.024,-45.7782"/>
</g>
<!-- 112 -->
<g id="node6" class="node">
<title>112</title>
<ellipse fill="none" stroke="#000000" cx="315" cy="-18" rx="27" ry="18"/>
<text text-anchor="middle" x="315" y="-13.8" font-family="Times,serif" font-size="14.00" fill="#000000">112</text>
</g>
<!-- 114&#45;&gt;112 -->
<g id="edge5" class="edge">
<title>114&#45;&gt;112</title>
<path fill="none" stroke="#000000" d="M226.3082,-77.1278C243.3555,-65.763 268.4019,-49.0654 287.5344,-36.3104"/>
<polygon fill="#000000" stroke="#000000" points="289.4799,-39.2199 295.8589,-30.7607 285.5969,-33.3956 289.4799,-39.2199"/>
</g>
<!-- 113 -->
<g id="node7" class="node">
<title>113</title>
<ellipse fill="none" stroke="#000000" cx="387" cy="-18" rx="27" ry="18"/>
<text text-anchor="middle" x="387" y="-13.8" font-family="Times,serif" font-size="14.00" fill="#000000">113</text>
</g>
<!-- 114&#45;&gt;113 -->
<g id="edge6" class="edge">
<title>114&#45;&gt;113</title>
<path fill="none" stroke="#000000" d="M231.2584,-81.7783C260.131,-71.7927 309.6385,-54.0365 351,-36 352.7774,-35.2249 354.5926,-34.4064 356.4163,-33.5629"/>
<polygon fill="#000000" stroke="#000000" points="357.9666,-36.7011 365.4722,-29.2234 354.9416,-30.3885 357.9666,-36.7011"/>
</g>
</g>
</svg>
