<?xml version="1.0" encoding="UTF-8" standalone="no"?>
<!DOCTYPE svg PUBLIC "-//W3C//DTD SVG 1.1//EN"
 "http://www.w3.org/Graphics/SVG/1.1/DTD/svg11.dtd">
<!-- Generated by graphviz version 2.40.1 (20161225.0304)
 -->
<!-- Pages: 1 -->
<svg width="602pt" height="188pt"
 viewBox="0.00 0.00 602.00 188.00" xmlns="http://www.w3.org/2000/svg" xmlns:xlink="http://www.w3.org/1999/xlink">
<g id="graph0" class="graph" transform="scale(1 1) rotate(0) translate(4 184)">
<polygon fill="#ffffff" stroke="transparent" points="-4,4 -4,-184 598,-184 598,4 -4,4"/>
<!-- 28 -->
<g id="node1" class="node">
<title>28</title>
<ellipse fill="none" stroke="#000000" cx="243" cy="-162" rx="27" ry="18"/>
<text text-anchor="middle" x="243" y="-157.8" font-family="Times,serif" font-size="14.00" fill="#000000">28</text>
</g>
<!-- 14 -->
<g id="node2" class="node">
<title>14</title>
<ellipse fill="none" stroke="#000000" cx="27" cy="-90" rx="27" ry="18"/>
<text text-anchor="middle" x="27" y="-85.8" font-family="Times,serif" font-size="14.00" fill="#000000">14</text>
</g>
<!-- 28&#45;&gt;14 -->
<g id="edge1" class="edge">
<title>28&#45;&gt;14</title>
<path fill="none" stroke="#000000" d="M217.4913,-155.8285C182.1788,-146.9533 116.6807,-129.2886 63,-108 61.1488,-107.2658 59.2635,-106.4721 57.3748,-105.641"/>
<polygon fill="#000000" stroke="#000000" points="58.5848,-102.3432 48.0435,-101.279 55.6204,-108.6845 58.5848,-102.3432"/>
</g>
<!-- 29 -->
<g id="node3" class="node">
<title>29</title>
<ellipse fill="none" stroke="#000000" cx="99" cy="-90" rx="27" ry="18"/>
<text text-anchor="middle" x="99" y="-85.8" font-family="Times,serif" font-size="14.00" fill="#000000">29</text>
</g>
<!-- 28&#45;&gt;29 -->
<g id="edge2" class="edge">
<title>28&#45;&gt;29</title>
<path fill="none" stroke="#000000" d="M221.1295,-151.0647C196.7778,-138.8889 157.238,-119.119 129.7715,-105.3858"/>
<polygon fill="#000000" stroke="#000000" points="131.114,-102.1439 120.6045,-100.8022 127.9835,-108.4049 131.114,-102.1439"/>
</g>
<!-- 30 -->
<g id="node4" class="node">
<title>30</title>
<ellipse fill="none" stroke="#000000" cx="171" cy="-90" rx="27" ry="18"/>
<text text-anchor="middle" x="171" y="-85.8" font-family="Times,serif" font-size="14.00" fill="#000000">30</text>
</g>
<!-- 28&#45;&gt;30 -->
<g id="edge3" class="edge">
<title>28&#45;&gt;30</title>
<path fill="none" stroke="#000000" d="M227.7307,-146.7307C217.803,-136.803 204.6847,-123.6847 193.5637,-112.5637"/>
<polygon fill="#000000" stroke="#000000" points="195.7933,-109.8436 186.2473,-105.2473 190.8436,-114.7933 195.7933,-109.8436"/>
</g>
<!-- 31 -->
<g id="node5" class="node">
<title>31</title>
<ellipse fill="none" stroke="#000000" cx="243" cy="-90" rx="27" ry="18"/>
<text text-anchor="middle" x="243" y="-85.8" font-family="Times,serif" font-size="14.00" fill="#000000">31</text>
</g>
<!-- 28&#45;&gt;31 -->
<g id="edge4" class="edge">
<title>28&#45;&gt;31</title>
<path fill="none" stroke="#000000" d="M243,-143.8314C243,-136.131 243,-126.9743 243,-118.4166"/>
<polygon fill="#000000" stroke="#000000" points="246.5001,-118.4132 243,-108.4133 239.5001,-118.4133 246.5001,-118.4132"/>
</g>
<!-- 32 -->
<g id="node6" class="node">
<title>32</title>
<ellipse fill="none" stroke="#000000" cx="315" cy="-90" rx="27" ry="18"/>
<text text-anchor="middle" x="315" y="-85.8" font-family="Times,serif" font-size="14.00" fill="#000000">32</text>
</g>
<!-- 28&#45;&gt;32 -->
<g id="edge5" class="edge">
<title>28&#45;&gt;32</title>
<path fill="none" stroke="#000000" d="M258.2693,-146.7307C268.197,-136.803 281.3153,-123.6847 292.4363,-112.5637"/>
<polygon fill="#000000" stroke="#000000" points="295.1564,-114.7933 299.7527,-105.2473 290.2067,-109.8436 295.1564,-114.7933"/>
</g>
<!-- 33 -->
<g id="node7" class="node">
<title>33</title>
<ellipse fill="none" stroke="#000000" cx="387" cy="-90" rx="27" ry="18"/>
<text text-anchor="middle" x="387" y="-85.8" font-family="Times,serif" font-size="14.00" fill="#000000">33</text>
</g>
<!-- 28&#45;&gt;33 -->
<g id="edge6" class="edge">
<title>28&#45;&gt;33</title>
<path fill="none" stroke="#000000" d="M264.8705,-151.0647C289.2222,-138.8889 328.762,-119.119 356.2285,-105.3858"/>
<polygon fill="#000000" stroke="#000000" points="358.0165,-108.4049 365.3955,-100.8022 354.886,-102.1439 358.0165,-108.4049"/>
</g>
<!-- 34 -->
<g id="node8" class="node">
<title>34</title>
<ellipse fill="none" stroke="#000000" cx="459" cy="-90" rx="27" ry="18"/>
<text text-anchor="middle" x="459" y="-85.8" font-family="Times,serif" font-size="14.00" fill="#000000">34</text>
</g>
<!-- 28&#45;&gt;34 -->
<g id="edge7" class="edge">
<title>28&#45;&gt;34</title>
<path fill="none" stroke="#000000" d="M268.5087,-155.8285C303.8212,-146.9533 369.3193,-129.2886 423,-108 424.8512,-107.2658 426.7365,-106.4721 428.6252,-105.641"/>
<polygon fill="#000000" stroke="#000000" points="430.3796,-108.6845 437.9565,-101.279 427.4152,-102.3432 430.3796,-108.6845"/>
</g>
<!-- 266 -->
<g id="node9" class="node">
<title>266</title>
<ellipse fill="none" stroke="#000000" cx="207" cy="-18" rx="27" ry="18"/>
<text text-anchor="middle" x="207" y="-13.8" font-family="Times,serif" font-size="14.00" fill="#000000">266</text>
</g>
<!-- 33&#45;&gt;266 -->
<g id="edge8" class="edge">
<title>33&#45;&gt;266</title>
<path fill="none" stroke="#000000" d="M365.5289,-78.643C360.8008,-76.3177 355.7773,-73.9788 351,-72 304.255,-52.6376 289.745,-55.3624 243,-36 241.2085,-35.2579 239.3824,-34.4653 237.5502,-33.6416"/>
<polygon fill="#000000" stroke="#000000" points="239.0084,-30.4596 228.4711,-29.357 236.0208,-36.7901 239.0084,-30.4596"/>
</g>
<!-- 267 -->
<g id="node10" class="node">
<title>267</title>
<ellipse fill="none" stroke="#000000" cx="279" cy="-18" rx="27" ry="18"/>
<text text-anchor="middle" x="279" y="-13.8" font-family="Times,serif" font-size="14.00" fill="#000000">267</text>
</g>
<!-- 33&#45;&gt;267 -->
<g id="edge9" class="edge">
<title>33&#45;&gt;267</title>
<path fill="none" stroke="#000000" d="M367.6918,-77.1278C350.6445,-65.763 325.5981,-49.0654 306.4656,-36.3104"/>
<polygon fill="#000000" stroke="#000000" points="308.4031,-33.3956 298.1411,-30.7607 304.5201,-39.2199 308.4031,-33.3956"/>
</g>
<!-- 268 -->
<g id="node11" class="node">
<title>268</title>
<ellipse fill="none" stroke="#000000" cx="351" cy="-18" rx="27" ry="18"/>
<text text-anchor="middle" x="351" y="-13.8" font-family="Times,serif" font-size="14.00" fill="#000000">268</text>
</g>
<!-- 33&#45;&gt;268 -->
<g id="edge10" class="edge">
<title>33&#45;&gt;268</title>
<path fill="none" stroke="#000000" d="M378.2854,-72.5708C374.0403,-64.0807 368.8464,-53.6929 364.1337,-44.2674"/>
<polygon fill="#000000" stroke="#000000" points="367.237,-42.6477 359.6343,-35.2687 360.976,-45.7782 367.237,-42.6477"/>
</g>
<!-- 269 -->
<g id="node12" class="node">
<title>269</title>
<ellipse fill="none" stroke="#000000" cx="423" cy="-18" rx="27" ry="18"/>
<text text-anchor="middle" x="423" y="-13.8" font-family="Times,serif" font-size="14.00" fill="#000000">269</text>
</g>
<!-- 33&#45;&gt;269 -->
<g id="edge11" class="edge">
<title>33&#45;&gt;269</title>
<path fill="none" stroke="#000000" d="M395.7146,-72.5708C399.9597,-64.0807 405.1536,-53.6929 409.8663,-44.2674"/>
<polygon fill="#000000" stroke="#000000" points="413.024,-45.7782 414.3657,-35.2687 406.763,-42.6477 413.024,-45.7782"/>
</g>
<!-- 270 -->
<g id="node13" class="node">
<title>270</title>
<ellipse fill="none" stroke="#000000" cx="495" cy="-18" rx="27" ry="18"/>
<text text-anchor="middle" x="495" y="-13.8" font-family="Times,serif" font-size="14.00" fill="#000000">270</text>
</g>
<!-- 33&#45;&gt;270 -->
<g id="edge12" class="edge">
<title>33&#45;&gt;270</title>
<path fill="none" stroke="#000000" d="M406.3082,-77.1278C423.3555,-65.763 448.4019,-49.0654 467.5344,-36.3104"/>
<polygon fill="#000000" stroke="#000000" points="469.4799,-39.2199 475.8589,-30.7607 465.5969,-33.3956 469.4799,-39.2199"/>
</g>
<!-- 271 -->
<g id="node14" class="node">
<title>271</title>
<ellipse fill="none" stroke="#000000" cx="567" cy="-18" rx="27" ry="18"/>
<text text-anchor="middle" x="567" y="-13.8" font-family="Times,serif" font-size="14.00" fill="#000000">271</text>
</g>
<!-- 33&#45;&gt;271 -->
<g id="edge13" class="edge">
<title>33&#45;&gt;271</title>
<path fill="none" stroke="#000000" d="M408.4711,-78.643C413.1992,-76.3177 418.2227,-73.9788 423,-72 469.745,-52.6376 484.255,-55.3624 531,-36 532.7915,-35.2579 534.6176,-34.4653 536.4498,-33.6416"/>
<polygon fill="#000000" stroke="#000000" points="537.9792,-36.7901 545.5289,-29.357 534.9916,-30.4596 537.9792,-36.7901"/>
</g>
</g>
</svg>
