<?xml version="1.0" encoding="UTF-8" standalone="no"?>
<!DOCTYPE svg PUBLIC "-//W3C//DTD SVG 1.1//EN"
 "http://www.w3.org/Graphics/SVG/1.1/DTD/svg11.dtd">
<!-- Generated by graphviz version 2.40.1 (20161225.0304)
 -->
<!-- Pages: 1 -->
<svg width="638pt" height="188pt"
 viewBox="0.00 0.00 638.00 188.00" xmlns="http://www.w3.org/2000/svg" xmlns:xlink="http://www.w3.org/1999/xlink">
<g id="graph0" class="graph" transform="scale(1 1) rotate(0) translate(4 184)">
<polygon fill="#ffffff" stroke="transparent" points="-4,4 -4,-184 634,-184 634,4 -4,4"/>
<!-- 227 -->
<g id="node1" class="node">
<title>227</title>
<ellipse fill="none" stroke="#000000" cx="423" cy="-162" rx="27" ry="18"/>
<text text-anchor="middle" x="423" y="-157.8" font-family="Times,serif" font-size="14.00" fill="#000000">227</text>
</g>
<!-- 228 -->
<g id="node2" class="node">
<title>228</title>
<ellipse fill="none" stroke="#000000" cx="315" cy="-90" rx="27" ry="18"/>
<text text-anchor="middle" x="315" y="-85.8" font-family="Times,serif" font-size="14.00" fill="#000000">228</text>
</g>
<!-- 227&#45;&gt;228 -->
<g id="edge1" class="edge">
<title>227&#45;&gt;228</title>
<path fill="none" stroke="#000000" d="M403.6918,-149.1278C386.6445,-137.763 361.5981,-121.0654 342.4656,-108.3104"/>
<polygon fill="#000000" stroke="#000000" points="344.4031,-105.3956 334.1411,-102.7607 340.5201,-111.2199 344.4031,-105.3956"/>
</g>
<!-- 229 -->
<g id="node3" class="node">
<title>229</title>
<ellipse fill="none" stroke="#000000" cx="387" cy="-90" rx="27" ry="18"/>
<text text-anchor="middle" x="387" y="-85.8" font-family="Times,serif" font-size="14.00" fill="#000000">229</text>
</g>
<!-- 227&#45;&gt;229 -->
<g id="edge2" class="edge">
<title>227&#45;&gt;229</title>
<path fill="none" stroke="#000000" d="M414.2854,-144.5708C410.0403,-136.0807 404.8464,-125.6929 400.1337,-116.2674"/>
<polygon fill="#000000" stroke="#000000" points="403.237,-114.6477 395.6343,-107.2687 396.976,-117.7782 403.237,-114.6477"/>
</g>
<!-- 230 -->
<g id="node4" class="node">
<title>230</title>
<ellipse fill="none" stroke="#000000" cx="459" cy="-90" rx="27" ry="18"/>
<text text-anchor="middle" x="459" y="-85.8" font-family="Times,serif" font-size="14.00" fill="#000000">230</text>
</g>
<!-- 227&#45;&gt;230 -->
<g id="edge3" class="edge">
<title>227&#45;&gt;230</title>
<path fill="none" stroke="#000000" d="M431.7146,-144.5708C435.9597,-136.0807 441.1536,-125.6929 445.8663,-116.2674"/>
<polygon fill="#000000" stroke="#000000" points="449.024,-117.7782 450.3657,-107.2687 442.763,-114.6477 449.024,-117.7782"/>
</g>
<!-- 231 -->
<g id="node5" class="node">
<title>231</title>
<ellipse fill="none" stroke="#000000" cx="531" cy="-90" rx="27" ry="18"/>
<text text-anchor="middle" x="531" y="-85.8" font-family="Times,serif" font-size="14.00" fill="#000000">231</text>
</g>
<!-- 227&#45;&gt;231 -->
<g id="edge4" class="edge">
<title>227&#45;&gt;231</title>
<path fill="none" stroke="#000000" d="M442.3082,-149.1278C459.3555,-137.763 484.4019,-121.0654 503.5344,-108.3104"/>
<polygon fill="#000000" stroke="#000000" points="505.4799,-111.2199 511.8589,-102.7607 501.5969,-105.3956 505.4799,-111.2199"/>
</g>
<!-- 431 -->
<g id="node6" class="node">
<title>431</title>
<ellipse fill="none" stroke="#000000" cx="27" cy="-18" rx="27" ry="18"/>
<text text-anchor="middle" x="27" y="-13.8" font-family="Times,serif" font-size="14.00" fill="#000000">431</text>
</g>
<!-- 228&#45;&gt;431 -->
<g id="edge5" class="edge">
<title>228&#45;&gt;431</title>
<path fill="none" stroke="#000000" d="M288.2789,-86.5398C241.5986,-79.9998 142.5865,-63.9174 63,-36 61.1208,-35.3408 59.2138,-34.6053 57.3085,-33.8186"/>
<polygon fill="#000000" stroke="#000000" points="58.4864,-30.51 47.9328,-29.5755 55.6002,-36.8873 58.4864,-30.51"/>
</g>
<!-- 432 -->
<g id="node7" class="node">
<title>432</title>
<ellipse fill="none" stroke="#000000" cx="99" cy="-18" rx="27" ry="18"/>
<text text-anchor="middle" x="99" y="-13.8" font-family="Times,serif" font-size="14.00" fill="#000000">432</text>
</g>
<!-- 228&#45;&gt;432 -->
<g id="edge6" class="edge">
<title>228&#45;&gt;432</title>
<path fill="none" stroke="#000000" d="M289.4913,-83.8285C254.1788,-74.9533 188.6807,-57.2886 135,-36 133.1488,-35.2658 131.2635,-34.4721 129.3748,-33.641"/>
<polygon fill="#000000" stroke="#000000" points="130.5848,-30.3432 120.0435,-29.279 127.6204,-36.6845 130.5848,-30.3432"/>
</g>
<!-- 304 -->
<g id="node8" class="node">
<title>304</title>
<ellipse fill="none" stroke="#000000" cx="171" cy="-18" rx="27" ry="18"/>
<text text-anchor="middle" x="171" y="-13.8" font-family="Times,serif" font-size="14.00" fill="#000000">304</text>
</g>
<!-- 228&#45;&gt;304 -->
<g id="edge7" class="edge">
<title>228&#45;&gt;304</title>
<path fill="none" stroke="#000000" d="M293.1295,-79.0647C268.7778,-66.8889 229.238,-47.119 201.7715,-33.3858"/>
<polygon fill="#000000" stroke="#000000" points="203.114,-30.1439 192.6045,-28.8022 199.9835,-36.4049 203.114,-30.1439"/>
</g>
<!-- 266 -->
<g id="node9" class="node">
<title>266</title>
<ellipse fill="none" stroke="#000000" cx="243" cy="-18" rx="27" ry="18"/>
<text text-anchor="middle" x="243" y="-13.8" font-family="Times,serif" font-size="14.00" fill="#000000">266</text>
</g>
<!-- 228&#45;&gt;266 -->
<g id="edge8" class="edge">
<title>228&#45;&gt;266</title>
<path fill="none" stroke="#000000" d="M299.7307,-74.7307C289.803,-64.803 276.6847,-51.6847 265.5637,-40.5637"/>
<polygon fill="#000000" stroke="#000000" points="267.7933,-37.8436 258.2473,-33.2473 262.8436,-42.7933 267.7933,-37.8436"/>
</g>
<!-- 29 -->
<g id="node10" class="node">
<title>29</title>
<ellipse fill="none" stroke="#000000" cx="315" cy="-18" rx="27" ry="18"/>
<text text-anchor="middle" x="315" y="-13.8" font-family="Times,serif" font-size="14.00" fill="#000000">29</text>
</g>
<!-- 228&#45;&gt;29 -->
<g id="edge9" class="edge">
<title>228&#45;&gt;29</title>
<path fill="none" stroke="#000000" d="M315,-71.8314C315,-64.131 315,-54.9743 315,-46.4166"/>
<polygon fill="#000000" stroke="#000000" points="318.5001,-46.4132 315,-36.4133 311.5001,-46.4133 318.5001,-46.4132"/>
</g>
<!-- 331 -->
<g id="node11" class="node">
<title>331</title>
<ellipse fill="none" stroke="#000000" cx="387" cy="-18" rx="27" ry="18"/>
<text text-anchor="middle" x="387" y="-13.8" font-family="Times,serif" font-size="14.00" fill="#000000">331</text>
</g>
<!-- 228&#45;&gt;331 -->
<g id="edge10" class="edge">
<title>228&#45;&gt;331</title>
<path fill="none" stroke="#000000" d="M330.2693,-74.7307C340.197,-64.803 353.3153,-51.6847 364.4363,-40.5637"/>
<polygon fill="#000000" stroke="#000000" points="367.1564,-42.7933 371.7527,-33.2473 362.2067,-37.8436 367.1564,-42.7933"/>
</g>
<!-- 42 -->
<g id="node12" class="node">
<title>42</title>
<ellipse fill="none" stroke="#000000" cx="459" cy="-18" rx="27" ry="18"/>
<text text-anchor="middle" x="459" y="-13.8" font-family="Times,serif" font-size="14.00" fill="#000000">42</text>
</g>
<!-- 228&#45;&gt;42 -->
<g id="edge11" class="edge">
<title>228&#45;&gt;42</title>
<path fill="none" stroke="#000000" d="M336.8705,-79.0647C361.2222,-66.8889 400.762,-47.119 428.2285,-33.3858"/>
<polygon fill="#000000" stroke="#000000" points="430.0165,-36.4049 437.3955,-28.8022 426.886,-30.1439 430.0165,-36.4049"/>
</g>
<!-- 273 -->
<g id="node13" class="node">
<title>273</title>
<ellipse fill="none" stroke="#000000" cx="531" cy="-18" rx="27" ry="18"/>
<text text-anchor="middle" x="531" y="-13.8" font-family="Times,serif" font-size="14.00" fill="#000000">273</text>
</g>
<!-- 228&#45;&gt;273 -->
<g id="edge12" class="edge">
<title>228&#45;&gt;273</title>
<path fill="none" stroke="#000000" d="M335.978,-78.5501C340.8229,-76.1775 346.0192,-73.8425 351,-72 412.872,-49.1121 433.128,-58.8879 495,-36 496.8678,-35.3091 498.7659,-34.5489 500.6644,-33.7434"/>
<polygon fill="#000000" stroke="#000000" points="502.3926,-36.8014 510.022,-29.4499 499.4734,-30.4391 502.3926,-36.8014"/>
</g>
<!-- 433 -->
<g id="node14" class="node">
<title>433</title>
<ellipse fill="none" stroke="#000000" cx="603" cy="-18" rx="27" ry="18"/>
<text text-anchor="middle" x="603" y="-13.8" font-family="Times,serif" font-size="14.00" fill="#000000">433</text>
</g>
<!-- 228&#45;&gt;433 -->
<g id="edge13" class="edge">
<title>228&#45;&gt;433</title>
<path fill="none" stroke="#000000" d="M335.8749,-78.2531C340.7251,-75.8959 345.9497,-73.6423 351,-72 443.5536,-41.9031 474.4464,-66.0969 567,-36 568.8939,-35.3841 570.8123,-34.6823 572.7262,-33.9213"/>
<polygon fill="#000000" stroke="#000000" points="574.4066,-37.0047 582.1251,-29.7469 571.5653,-30.6073 574.4066,-37.0047"/>
</g>
</g>
</svg>
