<?xml version="1.0" encoding="UTF-8" standalone="no"?>
<!DOCTYPE svg PUBLIC "-//W3C//DTD SVG 1.1//EN"
 "http://www.w3.org/Graphics/SVG/1.1/DTD/svg11.dtd">
<!-- Generated by graphviz version 2.40.1 (20161225.0304)
 -->
<!-- Pages: 1 -->
<svg width="350pt" height="116pt"
 viewBox="0.00 0.00 350.00 116.00" xmlns="http://www.w3.org/2000/svg" xmlns:xlink="http://www.w3.org/1999/xlink">
<g id="graph0" class="graph" transform="scale(1 1) rotate(0) translate(4 112)">
<polygon fill="#ffffff" stroke="transparent" points="-4,4 -4,-112 346,-112 346,4 -4,4"/>
<!-- 61 -->
<g id="node1" class="node">
<title>61</title>
<ellipse fill="none" stroke="#000000" cx="171" cy="-90" rx="27" ry="18"/>
<text text-anchor="middle" x="171" y="-85.8" font-family="Times,serif" font-size="14.00" fill="#000000">61</text>
</g>
<!-- 62 -->
<g id="node2" class="node">
<title>62</title>
<ellipse fill="none" stroke="#000000" cx="27" cy="-18" rx="27" ry="18"/>
<text text-anchor="middle" x="27" y="-13.8" font-family="Times,serif" font-size="14.00" fill="#000000">62</text>
</g>
<!-- 61&#45;&gt;62 -->
<g id="edge1" class="edge">
<title>61&#45;&gt;62</title>
<path fill="none" stroke="#000000" d="M149.1295,-79.0647C124.7778,-66.8889 85.238,-47.119 57.7715,-33.3858"/>
<polygon fill="#000000" stroke="#000000" points="59.114,-30.1439 48.6045,-28.8022 55.9835,-36.4049 59.114,-30.1439"/>
</g>
<!-- 63 -->
<g id="node3" class="node">
<title>63</title>
<ellipse fill="none" stroke="#000000" cx="99" cy="-18" rx="27" ry="18"/>
<text text-anchor="middle" x="99" y="-13.8" font-family="Times,serif" font-size="14.00" fill="#000000">63</text>
</g>
<!-- 61&#45;&gt;63 -->
<g id="edge2" class="edge">
<title>61&#45;&gt;63</title>
<path fill="none" stroke="#000000" d="M155.7307,-74.7307C145.803,-64.803 132.6847,-51.6847 121.5637,-40.5637"/>
<polygon fill="#000000" stroke="#000000" points="123.7933,-37.8436 114.2473,-33.2473 118.8436,-42.7933 123.7933,-37.8436"/>
</g>
<!-- 64 -->
<g id="node4" class="node">
<title>64</title>
<ellipse fill="none" stroke="#000000" cx="171" cy="-18" rx="27" ry="18"/>
<text text-anchor="middle" x="171" y="-13.8" font-family="Times,serif" font-size="14.00" fill="#000000">64</text>
</g>
<!-- 61&#45;&gt;64 -->
<g id="edge3" class="edge">
<title>61&#45;&gt;64</title>
<path fill="none" stroke="#000000" d="M171,-71.8314C171,-64.131 171,-54.9743 171,-46.4166"/>
<polygon fill="#000000" stroke="#000000" points="174.5001,-46.4132 171,-36.4133 167.5001,-46.4133 174.5001,-46.4132"/>
</g>
<!-- 65 -->
<g id="node5" class="node">
<title>65</title>
<ellipse fill="none" stroke="#000000" cx="243" cy="-18" rx="27" ry="18"/>
<text text-anchor="middle" x="243" y="-13.8" font-family="Times,serif" font-size="14.00" fill="#000000">65</text>
</g>
<!-- 61&#45;&gt;65 -->
<g id="edge4" class="edge">
<title>61&#45;&gt;65</title>
<path fill="none" stroke="#000000" d="M186.2693,-74.7307C196.197,-64.803 209.3153,-51.6847 220.4363,-40.5637"/>
<polygon fill="#000000" stroke="#000000" points="223.1564,-42.7933 227.7527,-33.2473 218.2067,-37.8436 223.1564,-42.7933"/>
</g>
<!-- 66 -->
<g id="node6" class="node">
<title>66</title>
<ellipse fill="none" stroke="#000000" cx="315" cy="-18" rx="27" ry="18"/>
<text text-anchor="middle" x="315" y="-13.8" font-family="Times,serif" font-size="14.00" fill="#000000">66</text>
</g>
<!-- 61&#45;&gt;66 -->
<g id="edge5" class="edge">
<title>61&#45;&gt;66</title>
<path fill="none" stroke="#000000" d="M192.8705,-79.0647C217.2222,-66.8889 256.762,-47.119 284.2285,-33.3858"/>
<polygon fill="#000000" stroke="#000000" points="286.0165,-36.4049 293.3955,-28.8022 282.886,-30.1439 286.0165,-36.4049"/>
</g>
</g>
</svg>
