<?xml version="1.0" encoding="UTF-8" standalone="no"?>
<!DOCTYPE svg PUBLIC "-//W3C//DTD SVG 1.1//EN"
 "http://www.w3.org/Graphics/SVG/1.1/DTD/svg11.dtd">
<!-- Generated by graphviz version 2.40.1 (20161225.0304)
 -->
<!-- Pages: 1 -->
<svg width="2889pt" height="548pt"
 viewBox="0.00 0.00 2889.00 548.00" xmlns="http://www.w3.org/2000/svg" xmlns:xlink="http://www.w3.org/1999/xlink">
<g id="graph0" class="graph" transform="scale(1 1) rotate(0) translate(4 544)">
<polygon fill="#ffffff" stroke="transparent" points="-4,4 -4,-544 2885,-544 2885,4 -4,4"/>
<!-- 97 -->
<g id="node1" class="node">
<title>97</title>
<ellipse fill="none" stroke="#000000" cx="1896" cy="-522" rx="27" ry="18"/>
<text text-anchor="middle" x="1896" y="-517.8" font-family="Times,serif" font-size="14.00" fill="#000000">97</text>
</g>
<!-- 98 -->
<g id="node2" class="node">
<title>98</title>
<ellipse fill="none" stroke="#000000" cx="660" cy="-162" rx="27" ry="18"/>
<text text-anchor="middle" x="660" y="-157.8" font-family="Times,serif" font-size="14.00" fill="#000000">98</text>
</g>
<!-- 97&#45;&gt;98 -->
<g id="edge1" class="edge">
<title>97&#45;&gt;98</title>
<path fill="none" stroke="#000000" d="M1868.9738,-520.275C1712.936,-509.899 927.2696,-451.8893 728,-324 682.5571,-294.8352 667.446,-228.5405 662.4474,-190.413"/>
<polygon fill="#000000" stroke="#000000" points="665.8697,-189.5395 661.2432,-180.0082 658.9161,-190.3443 665.8697,-189.5395"/>
</g>
<!-- 99 -->
<g id="node3" class="node">
<title>99</title>
<ellipse fill="none" stroke="#000000" cx="2699" cy="-450" rx="27" ry="18"/>
<text text-anchor="middle" x="2699" y="-445.8" font-family="Times,serif" font-size="14.00" fill="#000000">99</text>
</g>
<!-- 97&#45;&gt;99 -->
<g id="edge2" class="edge">
<title>97&#45;&gt;99</title>
<path fill="none" stroke="#000000" d="M1923.1656,-521.3182C2041.722,-518.1526 2514.2807,-503.5086 2658,-468 2661.2452,-467.1982 2664.5569,-466.1579 2667.8213,-464.9819"/>
<polygon fill="#000000" stroke="#000000" points="2669.3848,-468.1257 2677.3586,-461.1493 2666.7747,-461.6305 2669.3848,-468.1257"/>
</g>
<!-- 100 -->
<g id="node4" class="node">
<title>100</title>
<ellipse fill="none" stroke="#000000" cx="1938" cy="-18" rx="27" ry="18"/>
<text text-anchor="middle" x="1938" y="-13.8" font-family="Times,serif" font-size="14.00" fill="#000000">100</text>
</g>
<!-- 97&#45;&gt;100 -->
<g id="edge3" class="edge">
<title>97&#45;&gt;100</title>
<path fill="none" stroke="#000000" d="M1878.9424,-508.0044C1852.0941,-484.2886 1803,-433.3545 1803,-378 1803,-378 1803,-378 1803,-306 1803,-199.5586 1688.0824,-157.1136 1752,-72 1769.9554,-48.0903 1852.7342,-31.3392 1901.6015,-23.3401"/>
<polygon fill="#000000" stroke="#000000" points="1902.1542,-26.7962 1911.479,-21.7665 1901.0529,-19.8834 1902.1542,-26.7962"/>
</g>
<!-- 101 -->
<g id="node5" class="node">
<title>101</title>
<ellipse fill="none" stroke="#000000" cx="1594" cy="-162" rx="27" ry="18"/>
<text text-anchor="middle" x="1594" y="-157.8" font-family="Times,serif" font-size="14.00" fill="#000000">101</text>
</g>
<!-- 97&#45;&gt;101 -->
<g id="edge4" class="edge">
<title>97&#45;&gt;101</title>
<path fill="none" stroke="#000000" d="M1872.3503,-513.2216C1849.5873,-504.0747 1814.8989,-488.2514 1789,-468 1690.2522,-390.7849 1627.1999,-248.7253 1604.0136,-189.2809"/>
<polygon fill="#000000" stroke="#000000" points="1607.236,-187.9087 1600.3906,-179.8222 1600.6991,-190.4125 1607.236,-187.9087"/>
</g>
<!-- 102 -->
<g id="node6" class="node">
<title>102</title>
<ellipse fill="none" stroke="#000000" cx="406" cy="-162" rx="27" ry="18"/>
<text text-anchor="middle" x="406" y="-157.8" font-family="Times,serif" font-size="14.00" fill="#000000">102</text>
</g>
<!-- 97&#45;&gt;102 -->
<g id="edge5" class="edge">
<title>97&#45;&gt;102</title>
<path fill="none" stroke="#000000" d="M1868.9876,-521.3677C1691.9896,-517.1628 701.0263,-492.6544 569,-468 447.1423,-445.2445 305,-501.9642 305,-378 305,-378 305,-378 305,-306 305,-254.0835 349.5471,-207.6123 379.4717,-182.252"/>
<polygon fill="#000000" stroke="#000000" points="381.9733,-184.7263 387.475,-175.6719 377.5278,-179.3191 381.9733,-184.7263"/>
</g>
<!-- 103 -->
<g id="node7" class="node">
<title>103</title>
<ellipse fill="none" stroke="#000000" cx="2414" cy="-162" rx="27" ry="18"/>
<text text-anchor="middle" x="2414" y="-157.8" font-family="Times,serif" font-size="14.00" fill="#000000">103</text>
</g>
<!-- 97&#45;&gt;103 -->
<g id="edge6" class="edge">
<title>97&#45;&gt;103</title>
<path fill="none" stroke="#000000" d="M1923.0436,-521.0884C2001.5871,-518.0121 2228.0499,-505.9826 2290,-468 2387.9334,-407.9555 2408.5264,-254.394 2412.852,-190.5299"/>
<polygon fill="#000000" stroke="#000000" points="2416.3555,-190.5711 2413.4512,-180.3821 2409.3677,-190.1584 2416.3555,-190.5711"/>
</g>
<!-- 84 -->
<g id="node8" class="node">
<title>84</title>
<ellipse fill="none" stroke="#000000" cx="440" cy="-90" rx="27" ry="18"/>
<text text-anchor="middle" x="440" y="-85.8" font-family="Times,serif" font-size="14.00" fill="#000000">84</text>
</g>
<!-- 97&#45;&gt;84 -->
<g id="edge7" class="edge">
<title>97&#45;&gt;84</title>
<path fill="none" stroke="#000000" d="M1868.9901,-521.6478C1666.4236,-518.9361 390.9167,-500.603 317,-468 265.8144,-445.4232 229,-433.9435 229,-378 229,-378 229,-378 229,-306 229,-204.697 349.2282,-133.2544 408.1756,-104.3144"/>
<polygon fill="#000000" stroke="#000000" points="409.9179,-107.3605 417.4193,-99.8785 406.8894,-101.0496 409.9179,-107.3605"/>
</g>
<!-- 104 -->
<g id="node9" class="node">
<title>104</title>
<ellipse fill="none" stroke="#000000" cx="478" cy="-162" rx="27" ry="18"/>
<text text-anchor="middle" x="478" y="-157.8" font-family="Times,serif" font-size="14.00" fill="#000000">104</text>
</g>
<!-- 97&#45;&gt;104 -->
<g id="edge8" class="edge">
<title>97&#45;&gt;104</title>
<path fill="none" stroke="#000000" d="M1868.6322,-521.6549C1717.2497,-519.6014 981.2156,-507.7013 758,-468 652.9587,-449.3173 600.9698,-474.7596 529,-396 476.1968,-338.2153 473.475,-238.8707 475.7316,-190.3427"/>
<polygon fill="#000000" stroke="#000000" points="479.2324,-190.4278 476.3095,-180.2441 472.2438,-190.0278 479.2324,-190.4278"/>
</g>
<!-- 105 -->
<g id="node10" class="node">
<title>105</title>
<ellipse fill="none" stroke="#000000" cx="331" cy="-90" rx="27" ry="18"/>
<text text-anchor="middle" x="331" y="-85.8" font-family="Times,serif" font-size="14.00" fill="#000000">105</text>
</g>
<!-- 97&#45;&gt;105 -->
<g id="edge9" class="edge">
<title>97&#45;&gt;105</title>
<path fill="none" stroke="#000000" d="M1868.7186,-521.8362C1659.8435,-520.4921 320.1841,-510.2399 247,-468 206.1975,-444.4499 191,-425.1111 191,-378 191,-378 191,-378 191,-234 191,-172.2153 258.0752,-126.9708 299.3698,-104.9706"/>
<polygon fill="#000000" stroke="#000000" points="301.225,-107.9519 308.5066,-100.2558 298.015,-101.7313 301.225,-107.9519"/>
</g>
<!-- 106 -->
<g id="node11" class="node">
<title>106</title>
<ellipse fill="none" stroke="#000000" cx="2088" cy="-90" rx="27" ry="18"/>
<text text-anchor="middle" x="2088" y="-85.8" font-family="Times,serif" font-size="14.00" fill="#000000">106</text>
</g>
<!-- 97&#45;&gt;106 -->
<g id="edge10" class="edge">
<title>97&#45;&gt;106</title>
<path fill="none" stroke="#000000" d="M1922.244,-517.1983C2004.0526,-501.4921 2249,-448.5727 2249,-378 2249,-378 2249,-378 2249,-234 2249,-166.2554 2168.8278,-122.414 2121.6329,-102.4749"/>
<polygon fill="#000000" stroke="#000000" points="2122.6844,-99.1237 2112.1033,-98.5829 2120.0377,-105.6041 2122.6844,-99.1237"/>
</g>
<!-- 107 -->
<g id="node12" class="node">
<title>107</title>
<ellipse fill="none" stroke="#000000" cx="2194" cy="-378" rx="27" ry="18"/>
<text text-anchor="middle" x="2194" y="-373.8" font-family="Times,serif" font-size="14.00" fill="#000000">107</text>
</g>
<!-- 97&#45;&gt;107 -->
<g id="edge11" class="edge">
<title>97&#45;&gt;107</title>
<path fill="none" stroke="#000000" d="M1917.9127,-511.4113C1970.2234,-486.1336 2102.5266,-422.2019 2162.9911,-392.9842"/>
<polygon fill="#000000" stroke="#000000" points="2164.5742,-396.1065 2172.0552,-388.6042 2161.5285,-389.8037 2164.5742,-396.1065"/>
</g>
<!-- 108 -->
<g id="node13" class="node">
<title>108</title>
<ellipse fill="none" stroke="#000000" cx="588" cy="-162" rx="27" ry="18"/>
<text text-anchor="middle" x="588" y="-157.8" font-family="Times,serif" font-size="14.00" fill="#000000">108</text>
</g>
<!-- 97&#45;&gt;108 -->
<g id="edge12" class="edge">
<title>97&#45;&gt;108</title>
<path fill="none" stroke="#000000" d="M1869.0799,-520.6155C1677.8919,-510.6107 533,-447.7859 533,-378 533,-378 533,-378 533,-306 533,-262.0004 555.6861,-215.1212 571.9184,-187.2099"/>
<polygon fill="#000000" stroke="#000000" points="574.9977,-188.8803 577.1338,-178.5031 568.9925,-185.2833 574.9977,-188.8803"/>
</g>
<!-- 109 -->
<g id="node14" class="node">
<title>109</title>
<ellipse fill="none" stroke="#000000" cx="2304" cy="-378" rx="27" ry="18"/>
<text text-anchor="middle" x="2304" y="-373.8" font-family="Times,serif" font-size="14.00" fill="#000000">109</text>
</g>
<!-- 97&#45;&gt;109 -->
<g id="edge13" class="edge">
<title>97&#45;&gt;109</title>
<path fill="none" stroke="#000000" d="M1923.1295,-521.2976C1998.6362,-518.8428 2209.2094,-508.4447 2263,-468 2282.8406,-453.082 2293.3479,-426.3095 2298.7358,-405.8299"/>
<polygon fill="#000000" stroke="#000000" points="2302.1468,-406.614 2301.0486,-396.0763 2295.3357,-404.9989 2302.1468,-406.614"/>
</g>
<!-- 110 -->
<g id="node15" class="node">
<title>110</title>
<ellipse fill="none" stroke="#000000" cx="1896" cy="-450" rx="27" ry="18"/>
<text text-anchor="middle" x="1896" y="-445.8" font-family="Times,serif" font-size="14.00" fill="#000000">110</text>
</g>
<!-- 97&#45;&gt;110 -->
<g id="edge14" class="edge">
<title>97&#45;&gt;110</title>
<path fill="none" stroke="#000000" d="M1896,-503.8314C1896,-496.131 1896,-486.9743 1896,-478.4166"/>
<polygon fill="#000000" stroke="#000000" points="1899.5001,-478.4132 1896,-468.4133 1892.5001,-478.4133 1899.5001,-478.4132"/>
</g>
<!-- 111 -->
<g id="node16" class="node">
<title>111</title>
<ellipse fill="none" stroke="#000000" cx="2551" cy="-450" rx="27" ry="18"/>
<text text-anchor="middle" x="2551" y="-445.8" font-family="Times,serif" font-size="14.00" fill="#000000">111</text>
</g>
<!-- 97&#45;&gt;111 -->
<g id="edge15" class="edge">
<title>97&#45;&gt;111</title>
<path fill="none" stroke="#000000" d="M1922.8979,-519.0433C2025.9498,-507.7154 2395.7562,-467.065 2514.2148,-454.0436"/>
<polygon fill="#000000" stroke="#000000" points="2514.6816,-457.5134 2524.2393,-452.9416 2513.9167,-450.5553 2514.6816,-457.5134"/>
</g>
<!-- 112 -->
<g id="node17" class="node">
<title>112</title>
<ellipse fill="none" stroke="#000000" cx="2782" cy="-378" rx="27" ry="18"/>
<text text-anchor="middle" x="2782" y="-373.8" font-family="Times,serif" font-size="14.00" fill="#000000">112</text>
</g>
<!-- 97&#45;&gt;112 -->
<g id="edge16" class="edge">
<title>97&#45;&gt;112</title>
<path fill="none" stroke="#000000" d="M1923.1687,-520.8559C2043.4318,-515.66 2524.6806,-493.4352 2587,-468 2610.0765,-458.5815 2608.1905,-444.0657 2630,-432 2675.3812,-406.8937 2692.5286,-414.4473 2741,-396 2744.0515,-394.8387 2747.2053,-393.5739 2750.3457,-392.2709"/>
<polygon fill="#000000" stroke="#000000" points="2751.7902,-395.4598 2759.611,-388.3124 2749.04,-389.0227 2751.7902,-395.4598"/>
</g>
<!-- 113 -->
<g id="node18" class="node">
<title>113</title>
<ellipse fill="none" stroke="#000000" cx="2854" cy="-378" rx="27" ry="18"/>
<text text-anchor="middle" x="2854" y="-373.8" font-family="Times,serif" font-size="14.00" fill="#000000">113</text>
</g>
<!-- 97&#45;&gt;113 -->
<g id="edge17" class="edge">
<title>97&#45;&gt;113</title>
<path fill="none" stroke="#000000" d="M1923.3001,-520.9954C2047.5755,-516.2847 2556.5917,-495.4538 2622,-468 2644.36,-458.6148 2641.4281,-443.077 2663,-432 2725.913,-399.6947 2751.467,-419.98 2818,-396 2819.8735,-395.3247 2821.7761,-394.5767 2823.678,-393.7806"/>
<polygon fill="#000000" stroke="#000000" points="2825.3964,-396.8438 2833.0446,-389.512 2822.4935,-390.4741 2825.3964,-396.8438"/>
</g>
<!-- 62 -->
<g id="node19" class="node">
<title>62</title>
<ellipse fill="none" stroke="#000000" cx="2414" cy="-90" rx="27" ry="18"/>
<text text-anchor="middle" x="2414" y="-85.8" font-family="Times,serif" font-size="14.00" fill="#000000">62</text>
</g>
<!-- 103&#45;&gt;62 -->
<g id="edge18" class="edge">
<title>103&#45;&gt;62</title>
<path fill="none" stroke="#000000" d="M2414,-143.8314C2414,-136.131 2414,-126.9743 2414,-118.4166"/>
<polygon fill="#000000" stroke="#000000" points="2417.5001,-118.4132 2414,-108.4133 2410.5001,-118.4133 2417.5001,-118.4132"/>
</g>
<!-- 63 -->
<g id="node20" class="node">
<title>63</title>
<ellipse fill="none" stroke="#000000" cx="2342" cy="-90" rx="27" ry="18"/>
<text text-anchor="middle" x="2342" y="-85.8" font-family="Times,serif" font-size="14.00" fill="#000000">63</text>
</g>
<!-- 103&#45;&gt;63 -->
<g id="edge19" class="edge">
<title>103&#45;&gt;63</title>
<path fill="none" stroke="#000000" d="M2398.7307,-146.7307C2388.803,-136.803 2375.6847,-123.6847 2364.5637,-112.5637"/>
<polygon fill="#000000" stroke="#000000" points="2366.7933,-109.8436 2357.2473,-105.2473 2361.8436,-114.7933 2366.7933,-109.8436"/>
</g>
<!-- 64 -->
<g id="node21" class="node">
<title>64</title>
<ellipse fill="none" stroke="#000000" cx="2486" cy="-90" rx="27" ry="18"/>
<text text-anchor="middle" x="2486" y="-85.8" font-family="Times,serif" font-size="14.00" fill="#000000">64</text>
</g>
<!-- 103&#45;&gt;64 -->
<g id="edge20" class="edge">
<title>103&#45;&gt;64</title>
<path fill="none" stroke="#000000" d="M2429.2693,-146.7307C2439.197,-136.803 2452.3153,-123.6847 2463.4363,-112.5637"/>
<polygon fill="#000000" stroke="#000000" points="2466.1564,-114.7933 2470.7527,-105.2473 2461.2067,-109.8436 2466.1564,-114.7933"/>
</g>
<!-- 65 -->
<g id="node22" class="node">
<title>65</title>
<ellipse fill="none" stroke="#000000" cx="2198" cy="-90" rx="27" ry="18"/>
<text text-anchor="middle" x="2198" y="-85.8" font-family="Times,serif" font-size="14.00" fill="#000000">65</text>
</g>
<!-- 103&#45;&gt;65 -->
<g id="edge21" class="edge">
<title>103&#45;&gt;65</title>
<path fill="none" stroke="#000000" d="M2393.022,-150.5501C2388.1771,-148.1775 2382.9808,-145.8425 2378,-144 2316.128,-121.1121 2295.872,-130.8879 2234,-108 2232.1322,-107.3091 2230.2341,-106.5489 2228.3356,-105.7434"/>
<polygon fill="#000000" stroke="#000000" points="2229.5266,-102.4391 2218.978,-101.4499 2226.6074,-108.8014 2229.5266,-102.4391"/>
</g>
<!-- 66 -->
<g id="node23" class="node">
<title>66</title>
<ellipse fill="none" stroke="#000000" cx="2270" cy="-90" rx="27" ry="18"/>
<text text-anchor="middle" x="2270" y="-85.8" font-family="Times,serif" font-size="14.00" fill="#000000">66</text>
</g>
<!-- 103&#45;&gt;66 -->
<g id="edge22" class="edge">
<title>103&#45;&gt;66</title>
<path fill="none" stroke="#000000" d="M2392.1295,-151.0647C2367.7778,-138.8889 2328.238,-119.119 2300.7715,-105.3858"/>
<polygon fill="#000000" stroke="#000000" points="2302.114,-102.1439 2291.6045,-100.8022 2298.9835,-108.4049 2302.114,-102.1439"/>
</g>
<!-- 110&#45;&gt;101 -->
<g id="edge24" class="edge">
<title>110&#45;&gt;101</title>
<path fill="none" stroke="#000000" d="M1869.1602,-447.3795C1836.5251,-442.7463 1781.9772,-430.1 1751,-396 1695.3281,-334.7158 1755.4283,-280.0811 1703,-216 1697.6302,-209.4367 1656.0913,-189.8524 1625.8829,-176.1697"/>
<polygon fill="#000000" stroke="#000000" points="1627.0885,-172.8741 1616.5333,-171.9586 1624.2138,-179.2566 1627.0885,-172.8741"/>
</g>
<!-- 110&#45;&gt;84 -->
<g id="edge25" class="edge">
<title>110&#45;&gt;84</title>
<path fill="none" stroke="#000000" d="M1869.0247,-448.7846C1685.5683,-440.36 624.6736,-389.0671 498,-324 421.8317,-284.8754 400.4309,-260.0394 370,-180 364.3139,-165.0445 362.9419,-158.3591 370,-144 378.1302,-127.4598 394.0343,-114.5555 408.6307,-105.5152"/>
<polygon fill="#000000" stroke="#000000" points="410.5755,-108.4333 417.4689,-100.3877 407.0628,-102.3785 410.5755,-108.4333"/>
</g>
<!-- 110&#45;&gt;105 -->
<g id="edge26" class="edge">
<title>110&#45;&gt;105</title>
<path fill="none" stroke="#000000" d="M1868.8169,-449.7028C1710.8518,-447.8406 909.6521,-436.5108 667,-396 515.9633,-370.7844 437.8479,-380.1305 354,-252 326.7214,-210.3148 320.7912,-193.714 324,-144 324.548,-135.5096 325.5759,-126.3148 326.6785,-117.9603"/>
<polygon fill="#000000" stroke="#000000" points="330.1604,-118.333 328.0845,-107.9435 323.2283,-117.3599 330.1604,-118.333"/>
</g>
<!-- 110&#45;&gt;106 -->
<g id="edge27" class="edge">
<title>110&#45;&gt;106</title>
<path fill="none" stroke="#000000" d="M1920.241,-441.632C1978.3492,-421.0309 2122.7177,-366.4506 2149,-324 2191.1624,-255.9004 2136.6044,-159.3425 2106.0694,-114.5641"/>
<polygon fill="#000000" stroke="#000000" points="2108.9113,-112.5205 2100.3185,-106.3225 2103.1708,-116.5262 2108.9113,-112.5205"/>
</g>
<!-- 110&#45;&gt;107 -->
<g id="edge29" class="edge">
<title>110&#45;&gt;107</title>
<path fill="none" stroke="#000000" d="M1922.7357,-446.248C1969.9708,-439.2097 2070.9483,-422.3193 2153,-396 2156.109,-395.0027 2159.3014,-393.8482 2162.4662,-392.6149"/>
<polygon fill="#000000" stroke="#000000" points="2163.871,-395.8214 2171.7667,-388.7568 2161.1888,-389.3556 2163.871,-395.8214"/>
</g>
<!-- 110&#45;&gt;109 -->
<g id="edge32" class="edge">
<title>110&#45;&gt;109</title>
<path fill="none" stroke="#000000" d="M1922.539,-446.43C1979.2382,-438.645 2116.2901,-418.985 2230,-396 2242.7572,-393.4213 2256.645,-390.1643 2268.9076,-387.1319"/>
<polygon fill="#000000" stroke="#000000" points="2269.9186,-390.4868 2278.7655,-384.6574 2268.2143,-383.6975 2269.9186,-390.4868"/>
</g>
<!-- 283 -->
<g id="node24" class="node">
<title>283</title>
<ellipse fill="none" stroke="#000000" cx="1218" cy="-378" rx="27" ry="18"/>
<text text-anchor="middle" x="1218" y="-373.8" font-family="Times,serif" font-size="14.00" fill="#000000">283</text>
</g>
<!-- 110&#45;&gt;283 -->
<g id="edge23" class="edge">
<title>110&#45;&gt;283</title>
<path fill="none" stroke="#000000" d="M1869.0032,-447.1331C1763.2133,-435.8988 1376.7388,-394.8572 1254.9903,-381.9282"/>
<polygon fill="#000000" stroke="#000000" points="1255.0189,-378.4116 1244.7052,-380.8359 1254.2796,-385.3725 1255.0189,-378.4116"/>
</g>
<!-- 284 -->
<g id="node25" class="node">
<title>284</title>
<ellipse fill="none" stroke="#000000" cx="1374" cy="-90" rx="27" ry="18"/>
<text text-anchor="middle" x="1374" y="-85.8" font-family="Times,serif" font-size="14.00" fill="#000000">284</text>
</g>
<!-- 110&#45;&gt;284 -->
<g id="edge28" class="edge">
<title>110&#45;&gt;284</title>
<path fill="none" stroke="#000000" d="M1879.1133,-435.3132C1867.6812,-424.9337 1852.6055,-410.3641 1841,-396 1781.4882,-322.3423 1793.1702,-283.7393 1727,-216 1706.8443,-195.3664 1696.0926,-197.2838 1673,-180 1653.0456,-165.065 1652.6596,-154.3815 1630,-144 1539.9252,-102.7323 1504.2668,-138.5004 1410,-108 1408.1052,-107.3869 1406.1861,-106.6873 1404.2716,-105.9279"/>
<polygon fill="#000000" stroke="#000000" points="1405.4315,-102.6136 1394.8713,-101.7579 1402.593,-109.0123 1405.4315,-102.6136"/>
</g>
<!-- 285 -->
<g id="node26" class="node">
<title>285</title>
<ellipse fill="none" stroke="#000000" cx="1446" cy="-90" rx="27" ry="18"/>
<text text-anchor="middle" x="1446" y="-85.8" font-family="Times,serif" font-size="14.00" fill="#000000">285</text>
</g>
<!-- 110&#45;&gt;285 -->
<g id="edge30" class="edge">
<title>110&#45;&gt;285</title>
<path fill="none" stroke="#000000" d="M1883.7096,-433.5339C1876.2688,-423.1138 1866.9135,-409.1684 1860,-396 1819.2209,-318.3272 1838.8277,-280.1611 1779,-216 1737.6181,-171.6208 1719.4422,-166.2767 1663,-144 1586.7071,-113.8886 1559.5948,-134.5773 1482,-108 1480.116,-107.3547 1478.2052,-106.63 1476.2971,-105.8515"/>
<polygon fill="#000000" stroke="#000000" points="1477.4694,-102.5411 1466.9138,-101.6304 1474.5976,-108.9249 1477.4694,-102.5411"/>
</g>
<!-- 286 -->
<g id="node27" class="node">
<title>286</title>
<ellipse fill="none" stroke="#000000" cx="1896" cy="-378" rx="27" ry="18"/>
<text text-anchor="middle" x="1896" y="-373.8" font-family="Times,serif" font-size="14.00" fill="#000000">286</text>
</g>
<!-- 110&#45;&gt;286 -->
<g id="edge31" class="edge">
<title>110&#45;&gt;286</title>
<path fill="none" stroke="#000000" d="M1896,-431.8314C1896,-424.131 1896,-414.9743 1896,-406.4166"/>
<polygon fill="#000000" stroke="#000000" points="1899.5001,-406.4132 1896,-396.4133 1892.5001,-406.4133 1899.5001,-406.4132"/>
</g>
<!-- 287 -->
<g id="node28" class="node">
<title>287</title>
<ellipse fill="none" stroke="#000000" cx="1518" cy="-90" rx="27" ry="18"/>
<text text-anchor="middle" x="1518" y="-85.8" font-family="Times,serif" font-size="14.00" fill="#000000">287</text>
</g>
<!-- 110&#45;&gt;287 -->
<g id="edge33" class="edge">
<title>110&#45;&gt;287</title>
<path fill="none" stroke="#000000" d="M1910.1229,-434.2844C1918.2535,-424.1468 1927.6901,-410.2347 1932,-396 1936.6365,-380.6865 1935.889,-375.5202 1932,-360 1914.3599,-289.6012 1899.3942,-273.4135 1855,-216 1826.1411,-178.6778 1819.4251,-164.6371 1777,-144 1686.7201,-100.0847 1649.552,-138.803 1554,-108 1552.1046,-107.389 1550.185,-106.6909 1548.2701,-105.9327"/>
<polygon fill="#000000" stroke="#000000" points="1549.4292,-102.6182 1538.8687,-101.766 1546.5928,-109.0178 1549.4292,-102.6182"/>
</g>
<!-- 288 -->
<g id="node29" class="node">
<title>288</title>
<ellipse fill="none" stroke="#000000" cx="2541" cy="-162" rx="27" ry="18"/>
<text text-anchor="middle" x="2541" y="-157.8" font-family="Times,serif" font-size="14.00" fill="#000000">288</text>
</g>
<!-- 110&#45;&gt;288 -->
<g id="edge34" class="edge">
<title>110&#45;&gt;288</title>
<path fill="none" stroke="#000000" d="M1922.3531,-445.0555C1972.8238,-435.3337 2081.1234,-413.182 2115,-396 2137.2289,-384.7256 2137.2487,-373.8065 2158,-360 2280.6581,-278.3918 2441.1007,-205.2317 2508.725,-175.7678"/>
<polygon fill="#000000" stroke="#000000" points="2510.2301,-178.9302 2518.0134,-171.742 2507.4462,-172.5075 2510.2301,-178.9302"/>
</g>
<!-- 289 -->
<g id="node30" class="node">
<title>289</title>
<ellipse fill="none" stroke="#000000" cx="1788" cy="-90" rx="27" ry="18"/>
<text text-anchor="middle" x="1788" y="-85.8" font-family="Times,serif" font-size="14.00" fill="#000000">289</text>
</g>
<!-- 110&#45;&gt;289 -->
<g id="edge35" class="edge">
<title>110&#45;&gt;289</title>
<path fill="none" stroke="#000000" d="M1918.2185,-439.5307C1934.4859,-430.519 1955.3391,-415.8284 1965,-396 1972.008,-381.6164 1968.676,-375.572 1965,-360 1940.2085,-254.9814 1852.6045,-155.2204 1810.6812,-112.2013"/>
<polygon fill="#000000" stroke="#000000" points="1812.9279,-109.4952 1803.4103,-104.8405 1807.9478,-114.4145 1812.9279,-109.4952"/>
</g>
<!-- 111&#45;&gt;100 -->
<g id="edge36" class="edge">
<title>111&#45;&gt;100</title>
<path fill="none" stroke="#000000" d="M2569.0411,-436.4534C2606.4476,-407.6749 2689,-340.2803 2689,-306 2689,-306 2689,-306 2689,-162 2689,-121.1184 2701.0539,-98.5888 2670,-72 2613.1172,-23.2962 2070.7438,-49.0217 1997,-36 1988.6028,-34.5172 1979.7214,-32.2155 1971.4694,-29.7476"/>
<polygon fill="#000000" stroke="#000000" points="1972.3803,-26.3651 1961.7907,-26.699 1970.2772,-33.0417 1972.3803,-26.3651"/>
</g>
<!-- 111&#45;&gt;106 -->
<g id="edge37" class="edge">
<title>111&#45;&gt;106</title>
<path fill="none" stroke="#000000" d="M2537.1774,-434.4039C2484.4168,-375.0024 2296.9717,-165.1802 2263,-144 2239.5332,-129.3692 2167.1581,-109.6891 2123.1752,-98.5768"/>
<polygon fill="#000000" stroke="#000000" points="2124.0011,-95.1756 2113.4505,-96.1424 2122.3012,-101.9661 2124.0011,-95.1756"/>
</g>
<!-- 111&#45;&gt;109 -->
<g id="edge39" class="edge">
<title>111&#45;&gt;109</title>
<path fill="none" stroke="#000000" d="M2525.957,-442.7C2481.5524,-429.7562 2388.959,-402.7654 2338.5339,-388.0666"/>
<polygon fill="#000000" stroke="#000000" points="2339.322,-384.6507 2328.742,-385.2122 2337.3629,-391.371 2339.322,-384.6507"/>
</g>
<!-- 111&#45;&gt;112 -->
<g id="edge40" class="edge">
<title>111&#45;&gt;112</title>
<path fill="none" stroke="#000000" d="M2573.2747,-439.3691C2579.2714,-436.743 2585.8126,-434.0874 2592,-432 2656.553,-410.2218 2676.447,-417.7782 2741,-396 2744.0937,-394.9563 2747.2758,-393.7705 2750.4342,-392.5175"/>
<polygon fill="#000000" stroke="#000000" points="2751.8506,-395.7189 2759.7253,-388.6309 2749.1492,-389.2611 2751.8506,-395.7189"/>
</g>
<!-- 111&#45;&gt;113 -->
<g id="edge41" class="edge">
<title>111&#45;&gt;113</title>
<path fill="none" stroke="#000000" d="M2576.5671,-443.9373C2592.0098,-440.3345 2612.1021,-435.7514 2630,-432 2713.2643,-414.5476 2737.4186,-423.2795 2818,-396 2819.8863,-395.3614 2821.7989,-394.6419 2823.7083,-393.8674"/>
<polygon fill="#000000" stroke="#000000" points="2825.4035,-396.9431 2833.0953,-389.657 2822.5387,-390.5562 2825.4035,-396.9431"/>
</g>
<!-- 115 -->
<g id="node31" class="node">
<title>115</title>
<ellipse fill="none" stroke="#000000" cx="2033" cy="-18" rx="27" ry="18"/>
<text text-anchor="middle" x="2033" y="-13.8" font-family="Times,serif" font-size="14.00" fill="#000000">115</text>
</g>
<!-- 111&#45;&gt;115 -->
<g id="edge38" class="edge">
<title>111&#45;&gt;115</title>
<path fill="none" stroke="#000000" d="M2570.9721,-437.8787C2574.8833,-435.7604 2579.011,-433.6956 2583,-432 2634.2444,-410.218 2669.7619,-440.673 2703,-396 2789.0627,-280.329 2795.6525,-166.7692 2687,-72 2640.391,-31.3466 2202.3086,-20.8074 2070.402,-18.5447"/>
<polygon fill="#000000" stroke="#000000" points="2070.0753,-15.039 2060.0188,-18.3731 2069.9595,-22.038 2070.0753,-15.039"/>
</g>
<!-- 283&#45;&gt;98 -->
<g id="edge42" class="edge">
<title>283&#45;&gt;98</title>
<path fill="none" stroke="#000000" d="M1190.7621,-377.0657C1106.322,-373.7994 850.2325,-361.0065 777,-324 721.4308,-295.9192 686.2743,-227.5961 670.2196,-189.2526"/>
<polygon fill="#000000" stroke="#000000" points="673.3669,-187.6994 666.3723,-179.7416 666.8777,-190.3244 673.3669,-187.6994"/>
</g>
<!-- 283&#45;&gt;100 -->
<g id="edge44" class="edge">
<title>283&#45;&gt;100</title>
<path fill="none" stroke="#000000" d="M1244.9886,-376.9071C1353.7575,-372.3345 1760.0804,-353.5891 1885,-324 1968.0403,-304.3306 1997.3643,-306.5392 2063,-252 2127.9673,-198.0161 2174.937,-139.3827 2124,-72 2088.6215,-25.199 2053.2825,-52.5607 1997,-36 1988.9657,-33.636 1980.3342,-31.0365 1972.2202,-28.5661"/>
<polygon fill="#000000" stroke="#000000" points="1973.2409,-25.2183 1962.6545,-25.6413 1971.194,-31.9124 1973.2409,-25.2183"/>
</g>
<!-- 283&#45;&gt;101 -->
<g id="edge45" class="edge">
<title>283&#45;&gt;101</title>
<path fill="none" stroke="#000000" d="M1245.1043,-375.1973C1307.1673,-367.3645 1460.8585,-339.7132 1547,-252 1564.4596,-234.2219 1576.968,-208.6356 1584.6696,-189.285"/>
<polygon fill="#000000" stroke="#000000" points="1587.9899,-190.4001 1588.2597,-179.8087 1581.4439,-187.9201 1587.9899,-190.4001"/>
</g>
<!-- 283&#45;&gt;102 -->
<g id="edge46" class="edge">
<title>283&#45;&gt;102</title>
<path fill="none" stroke="#000000" d="M1190.8532,-376.9972C1072.8886,-372.4794 608.1184,-352.9692 550,-324 489.1479,-293.6681 442.4596,-225.4501 420.2558,-187.9371"/>
<polygon fill="#000000" stroke="#000000" points="423.1822,-186.006 415.1446,-179.1033 417.1233,-189.5117 423.1822,-186.006"/>
</g>
<!-- 283&#45;&gt;84 -->
<g id="edge48" class="edge">
<title>283&#45;&gt;84</title>
<path fill="none" stroke="#000000" d="M1191.0153,-376.4359C1088.1656,-370.3206 724.1943,-347.22 678,-324 581.3031,-275.3944 594.5647,-216.2642 514,-144 499.6856,-131.1604 482.386,-118.4037 468.1139,-108.5156"/>
<polygon fill="#000000" stroke="#000000" points="469.9052,-105.5007 459.6725,-102.7544 465.9592,-111.2825 469.9052,-105.5007"/>
</g>
<!-- 283&#45;&gt;104 -->
<g id="edge49" class="edge">
<title>283&#45;&gt;104</title>
<path fill="none" stroke="#000000" d="M1190.7249,-376.9684C1077.4268,-372.5041 647.4121,-353.7235 595,-324 540.9802,-293.3647 505.3007,-226.3655 488.7251,-188.8346"/>
<polygon fill="#000000" stroke="#000000" points="491.8931,-187.3414 484.7396,-179.5261 485.4581,-190.0966 491.8931,-187.3414"/>
</g>
<!-- 283&#45;&gt;105 -->
<g id="edge50" class="edge">
<title>283&#45;&gt;105</title>
<path fill="none" stroke="#000000" d="M1190.9196,-376.9996C1067.645,-372.3072 562.7368,-351.5451 498,-324 409.663,-286.4131 379.0873,-266.2836 337,-180 327.6455,-160.8223 326.5492,-136.5627 327.5703,-118.064"/>
<polygon fill="#000000" stroke="#000000" points="331.0732,-118.164 328.3697,-107.92 324.0948,-117.614 331.0732,-118.164"/>
</g>
<!-- 283&#45;&gt;106 -->
<g id="edge51" class="edge">
<title>283&#45;&gt;106</title>
<path fill="none" stroke="#000000" d="M1245.2246,-376.3743C1342.9135,-370.3864 1675.4815,-348.6268 1779,-324 1927.5769,-288.6538 2014.1197,-311.9616 2091,-180 2101.9564,-161.1938 2100.1089,-136.2252 2096.1433,-117.3585"/>
<polygon fill="#000000" stroke="#000000" points="2099.5333,-116.4858 2093.7901,-107.5826 2092.7277,-118.124 2099.5333,-116.4858"/>
</g>
<!-- 283&#45;&gt;108 -->
<g id="edge53" class="edge">
<title>283&#45;&gt;108</title>
<path fill="none" stroke="#000000" d="M1190.9032,-377.5885C1100.3765,-375.8205 809.5332,-366.8561 728,-324 668.6988,-292.8296 623.5066,-225.2557 601.9492,-187.9841"/>
<polygon fill="#000000" stroke="#000000" points="604.9522,-186.184 596.9835,-179.2018 598.8587,-189.6293 604.9522,-186.184"/>
</g>
<!-- 283&#45;&gt;289 -->
<g id="edge57" class="edge">
<title>283&#45;&gt;289</title>
<path fill="none" stroke="#000000" d="M1245.1844,-376.2852C1294.6362,-372.3536 1401.7916,-360.0576 1484,-324 1604.4649,-271.1626 1719.9978,-160.5728 1766.5059,-112.7926"/>
<polygon fill="#000000" stroke="#000000" points="1769.1966,-115.0447 1773.6205,-105.4176 1764.1586,-110.1847 1769.1966,-115.0447"/>
</g>
<!-- 434 -->
<g id="node32" class="node">
<title>434</title>
<ellipse fill="none" stroke="#000000" cx="846" cy="-162" rx="27" ry="18"/>
<text text-anchor="middle" x="846" y="-157.8" font-family="Times,serif" font-size="14.00" fill="#000000">434</text>
</g>
<!-- 283&#45;&gt;434 -->
<g id="edge43" class="edge">
<title>283&#45;&gt;434</title>
<path fill="none" stroke="#000000" d="M1197.4698,-366.0792C1135.0985,-329.8637 947.6778,-221.0387 875.1266,-178.9122"/>
<polygon fill="#000000" stroke="#000000" points="876.8722,-175.8786 866.4668,-173.8839 873.3572,-181.9321 876.8722,-175.8786"/>
</g>
<!-- 435 -->
<g id="node33" class="node">
<title>435</title>
<ellipse fill="none" stroke="#000000" cx="2342" cy="-162" rx="27" ry="18"/>
<text text-anchor="middle" x="2342" y="-157.8" font-family="Times,serif" font-size="14.00" fill="#000000">435</text>
</g>
<!-- 283&#45;&gt;435 -->
<g id="edge47" class="edge">
<title>283&#45;&gt;435</title>
<path fill="none" stroke="#000000" d="M1245.4201,-377.4363C1390.2842,-374.3216 2063.1398,-358.1063 2149,-324 2224.0279,-294.1967 2291.1783,-223.1779 2322.82,-185.8532"/>
<polygon fill="#000000" stroke="#000000" points="2325.6577,-187.9154 2329.3779,-177.9952 2320.2833,-183.4303 2325.6577,-187.9154"/>
</g>
<!-- 436 -->
<g id="node34" class="node">
<title>436</title>
<ellipse fill="none" stroke="#000000" cx="1264" cy="-90" rx="27" ry="18"/>
<text text-anchor="middle" x="1264" y="-85.8" font-family="Times,serif" font-size="14.00" fill="#000000">436</text>
</g>
<!-- 283&#45;&gt;436 -->
<g id="edge52" class="edge">
<title>283&#45;&gt;436</title>
<path fill="none" stroke="#000000" d="M1216.8995,-359.8515C1215.4414,-329.7148 1214.005,-267.5587 1223,-216 1229.1157,-180.9452 1242.8103,-142.2494 1252.6919,-117.1118"/>
<polygon fill="#000000" stroke="#000000" points="1256.0572,-118.123 1256.5293,-107.5387 1249.5598,-115.5185 1256.0572,-118.123"/>
</g>
<!-- 437 -->
<g id="node35" class="node">
<title>437</title>
<ellipse fill="none" stroke="#000000" cx="1590" cy="-90" rx="27" ry="18"/>
<text text-anchor="middle" x="1590" y="-85.8" font-family="Times,serif" font-size="14.00" fill="#000000">437</text>
</g>
<!-- 283&#45;&gt;437 -->
<g id="edge54" class="edge">
<title>283&#45;&gt;437</title>
<path fill="none" stroke="#000000" d="M1227.5758,-361.1203C1252.982,-317.9191 1326.591,-202.6357 1420,-144 1472.2296,-111.2139 1496.3523,-129.9 1554,-108 1555.8617,-107.2928 1557.755,-106.5199 1559.6499,-105.7048"/>
<polygon fill="#000000" stroke="#000000" points="1561.3881,-108.7573 1568.9978,-101.3855 1558.4519,-102.4028 1561.3881,-108.7573"/>
</g>
<!-- 438 -->
<g id="node36" class="node">
<title>438</title>
<ellipse fill="none" stroke="#000000" cx="1379" cy="-306" rx="27" ry="18"/>
<text text-anchor="middle" x="1379" y="-301.8" font-family="Times,serif" font-size="14.00" fill="#000000">438</text>
</g>
<!-- 283&#45;&gt;438 -->
<g id="edge55" class="edge">
<title>283&#45;&gt;438</title>
<path fill="none" stroke="#000000" d="M1240.7259,-367.8369C1268.5337,-355.4011 1315.7814,-334.2717 1347.1898,-320.2257"/>
<polygon fill="#000000" stroke="#000000" points="1348.6898,-323.389 1356.3897,-316.1114 1345.8321,-316.9988 1348.6898,-323.389"/>
</g>
<!-- 439 -->
<g id="node37" class="node">
<title>439</title>
<ellipse fill="none" stroke="#000000" cx="2004" cy="-162" rx="27" ry="18"/>
<text text-anchor="middle" x="2004" y="-157.8" font-family="Times,serif" font-size="14.00" fill="#000000">439</text>
</g>
<!-- 283&#45;&gt;439 -->
<g id="edge56" class="edge">
<title>283&#45;&gt;439</title>
<path fill="none" stroke="#000000" d="M1244.96,-375.9447C1360.3904,-366.7419 1812.4528,-326.4779 1931,-252 1956.262,-236.129 1976.7518,-208.4465 1989.5218,-187.9615"/>
<polygon fill="#000000" stroke="#000000" points="1992.6819,-189.498 1994.8353,-179.1242 1986.6828,-185.8909 1992.6819,-189.498"/>
</g>
<!-- 440 -->
<g id="node38" class="node">
<title>440</title>
<ellipse fill="none" stroke="#000000" cx="1511" cy="-18" rx="27" ry="18"/>
<text text-anchor="middle" x="1511" y="-13.8" font-family="Times,serif" font-size="14.00" fill="#000000">440</text>
</g>
<!-- 283&#45;&gt;440 -->
<g id="edge58" class="edge">
<title>283&#45;&gt;440</title>
<path fill="none" stroke="#000000" d="M1191.168,-374.7406C1087.2548,-360.9189 721.3891,-300.5037 810,-144 813.8305,-137.2345 922.6117,-74.4201 930,-72 1031.8879,-38.6253 1362.4973,-23.5237 1473.9368,-19.2945"/>
<polygon fill="#000000" stroke="#000000" points="1474.1593,-22.7888 1484.0221,-18.9189 1473.8987,-15.7936 1474.1593,-22.7888"/>
</g>
<!-- 288&#45;&gt;100 -->
<g id="edge59" class="edge">
<title>288&#45;&gt;100</title>
<path fill="none" stroke="#000000" d="M2550.9032,-144.993C2561.1796,-124.8641 2573.3863,-91.6108 2555,-72 2512.506,-26.6761 2058.1221,-47.1395 1997,-36 1988.611,-34.4711 1979.7328,-32.1519 1971.4811,-29.682"/>
<polygon fill="#000000" stroke="#000000" points="1972.3912,-26.2992 1961.8018,-26.6374 1970.2908,-32.9767 1972.3912,-26.2992"/>
</g>
<!-- 288&#45;&gt;106 -->
<g id="edge60" class="edge">
<title>288&#45;&gt;106</title>
<path fill="none" stroke="#000000" d="M2515.1995,-156.3896C2497.0292,-152.5629 2472.1003,-147.5624 2450,-144 2322.6478,-123.4717 2288.8777,-131.2822 2162,-108 2149.1985,-105.6509 2135.3005,-102.447 2123.0421,-99.3929"/>
<polygon fill="#000000" stroke="#000000" points="2123.7451,-95.9603 2113.1906,-96.8848 2122.0179,-102.7439 2123.7451,-95.9603"/>
</g>
<!-- 288&#45;&gt;289 -->
<g id="edge63" class="edge">
<title>288&#45;&gt;289</title>
<path fill="none" stroke="#000000" d="M2515.2443,-156.0916C2497.0945,-152.1283 2472.1717,-147.0869 2450,-144 2327.6331,-126.9634 1946.2956,-100.613 1825.261,-92.4774"/>
<polygon fill="#000000" stroke="#000000" points="1825.2395,-88.9682 1815.0277,-91.7913 1824.7711,-95.9525 1825.2395,-88.9682"/>
</g>
<!-- 288&#45;&gt;115 -->
<g id="edge61" class="edge">
<title>288&#45;&gt;115</title>
<path fill="none" stroke="#000000" d="M2567.9659,-159.3232C2598.6197,-154.6762 2647.3354,-142.0578 2670,-108 2678.8642,-94.6799 2680.8253,-83.7819 2670,-72 2629.3266,-27.7327 2201.2377,-19.7161 2070.625,-18.2976"/>
<polygon fill="#000000" stroke="#000000" points="2070.3651,-14.7949 2060.33,-18.1929 2070.2939,-21.7945 2070.3651,-14.7949"/>
</g>
<!-- 288&#45;&gt;440 -->
<g id="edge64" class="edge">
<title>288&#45;&gt;440</title>
<path fill="none" stroke="#000000" d="M2543.0116,-143.9631C2544.2147,-123.1524 2542.5011,-89.5519 2522,-72 2512.5548,-63.9135 1729.3302,-27.9062 1548.1264,-19.6782"/>
<polygon fill="#000000" stroke="#000000" points="1548.1734,-16.1768 1538.025,-19.22 1547.8561,-23.1696 1548.1734,-16.1768"/>
</g>
<!-- 441 -->
<g id="node39" class="node">
<title>441</title>
<ellipse fill="none" stroke="#000000" cx="2634" cy="-90" rx="27" ry="18"/>
<text text-anchor="middle" x="2634" y="-85.8" font-family="Times,serif" font-size="14.00" fill="#000000">441</text>
</g>
<!-- 288&#45;&gt;441 -->
<g id="edge62" class="edge">
<title>288&#45;&gt;441</title>
<path fill="none" stroke="#000000" d="M2558.9313,-148.1177C2572.8264,-137.3602 2592.2781,-122.3009 2607.8991,-110.2072"/>
<polygon fill="#000000" stroke="#000000" points="2610.3591,-112.729 2616.1237,-103.8397 2606.0738,-107.1939 2610.3591,-112.729"/>
</g>
<!-- 435&#45;&gt;62 -->
<g id="edge65" class="edge">
<title>435&#45;&gt;62</title>
<path fill="none" stroke="#000000" d="M2357.2693,-146.7307C2367.197,-136.803 2380.3153,-123.6847 2391.4363,-112.5637"/>
<polygon fill="#000000" stroke="#000000" points="2394.1564,-114.7933 2398.7527,-105.2473 2389.2067,-109.8436 2394.1564,-114.7933"/>
</g>
<!-- 435&#45;&gt;63 -->
<g id="edge66" class="edge">
<title>435&#45;&gt;63</title>
<path fill="none" stroke="#000000" d="M2342,-143.8314C2342,-136.131 2342,-126.9743 2342,-118.4166"/>
<polygon fill="#000000" stroke="#000000" points="2345.5001,-118.4132 2342,-108.4133 2338.5001,-118.4133 2345.5001,-118.4132"/>
</g>
<!-- 435&#45;&gt;64 -->
<g id="edge67" class="edge">
<title>435&#45;&gt;64</title>
<path fill="none" stroke="#000000" d="M2363.8705,-151.0647C2388.2222,-138.8889 2427.762,-119.119 2455.2285,-105.3858"/>
<polygon fill="#000000" stroke="#000000" points="2457.0165,-108.4049 2464.3955,-100.8022 2453.886,-102.1439 2457.0165,-108.4049"/>
</g>
<!-- 435&#45;&gt;65 -->
<g id="edge68" class="edge">
<title>435&#45;&gt;65</title>
<path fill="none" stroke="#000000" d="M2320.1295,-151.0647C2295.7778,-138.8889 2256.238,-119.119 2228.7715,-105.3858"/>
<polygon fill="#000000" stroke="#000000" points="2230.114,-102.1439 2219.6045,-100.8022 2226.9835,-108.4049 2230.114,-102.1439"/>
</g>
<!-- 435&#45;&gt;66 -->
<g id="edge69" class="edge">
<title>435&#45;&gt;66</title>
<path fill="none" stroke="#000000" d="M2326.7307,-146.7307C2316.803,-136.803 2303.6847,-123.6847 2292.5637,-112.5637"/>
<polygon fill="#000000" stroke="#000000" points="2294.7933,-109.8436 2285.2473,-105.2473 2289.8436,-114.7933 2294.7933,-109.8436"/>
</g>
<!-- 438&#45;&gt;101 -->
<g id="edge71" class="edge">
<title>438&#45;&gt;101</title>
<path fill="none" stroke="#000000" d="M1404.3915,-299.5209C1432.6704,-291.489 1478.8859,-275.8699 1513,-252 1538.5059,-234.1534 1561.6074,-206.8384 1576.5515,-186.981"/>
<polygon fill="#000000" stroke="#000000" points="1579.5285,-188.8404 1582.6314,-178.7101 1573.8884,-184.6944 1579.5285,-188.8404"/>
</g>
<!-- 438&#45;&gt;84 -->
<g id="edge72" class="edge">
<title>438&#45;&gt;84</title>
<path fill="none" stroke="#000000" d="M1351.8914,-303.5274C1291.9497,-297.7042 1143.8858,-281.3592 1023,-252 925.894,-228.4162 903.0904,-216.3311 810,-180 773.3005,-165.677 766.8635,-154.879 729,-144 619.8394,-112.6359 584.4202,-141.835 476,-108 474.0989,-107.4067 472.175,-106.7225 470.2567,-105.9748"/>
<polygon fill="#000000" stroke="#000000" points="471.4093,-102.6582 460.8464,-101.8362 468.5912,-109.0659 471.4093,-102.6582"/>
</g>
<!-- 438&#45;&gt;105 -->
<g id="edge73" class="edge">
<title>438&#45;&gt;105</title>
<path fill="none" stroke="#000000" d="M1352.1063,-304.0005C1264.1963,-297.3041 986.0003,-274.8021 899,-252 819.6282,-231.1973 796.0309,-227.3233 729,-180 711.2686,-167.4817 715.2946,-153.9412 696,-144 579.7612,-84.11 532.5957,-131.6943 404,-108 391.5891,-105.7132 378.1408,-102.5865 366.2087,-99.5803"/>
<polygon fill="#000000" stroke="#000000" points="366.7346,-96.1015 356.1774,-96.9937 364.9868,-102.8798 366.7346,-96.1015"/>
</g>
<!-- 438&#45;&gt;106 -->
<g id="edge74" class="edge">
<title>438&#45;&gt;106</title>
<path fill="none" stroke="#000000" d="M1406.3016,-304.9123C1522.0214,-299.7392 1970.5507,-273.8342 2068,-180 2084.4193,-164.1898 2088.7602,-138.1195 2089.3796,-118.0963"/>
<polygon fill="#000000" stroke="#000000" points="2092.8798,-117.9886 2089.4015,-107.981 2085.8798,-117.9734 2092.8798,-117.9886"/>
</g>
<!-- 438&#45;&gt;284 -->
<g id="edge75" class="edge">
<title>438&#45;&gt;284</title>
<path fill="none" stroke="#000000" d="M1362.9946,-291.1535C1353.4303,-281.1432 1342.165,-267.0535 1337,-252 1320.9636,-205.2613 1342.9491,-148.5458 1359.2569,-116.1264"/>
<polygon fill="#000000" stroke="#000000" points="1362.5576,-117.367 1364.0872,-106.8832 1356.3537,-114.1249 1362.5576,-117.367"/>
</g>
<!-- 438&#45;&gt;285 -->
<g id="edge77" class="edge">
<title>438&#45;&gt;285</title>
<path fill="none" stroke="#000000" d="M1400.1315,-294.4045C1414.7998,-285.0711 1433.2236,-270.4775 1442,-252 1462.4763,-208.8898 1457.5715,-151.7774 1451.9321,-118.1506"/>
<polygon fill="#000000" stroke="#000000" points="1455.3383,-117.3185 1450.1065,-108.1055 1448.4511,-118.5702 1455.3383,-117.3185"/>
</g>
<!-- 438&#45;&gt;287 -->
<g id="edge80" class="edge">
<title>438&#45;&gt;287</title>
<path fill="none" stroke="#000000" d="M1402.1119,-296.162C1420.6971,-287.1637 1446.2264,-272.1817 1462,-252 1493.4706,-211.7348 1507.9192,-152.5887 1514.0212,-118.014"/>
<polygon fill="#000000" stroke="#000000" points="1517.4788,-118.5578 1515.6566,-108.1209 1510.5725,-117.4161 1517.4788,-118.5578"/>
</g>
<!-- 438&#45;&gt;289 -->
<g id="edge82" class="edge">
<title>438&#45;&gt;289</title>
<path fill="none" stroke="#000000" d="M1405.0522,-300.9983C1439.2308,-293.7018 1500.3378,-278.0894 1547,-252 1568.4591,-240.002 1569.2294,-230.614 1589,-216 1646.689,-173.3576 1718.7663,-129.9872 1758.4189,-106.9126"/>
<polygon fill="#000000" stroke="#000000" points="1760.4071,-109.8058 1767.3064,-101.7652 1756.8988,-103.7485 1760.4071,-109.8058"/>
</g>
<!-- 438&#45;&gt;436 -->
<g id="edge76" class="edge">
<title>438&#45;&gt;436</title>
<path fill="none" stroke="#000000" d="M1362.0921,-291.2822C1351.2179,-281.1129 1337.4126,-266.7975 1328,-252 1300.4667,-208.7151 1281.3203,-151.6596 1271.5358,-118.091"/>
<polygon fill="#000000" stroke="#000000" points="1274.7874,-116.7285 1268.6892,-108.0646 1268.0535,-118.6403 1274.7874,-116.7285"/>
</g>
<!-- 438&#45;&gt;437 -->
<g id="edge79" class="edge">
<title>438&#45;&gt;437</title>
<path fill="none" stroke="#000000" d="M1371.4712,-288.4656C1364.501,-269.3242 1357.0061,-238.416 1370,-216 1380.6901,-197.5583 1501.1734,-134.8789 1559.1672,-105.4711"/>
<polygon fill="#000000" stroke="#000000" points="1560.8974,-108.5183 1568.2421,-100.8824 1557.7387,-102.2715 1560.8974,-108.5183"/>
</g>
<!-- 525 -->
<g id="node40" class="node">
<title>525</title>
<ellipse fill="none" stroke="#000000" cx="1059" cy="-234" rx="27" ry="18"/>
<text text-anchor="middle" x="1059" y="-229.8" font-family="Times,serif" font-size="14.00" fill="#000000">525</text>
</g>
<!-- 438&#45;&gt;525 -->
<g id="edge70" class="edge">
<title>438&#45;&gt;525</title>
<path fill="none" stroke="#000000" d="M1353.354,-300.2296C1296.4794,-287.4329 1159.6724,-256.6513 1094.5767,-242.0048"/>
<polygon fill="#000000" stroke="#000000" points="1095.2926,-238.5784 1084.7682,-239.7978 1093.7559,-245.4077 1095.2926,-238.5784"/>
</g>
<!-- 526 -->
<g id="node41" class="node">
<title>526</title>
<ellipse fill="none" stroke="#000000" cx="1406" cy="-234" rx="27" ry="18"/>
<text text-anchor="middle" x="1406" y="-229.8" font-family="Times,serif" font-size="14.00" fill="#000000">526</text>
</g>
<!-- 438&#45;&gt;526 -->
<g id="edge78" class="edge">
<title>438&#45;&gt;526</title>
<path fill="none" stroke="#000000" d="M1385.6742,-288.2022C1388.7476,-280.0064 1392.4616,-270.1024 1395.8695,-261.0145"/>
<polygon fill="#000000" stroke="#000000" points="1399.1685,-262.1853 1399.4026,-251.593 1392.6142,-259.7274 1399.1685,-262.1853"/>
</g>
<!-- 527 -->
<g id="node42" class="node">
<title>527</title>
<ellipse fill="none" stroke="#000000" cx="1932" cy="-162" rx="27" ry="18"/>
<text text-anchor="middle" x="1932" y="-157.8" font-family="Times,serif" font-size="14.00" fill="#000000">527</text>
</g>
<!-- 438&#45;&gt;527 -->
<g id="edge81" class="edge">
<title>438&#45;&gt;527</title>
<path fill="none" stroke="#000000" d="M1404.2241,-299.5565C1443.6633,-289.472 1522.3236,-269.3202 1589,-252 1701.6069,-222.7487 1834.8755,-187.6394 1896.9366,-171.2611"/>
<polygon fill="#000000" stroke="#000000" points="1897.848,-174.6405 1906.6236,-168.7041 1896.0615,-167.8723 1897.848,-174.6405"/>
</g>
<!-- 439&#45;&gt;100 -->
<g id="edge83" class="edge">
<title>439&#45;&gt;100</title>
<path fill="none" stroke="#000000" d="M1998.6628,-144.3273C1992.8268,-125.8687 1982.7268,-96.2765 1971,-72 1966.3181,-62.3077 1960.3868,-52.1253 1954.8479,-43.2474"/>
<polygon fill="#000000" stroke="#000000" points="1957.6202,-41.0856 1949.2867,-34.5431 1951.7213,-44.8544 1957.6202,-41.0856"/>
</g>
<!-- 439&#45;&gt;106 -->
<g id="edge84" class="edge">
<title>439&#45;&gt;106</title>
<path fill="none" stroke="#000000" d="M2020.5957,-147.7751C2032.8261,-137.2919 2049.6601,-122.8628 2063.4451,-111.0471"/>
<polygon fill="#000000" stroke="#000000" points="2065.8365,-113.6071 2071.1513,-104.4418 2061.2809,-108.2923 2065.8365,-113.6071"/>
</g>
<!-- 439&#45;&gt;289 -->
<g id="edge87" class="edge">
<title>439&#45;&gt;289</title>
<path fill="none" stroke="#000000" d="M1982.9565,-150.721C1978.115,-148.3395 1972.9366,-145.9578 1968,-144 1918.9324,-124.5409 1859.9914,-108.1096 1823.2549,-98.6511"/>
<polygon fill="#000000" stroke="#000000" points="1824.063,-95.2453 1813.5087,-96.1715 1822.337,-102.0292 1824.063,-95.2453"/>
</g>
<!-- 439&#45;&gt;115 -->
<g id="edge85" class="edge">
<title>439&#45;&gt;115</title>
<path fill="none" stroke="#000000" d="M2007.6142,-144.0535C2012.5636,-119.4774 2021.5005,-75.1008 2027.3415,-46.0974"/>
<polygon fill="#000000" stroke="#000000" points="2030.797,-46.6669 2029.3402,-36.1727 2023.9348,-45.2849 2030.797,-46.6669"/>
</g>
<!-- 439&#45;&gt;437 -->
<g id="edge86" class="edge">
<title>439&#45;&gt;437</title>
<path fill="none" stroke="#000000" d="M1983.1529,-150.1659C1978.3013,-147.8132 1973.0691,-145.5835 1968,-144 1935.7738,-133.9333 1715.465,-105.6922 1626.8245,-94.5771"/>
<polygon fill="#000000" stroke="#000000" points="1627.0462,-91.0776 1616.6889,-93.3089 1626.177,-98.0235 1627.0462,-91.0776"/>
</g>
<!-- 439&#45;&gt;440 -->
<g id="edge88" class="edge">
<title>439&#45;&gt;440</title>
<path fill="none" stroke="#000000" d="M1987.4528,-147.7652C1962.7872,-127.3901 1914.1045,-90.3503 1866,-72 1808.2836,-49.9831 1627.1813,-29.6929 1548.3166,-21.6504"/>
<polygon fill="#000000" stroke="#000000" points="1548.1915,-18.1201 1537.8905,-20.598 1547.4884,-25.0847 1548.1915,-18.1201"/>
</g>
<!-- 525&#45;&gt;98 -->
<g id="edge89" class="edge">
<title>525&#45;&gt;98</title>
<path fill="none" stroke="#000000" d="M1032.8205,-229.2759C963.6306,-216.7905 775.7935,-182.8951 696.3065,-168.5516"/>
<polygon fill="#000000" stroke="#000000" points="696.7385,-165.0731 686.2759,-166.7415 695.4954,-171.9618 696.7385,-165.0731"/>
</g>
<!-- 525&#45;&gt;100 -->
<g id="edge91" class="edge">
<title>525&#45;&gt;100</title>
<path fill="none" stroke="#000000" d="M1084.7206,-228.3296C1116.8922,-220.5412 1172.9744,-204.632 1216,-180 1258.6727,-155.5701 1263.4742,-140.9187 1300,-108 1317.2816,-92.425 1316.7963,-81.5727 1338,-72 1389.2326,-48.8705 1777.5569,-26.5059 1900.675,-19.9331"/>
<polygon fill="#000000" stroke="#000000" points="1900.9486,-23.4236 1910.7493,-19.3991 1900.578,-16.4335 1900.9486,-23.4236"/>
</g>
<!-- 525&#45;&gt;101 -->
<g id="edge92" class="edge">
<title>525&#45;&gt;101</title>
<path fill="none" stroke="#000000" d="M1086.0601,-232.1319C1175.8641,-225.7623 1463.4025,-203.9581 1553,-180 1556.2293,-179.1365 1559.5305,-178.0552 1562.7883,-176.8537"/>
<polygon fill="#000000" stroke="#000000" points="1564.3673,-179.9902 1572.3166,-172.986 1561.7344,-173.5042 1564.3673,-179.9902"/>
</g>
<!-- 525&#45;&gt;102 -->
<g id="edge93" class="edge">
<title>525&#45;&gt;102</title>
<path fill="none" stroke="#000000" d="M1031.8742,-232.9774C927.9842,-228.8526 555.562,-212.0993 442,-180 439.8693,-179.3977 437.7144,-178.6688 435.5741,-177.8537"/>
<polygon fill="#000000" stroke="#000000" points="436.9688,-174.6436 426.4033,-173.855 434.1709,-181.0602 436.9688,-174.6436"/>
</g>
<!-- 525&#45;&gt;84 -->
<g id="edge95" class="edge">
<title>525&#45;&gt;84</title>
<path fill="none" stroke="#000000" d="M1037.5551,-222.9775C1017.7821,-212.5728 987.8259,-196.1923 963,-180 940.6643,-165.4319 939.9322,-153.4604 915,-144 731.9674,-74.5493 664.5301,-160.7327 476,-108 473.8676,-107.4036 471.7115,-106.679 469.5703,-105.8672"/>
<polygon fill="#000000" stroke="#000000" points="470.9635,-102.6564 460.3975,-101.8758 468.1706,-109.0751 470.9635,-102.6564"/>
</g>
<!-- 525&#45;&gt;104 -->
<g id="edge96" class="edge">
<title>525&#45;&gt;104</title>
<path fill="none" stroke="#000000" d="M1031.8925,-232.3819C955.7851,-227.5665 733.8268,-211.6536 552,-180 539.1776,-177.7678 525.2748,-174.5908 513.0183,-171.5257"/>
<polygon fill="#000000" stroke="#000000" points="513.7259,-168.094 503.1699,-169.0005 511.9873,-174.8746 513.7259,-168.094"/>
</g>
<!-- 525&#45;&gt;105 -->
<g id="edge97" class="edge">
<title>525&#45;&gt;105</title>
<path fill="none" stroke="#000000" d="M1033.3686,-228.2767C1003.1755,-220.6939 952.3986,-205.2474 915,-180 897.0105,-167.8555 901.5253,-153.4802 882,-144 786.175,-97.4734 509.1884,-124.8093 404,-108 391.3117,-105.9724 377.5878,-102.8427 365.5006,-99.7582"/>
<polygon fill="#000000" stroke="#000000" points="366.3525,-96.3633 355.7911,-97.2031 364.5711,-103.1328 366.3525,-96.3633"/>
</g>
<!-- 525&#45;&gt;106 -->
<g id="edge98" class="edge">
<title>525&#45;&gt;106</title>
<path fill="none" stroke="#000000" d="M1086.0376,-232.3974C1140.0141,-229.2064 1264.9712,-221.8611 1370,-216 1444.436,-211.8461 1977.1247,-220.0584 2040,-180 2061.8188,-166.099 2074.3669,-138.7534 2081.1197,-117.8354"/>
<polygon fill="#000000" stroke="#000000" points="2084.4983,-118.7523 2083.9844,-108.17 2077.7869,-116.7631 2084.4983,-118.7523"/>
</g>
<!-- 525&#45;&gt;108 -->
<g id="edge100" class="edge">
<title>525&#45;&gt;108</title>
<path fill="none" stroke="#000000" d="M1032.0017,-231.8554C949.4461,-225.1081 701.3063,-203.3706 624,-180 622.0937,-179.4237 620.1657,-178.7526 618.2444,-178.015"/>
<polygon fill="#000000" stroke="#000000" points="619.3909,-174.6966 608.8258,-173.9034 616.5903,-181.112 619.3909,-174.6966"/>
</g>
<!-- 525&#45;&gt;289 -->
<g id="edge104" class="edge">
<title>525&#45;&gt;289</title>
<path fill="none" stroke="#000000" d="M1084.9455,-228.875C1195.099,-207.1163 1624.2199,-122.3516 1751.9423,-97.1225"/>
<polygon fill="#000000" stroke="#000000" points="1752.8536,-100.5102 1761.9857,-95.1386 1751.497,-93.6429 1752.8536,-100.5102"/>
</g>
<!-- 525&#45;&gt;434 -->
<g id="edge90" class="edge">
<title>525&#45;&gt;434</title>
<path fill="none" stroke="#000000" d="M1033.9292,-227.0633C1000.1787,-217.5139 938.4276,-199.2958 887,-180 883.9431,-178.853 880.7856,-177.5979 877.6429,-176.301"/>
<polygon fill="#000000" stroke="#000000" points="878.946,-173.0518 868.3743,-172.3513 876.2017,-179.4915 878.946,-173.0518"/>
</g>
<!-- 525&#45;&gt;435 -->
<g id="edge94" class="edge">
<title>525&#45;&gt;435</title>
<path fill="none" stroke="#000000" d="M1086.0364,-232.3745C1140.0106,-229.143 1264.9639,-221.729 1370,-216 1682.3895,-198.9614 1760.6903,-198.4444 2073,-180 2155.8359,-175.1079 2252.9497,-168.359 2304.8385,-164.6712"/>
<polygon fill="#000000" stroke="#000000" points="2305.1737,-168.1563 2314.8996,-163.9542 2304.676,-161.174 2305.1737,-168.1563"/>
</g>
<!-- 525&#45;&gt;436 -->
<g id="edge99" class="edge">
<title>525&#45;&gt;436</title>
<path fill="none" stroke="#000000" d="M1064.8035,-216.1034C1072.3034,-195.7466 1087.288,-162.8899 1111,-144 1153.5535,-110.1002 1177.4969,-128.2345 1228,-108 1229.8,-107.2788 1231.6328,-106.5025 1233.47,-105.6914"/>
<polygon fill="#000000" stroke="#000000" points="1234.986,-108.8464 1242.5633,-101.4414 1232.022,-102.5048 1234.986,-108.8464"/>
</g>
<!-- 525&#45;&gt;437 -->
<g id="edge101" class="edge">
<title>525&#45;&gt;437</title>
<path fill="none" stroke="#000000" d="M1074.1205,-218.5008C1084.5519,-207.7588 1098.7016,-193.0897 1111,-180 1125.8622,-164.1815 1124.5339,-153.6012 1144,-144 1308.0536,-63.0843 1377.9805,-157.7803 1554,-108 1556.1307,-107.3974 1558.2854,-106.6682 1560.4257,-105.853"/>
<polygon fill="#000000" stroke="#000000" points="1561.829,-109.0594 1569.5964,-101.8539 1559.031,-102.643 1561.829,-109.0594"/>
</g>
<!-- 525&#45;&gt;440 -->
<g id="edge105" class="edge">
<title>525&#45;&gt;440</title>
<path fill="none" stroke="#000000" d="M1039.3736,-221.4862C1010.421,-201.63 957.7722,-159.7977 940,-108 934.8074,-92.866 929.2321,-83.8343 940,-72 958.0492,-52.1634 1350.2255,-27.464 1473.9521,-20.1404"/>
<polygon fill="#000000" stroke="#000000" points="1474.2934,-23.6264 1484.0704,-19.5448 1473.882,-16.6385 1474.2934,-23.6264"/>
</g>
<!-- 548 -->
<g id="node43" class="node">
<title>548</title>
<ellipse fill="none" stroke="#000000" cx="1032" cy="-162" rx="27" ry="18"/>
<text text-anchor="middle" x="1032" y="-157.8" font-family="Times,serif" font-size="14.00" fill="#000000">548</text>
</g>
<!-- 525&#45;&gt;548 -->
<g id="edge102" class="edge">
<title>525&#45;&gt;548</title>
<path fill="none" stroke="#000000" d="M1052.3258,-216.2022C1049.2524,-208.0064 1045.5384,-198.1024 1042.1305,-189.0145"/>
<polygon fill="#000000" stroke="#000000" points="1045.3858,-187.7274 1038.5974,-179.593 1038.8315,-190.1853 1045.3858,-187.7274"/>
</g>
<!-- 549 -->
<g id="node44" class="node">
<title>549</title>
<ellipse fill="none" stroke="#000000" cx="1180" cy="-162" rx="27" ry="18"/>
<text text-anchor="middle" x="1180" y="-157.8" font-family="Times,serif" font-size="14.00" fill="#000000">549</text>
</g>
<!-- 525&#45;&gt;549 -->
<g id="edge103" class="edge">
<title>525&#45;&gt;549</title>
<path fill="none" stroke="#000000" d="M1079.2527,-221.9488C1098.8839,-210.2675 1128.8619,-192.4293 1151.0169,-179.2461"/>
<polygon fill="#000000" stroke="#000000" points="1152.8773,-182.2119 1159.6812,-174.0905 1149.2978,-176.1963 1152.8773,-182.2119"/>
</g>
<!-- 527&#45;&gt;100 -->
<g id="edge106" class="edge">
<title>527&#45;&gt;100</title>
<path fill="none" stroke="#000000" d="M1921.0915,-145.2705C1915.0443,-134.9795 1908.1306,-121.2615 1905,-108 1901.324,-92.428 1900.6664,-87.402 1905,-72 1907.9461,-61.5294 1913.5487,-51.0814 1919.3127,-42.2044"/>
<polygon fill="#000000" stroke="#000000" points="1922.2386,-44.1267 1925.038,-33.9084 1916.4774,-40.1507 1922.2386,-44.1267"/>
</g>
<!-- 527&#45;&gt;106 -->
<g id="edge107" class="edge">
<title>527&#45;&gt;106</title>
<path fill="none" stroke="#000000" d="M1953.6319,-151.0052C1958.3501,-148.6573 1963.3288,-146.2177 1968,-144 1997.5661,-129.9633 2031.6213,-114.7257 2055.882,-104.0272"/>
<polygon fill="#000000" stroke="#000000" points="2057.5699,-107.1085 2065.3146,-99.8787 2054.7517,-100.7008 2057.5699,-107.1085"/>
</g>
<!-- 527&#45;&gt;289 -->
<g id="edge110" class="edge">
<title>527&#45;&gt;289</title>
<path fill="none" stroke="#000000" d="M1910.1295,-151.0647C1885.7778,-138.8889 1846.238,-119.119 1818.7715,-105.3858"/>
<polygon fill="#000000" stroke="#000000" points="1820.114,-102.1439 1809.6045,-100.8022 1816.9835,-108.4049 1820.114,-102.1439"/>
</g>
<!-- 527&#45;&gt;115 -->
<g id="edge108" class="edge">
<title>527&#45;&gt;115</title>
<path fill="none" stroke="#000000" d="M1943.586,-145.4814C1961.242,-120.3084 1995.0008,-72.1771 2015.6083,-42.7961"/>
<polygon fill="#000000" stroke="#000000" points="2018.6723,-44.5228 2021.5491,-34.326 2012.9414,-40.5032 2018.6723,-44.5228"/>
</g>
<!-- 527&#45;&gt;437 -->
<g id="edge109" class="edge">
<title>527&#45;&gt;437</title>
<path fill="none" stroke="#000000" d="M1906.0137,-156.5292C1845.5199,-143.7937 1695.1771,-112.1426 1625.9445,-97.5673"/>
<polygon fill="#000000" stroke="#000000" points="1626.4533,-94.0977 1615.9467,-95.4625 1625.0112,-100.9476 1626.4533,-94.0977"/>
</g>
<!-- 527&#45;&gt;440 -->
<g id="edge111" class="edge">
<title>527&#45;&gt;440</title>
<path fill="none" stroke="#000000" d="M1918.3757,-146.4041C1899.4192,-125.7991 1862.9958,-90.0161 1824,-72 1775.3141,-49.507 1619.909,-30.0195 1548.0679,-21.9562"/>
<polygon fill="#000000" stroke="#000000" points="1548.0153,-18.429 1537.6905,-20.8058 1547.244,-25.3863 1548.0153,-18.429"/>
</g>
<!-- 548&#45;&gt;84 -->
<g id="edge114" class="edge">
<title>548&#45;&gt;84</title>
<path fill="none" stroke="#000000" d="M1006.9214,-155.2818C991.481,-151.3969 971.2215,-146.7479 953,-144 742.7741,-112.2971 680.9295,-164.603 476,-108 473.8657,-107.4105 471.7082,-106.6911 469.5659,-105.8831"/>
<polygon fill="#000000" stroke="#000000" points="470.9573,-102.6716 460.3906,-101.9006 468.1702,-109.0928 470.9573,-102.6716"/>
</g>
<!-- 548&#45;&gt;105 -->
<g id="edge115" class="edge">
<title>548&#45;&gt;105</title>
<path fill="none" stroke="#000000" d="M1005.5963,-157.3022C981.9369,-153.2446 946.2485,-147.4985 915,-144 688.7396,-118.6688 628.9078,-143.383 404,-108 391.3069,-106.0031 377.5818,-102.8805 365.4951,-99.7931"/>
<polygon fill="#000000" stroke="#000000" points="366.3481,-96.3985 355.7862,-97.2335 364.5636,-103.1672 366.3481,-96.3985"/>
</g>
<!-- 548&#45;&gt;106 -->
<g id="edge116" class="edge">
<title>548&#45;&gt;106</title>
<path fill="none" stroke="#000000" d="M1058.1449,-156.9894C1080.7763,-152.8464 1114.4294,-147.1499 1144,-144 1444.9429,-111.943 1521.908,-126.2941 1824,-108 1904.9121,-103.1001 1999.7051,-96.4035 2050.805,-92.7147"/>
<polygon fill="#000000" stroke="#000000" points="2051.3041,-96.1878 2061.0253,-91.975 2050.7987,-89.2061 2051.3041,-96.1878"/>
</g>
<!-- 548&#45;&gt;284 -->
<g id="edge117" class="edge">
<title>548&#45;&gt;284</title>
<path fill="none" stroke="#000000" d="M1057.5657,-155.9309C1073.008,-152.3259 1093.1003,-147.7427 1111,-144 1194.7001,-126.499 1216.4297,-126.111 1300,-108 1312.72,-105.2434 1326.5991,-101.9453 1338.8653,-98.9298"/>
<polygon fill="#000000" stroke="#000000" points="1339.8665,-102.2875 1348.7286,-96.4812 1338.1799,-95.4937 1339.8665,-102.2875"/>
</g>
<!-- 548&#45;&gt;285 -->
<g id="edge119" class="edge">
<title>548&#45;&gt;285</title>
<path fill="none" stroke="#000000" d="M1057.4804,-155.4845C1072.8923,-151.7213 1092.9828,-147.1285 1111,-144 1242.8754,-121.1014 1281.807,-146.4969 1410,-108 1411.9073,-107.4272 1413.8362,-106.7589 1415.7581,-106.0233"/>
<polygon fill="#000000" stroke="#000000" points="1417.4099,-109.1215 1425.1784,-101.9173 1414.6128,-102.7046 1417.4099,-109.1215"/>
</g>
<!-- 548&#45;&gt;287 -->
<g id="edge122" class="edge">
<title>548&#45;&gt;287</title>
<path fill="none" stroke="#000000" d="M1057.455,-155.3332C1072.8579,-151.5163 1092.9479,-146.9202 1111,-144 1274.5374,-117.545 1322.797,-153.8122 1482,-108 1484.1279,-107.3877 1486.2806,-106.6512 1488.4193,-105.8306"/>
<polygon fill="#000000" stroke="#000000" points="1489.8283,-109.0345 1497.5865,-101.8191 1487.022,-102.6216 1489.8283,-109.0345"/>
</g>
<!-- 548&#45;&gt;436 -->
<g id="edge118" class="edge">
<title>548&#45;&gt;436</title>
<path fill="none" stroke="#000000" d="M1054.2623,-151.3319C1060.2591,-148.7061 1066.8034,-146.06 1073,-144 1140.1112,-121.6892 1161.467,-131.98 1228,-108 1229.8735,-107.3247 1231.7761,-106.5767 1233.678,-105.7806"/>
<polygon fill="#000000" stroke="#000000" points="1235.3964,-108.8438 1243.0446,-101.512 1232.4935,-102.4741 1235.3964,-108.8438"/>
</g>
<!-- 552 -->
<g id="node45" class="node">
<title>552</title>
<ellipse fill="none" stroke="#000000" cx="1048" cy="-90" rx="27" ry="18"/>
<text text-anchor="middle" x="1048" y="-85.8" font-family="Times,serif" font-size="14.00" fill="#000000">552</text>
</g>
<!-- 548&#45;&gt;552 -->
<g id="edge112" class="edge">
<title>548&#45;&gt;552</title>
<path fill="none" stroke="#000000" d="M1036.0375,-143.8314C1037.7941,-135.9266 1039.8917,-126.4872 1041.8363,-117.7365"/>
<polygon fill="#000000" stroke="#000000" points="1045.2665,-118.4346 1044.0192,-107.9134 1038.4332,-116.916 1045.2665,-118.4346"/>
</g>
<!-- 553 -->
<g id="node46" class="node">
<title>553</title>
<ellipse fill="none" stroke="#000000" cx="1120" cy="-90" rx="27" ry="18"/>
<text text-anchor="middle" x="1120" y="-85.8" font-family="Times,serif" font-size="14.00" fill="#000000">553</text>
</g>
<!-- 548&#45;&gt;553 -->
<g id="edge113" class="edge">
<title>548&#45;&gt;553</title>
<path fill="none" stroke="#000000" d="M1049.386,-147.7751C1062.2825,-137.2234 1080.0651,-122.674 1094.5585,-110.8157"/>
<polygon fill="#000000" stroke="#000000" points="1097.1269,-113.2366 1102.6501,-104.1953 1092.6942,-107.8189 1097.1269,-113.2366"/>
</g>
<!-- 554 -->
<g id="node47" class="node">
<title>554</title>
<ellipse fill="none" stroke="#000000" cx="1192" cy="-90" rx="27" ry="18"/>
<text text-anchor="middle" x="1192" y="-85.8" font-family="Times,serif" font-size="14.00" fill="#000000">554</text>
</g>
<!-- 548&#45;&gt;554 -->
<g id="edge120" class="edge">
<title>548&#45;&gt;554</title>
<path fill="none" stroke="#000000" d="M1054.5488,-152.0791C1060.5434,-149.4475 1067.015,-146.6117 1073,-144 1109.8533,-127.9181 1119.5599,-124.9974 1156,-108 1157.7573,-107.1803 1159.5567,-106.3268 1161.3683,-105.4565"/>
<polygon fill="#000000" stroke="#000000" points="1162.9458,-108.5812 1170.3908,-101.043 1159.8699,-102.2931 1162.9458,-108.5812"/>
</g>
<!-- 555 -->
<g id="node48" class="node">
<title>555</title>
<ellipse fill="none" stroke="#000000" cx="976" cy="-90" rx="27" ry="18"/>
<text text-anchor="middle" x="976" y="-85.8" font-family="Times,serif" font-size="14.00" fill="#000000">555</text>
</g>
<!-- 548&#45;&gt;555 -->
<g id="edge121" class="edge">
<title>548&#45;&gt;555</title>
<path fill="none" stroke="#000000" d="M1019.2927,-145.6621C1012.0612,-136.3644 1002.8664,-124.5426 994.8124,-114.1873"/>
<polygon fill="#000000" stroke="#000000" points="997.5592,-112.018 988.657,-106.2733 992.0337,-116.3156 997.5592,-112.018"/>
</g>
<!-- 556 -->
<g id="node49" class="node">
<title>556</title>
<ellipse fill="none" stroke="#000000" cx="828" cy="-90" rx="27" ry="18"/>
<text text-anchor="middle" x="828" y="-85.8" font-family="Times,serif" font-size="14.00" fill="#000000">556</text>
</g>
<!-- 548&#45;&gt;556 -->
<g id="edge123" class="edge">
<title>548&#45;&gt;556</title>
<path fill="none" stroke="#000000" d="M1007.7974,-153.4579C971.5265,-140.6564 902.942,-116.4501 861.7643,-101.9168"/>
<polygon fill="#000000" stroke="#000000" points="862.7659,-98.5588 852.1711,-98.531 860.4361,-105.1597 862.7659,-98.5588"/>
</g>
<!-- 557 -->
<g id="node50" class="node">
<title>557</title>
<ellipse fill="none" stroke="#000000" cx="512" cy="-90" rx="27" ry="18"/>
<text text-anchor="middle" x="512" y="-85.8" font-family="Times,serif" font-size="14.00" fill="#000000">557</text>
</g>
<!-- 548&#45;&gt;557 -->
<g id="edge124" class="edge">
<title>548&#45;&gt;557</title>
<path fill="none" stroke="#000000" d="M1006.5173,-155.4977C991.1046,-151.7392 971.0141,-147.1467 953,-144 804.2305,-118.0133 625.0663,-100.1899 549.0197,-93.2436"/>
<polygon fill="#000000" stroke="#000000" points="549.2622,-89.7514 538.9875,-92.3359 548.6314,-96.7229 549.2622,-89.7514"/>
</g>
<!-- 556&#45;&gt;100 -->
<g id="edge125" class="edge">
<title>556&#45;&gt;100</title>
<path fill="none" stroke="#000000" d="M854.1458,-84.9981C876.7778,-80.8605 910.4313,-75.1671 940,-72 1036.8054,-61.6311 1730.9467,-27.9381 1900.6425,-19.7874"/>
<polygon fill="#000000" stroke="#000000" points="1901.0052,-23.2741 1910.8259,-19.2987 1900.6696,-16.2821 1901.0052,-23.2741"/>
</g>
<!-- 556&#45;&gt;115 -->
<g id="edge129" class="edge">
<title>556&#45;&gt;115</title>
<path fill="none" stroke="#000000" d="M854.1311,-84.8543C876.7539,-80.6269 910.4021,-74.8823 940,-72 1397.669,-27.4308 1520.446,-111.7368 1974,-36 1982.4107,-34.5955 1991.2972,-32.3234 1999.5498,-29.8592"/>
<polygon fill="#000000" stroke="#000000" points="2000.7452,-33.1521 2009.2272,-26.8035 1998.6374,-26.477 2000.7452,-33.1521"/>
</g>
<!-- 556&#45;&gt;440 -->
<g id="edge132" class="edge">
<title>556&#45;&gt;440</title>
<path fill="none" stroke="#000000" d="M849.6556,-78.9072C855.7672,-76.2178 862.5204,-73.6463 869,-72 984.8865,-42.5572 1354.9837,-24.6291 1473.8583,-19.5183"/>
<polygon fill="#000000" stroke="#000000" points="1474.0788,-23.0122 1483.9211,-19.0906 1473.7815,-16.0185 1474.0788,-23.0122"/>
</g>
<!-- 558 -->
<g id="node51" class="node">
<title>558</title>
<ellipse fill="none" stroke="#000000" cx="963" cy="-18" rx="27" ry="18"/>
<text text-anchor="middle" x="963" y="-13.8" font-family="Times,serif" font-size="14.00" fill="#000000">558</text>
</g>
<!-- 556&#45;&gt;558 -->
<g id="edge126" class="edge">
<title>556&#45;&gt;558</title>
<path fill="none" stroke="#000000" d="M849.0938,-78.75C871.5496,-66.7735 907.2866,-47.7138 932.7401,-34.1386"/>
<polygon fill="#000000" stroke="#000000" points="934.4324,-37.2028 941.6088,-29.4086 931.1382,-31.0263 934.4324,-37.2028"/>
</g>
<!-- 559 -->
<g id="node52" class="node">
<title>559</title>
<ellipse fill="none" stroke="#000000" cx="1035" cy="-18" rx="27" ry="18"/>
<text text-anchor="middle" x="1035" y="-13.8" font-family="Times,serif" font-size="14.00" fill="#000000">559</text>
</g>
<!-- 556&#45;&gt;559 -->
<g id="edge127" class="edge">
<title>556&#45;&gt;559</title>
<path fill="none" stroke="#000000" d="M850.3226,-79.5073C856.3189,-76.8801 862.848,-74.1895 869,-72 925.4817,-51.8982 943.038,-57.5063 999,-36 1000.859,-35.2856 1002.7502,-34.5072 1004.6435,-33.6878"/>
<polygon fill="#000000" stroke="#000000" points="1006.386,-36.7379 1013.987,-29.3572 1003.4423,-30.3869 1006.386,-36.7379"/>
</g>
<!-- 560 -->
<g id="node53" class="node">
<title>560</title>
<ellipse fill="none" stroke="#000000" cx="1107" cy="-18" rx="27" ry="18"/>
<text text-anchor="middle" x="1107" y="-13.8" font-family="Times,serif" font-size="14.00" fill="#000000">560</text>
</g>
<!-- 556&#45;&gt;560 -->
<g id="edge128" class="edge">
<title>556&#45;&gt;560</title>
<path fill="none" stroke="#000000" d="M849.7654,-79.301C855.8775,-76.6131 862.6034,-73.9439 869,-72 956.2523,-45.4843 984.4372,-64.6867 1071,-36 1072.8904,-35.3735 1074.8061,-34.6635 1076.718,-33.8962"/>
<polygon fill="#000000" stroke="#000000" points="1078.4053,-36.9759 1086.1113,-29.7049 1075.553,-30.5834 1078.4053,-36.9759"/>
</g>
<!-- 561 -->
<g id="node54" class="node">
<title>561</title>
<ellipse fill="none" stroke="#000000" cx="819" cy="-18" rx="27" ry="18"/>
<text text-anchor="middle" x="819" y="-13.8" font-family="Times,serif" font-size="14.00" fill="#000000">561</text>
</g>
<!-- 556&#45;&gt;561 -->
<g id="edge130" class="edge">
<title>556&#45;&gt;561</title>
<path fill="none" stroke="#000000" d="M825.7289,-71.8314C824.7664,-64.131 823.6218,-54.9743 822.5521,-46.4166"/>
<polygon fill="#000000" stroke="#000000" points="826.0151,-45.9019 821.3017,-36.4133 819.0691,-46.7702 826.0151,-45.9019"/>
</g>
<!-- 562 -->
<g id="node55" class="node">
<title>562</title>
<ellipse fill="none" stroke="#000000" cx="891" cy="-18" rx="27" ry="18"/>
<text text-anchor="middle" x="891" y="-13.8" font-family="Times,serif" font-size="14.00" fill="#000000">562</text>
</g>
<!-- 556&#45;&gt;562 -->
<g id="edge131" class="edge">
<title>556&#45;&gt;562</title>
<path fill="none" stroke="#000000" d="M841.6701,-74.3771C850.1734,-64.659 861.2613,-51.987 870.7708,-41.1191"/>
<polygon fill="#000000" stroke="#000000" points="873.4056,-43.423 877.3566,-33.5924 868.1375,-38.8135 873.4056,-43.423"/>
</g>
<!-- 48 -->
<g id="node56" class="node">
<title>48</title>
<ellipse fill="none" stroke="#000000" cx="27" cy="-18" rx="27" ry="18"/>
<text text-anchor="middle" x="27" y="-13.8" font-family="Times,serif" font-size="14.00" fill="#000000">48</text>
</g>
<!-- 557&#45;&gt;48 -->
<g id="edge133" class="edge">
<title>557&#45;&gt;48</title>
<path fill="none" stroke="#000000" d="M491.5971,-78.1437C486.6361,-75.7314 481.2452,-73.4816 476,-72 298.6865,-21.9143 240.3135,-86.0857 63,-36 60.8691,-35.3981 58.7142,-34.6694 56.5739,-33.8546"/>
<polygon fill="#000000" stroke="#000000" points="57.9684,-30.6444 47.4029,-29.8563 55.1709,-37.0611 57.9684,-30.6444"/>
</g>
<!-- 49 -->
<g id="node57" class="node">
<title>49</title>
<ellipse fill="none" stroke="#000000" cx="99" cy="-18" rx="27" ry="18"/>
<text text-anchor="middle" x="99" y="-13.8" font-family="Times,serif" font-size="14.00" fill="#000000">49</text>
</g>
<!-- 557&#45;&gt;49 -->
<g id="edge134" class="edge">
<title>557&#45;&gt;49</title>
<path fill="none" stroke="#000000" d="M491.5771,-78.2129C486.617,-75.7978 481.2315,-73.5294 476,-72 329.7246,-29.2378 281.2754,-78.7622 135,-36 132.8747,-35.3787 130.724,-34.6354 128.5867,-33.8099"/>
<polygon fill="#000000" stroke="#000000" points="129.9863,-30.6019 119.4229,-29.7871 127.1725,-37.0115 129.9863,-30.6019"/>
</g>
<!-- 50 -->
<g id="node58" class="node">
<title>50</title>
<ellipse fill="none" stroke="#000000" cx="171" cy="-18" rx="27" ry="18"/>
<text text-anchor="middle" x="171" y="-13.8" font-family="Times,serif" font-size="14.00" fill="#000000">50</text>
</g>
<!-- 557&#45;&gt;50 -->
<g id="edge135" class="edge">
<title>557&#45;&gt;50</title>
<path fill="none" stroke="#000000" d="M491.1633,-78.1325C486.3111,-75.7816 481.0761,-73.561 476,-72 360.707,-36.5449 322.293,-71.4551 207,-36 205.0965,-35.4146 203.1706,-34.7365 201.2509,-33.9935"/>
<polygon fill="#000000" stroke="#000000" points="202.4007,-30.6761 191.8367,-29.8675 199.5907,-37.0873 202.4007,-30.6761"/>
</g>
<!-- 51 -->
<g id="node59" class="node">
<title>51</title>
<ellipse fill="none" stroke="#000000" cx="243" cy="-18" rx="27" ry="18"/>
<text text-anchor="middle" x="243" y="-13.8" font-family="Times,serif" font-size="14.00" fill="#000000">51</text>
</g>
<!-- 557&#45;&gt;51 -->
<g id="edge136" class="edge">
<title>557&#45;&gt;51</title>
<path fill="none" stroke="#000000" d="M491.1059,-78.3115C486.2567,-75.9512 481.0374,-73.6816 476,-72 391.5746,-43.8163 363.4254,-64.1837 279,-36 277.111,-35.3694 275.1964,-34.6561 273.2853,-33.8863"/>
<polygon fill="#000000" stroke="#000000" points="274.4519,-30.5741 263.8941,-29.6885 271.5953,-36.9647 274.4519,-30.5741"/>
</g>
<!-- 52 -->
<g id="node60" class="node">
<title>52</title>
<ellipse fill="none" stroke="#000000" cx="315" cy="-18" rx="27" ry="18"/>
<text text-anchor="middle" x="315" y="-13.8" font-family="Times,serif" font-size="14.00" fill="#000000">52</text>
</g>
<!-- 557&#45;&gt;52 -->
<g id="edge137" class="edge">
<title>557&#45;&gt;52</title>
<path fill="none" stroke="#000000" d="M490.9724,-78.6805C486.1301,-76.3011 480.9474,-73.9305 476,-72 422.1413,-50.9843 404.8587,-57.0157 351,-36 349.1447,-35.2761 347.2564,-34.4902 345.3653,-33.6653"/>
<polygon fill="#000000" stroke="#000000" points="346.5707,-30.3658 336.0276,-29.3195 343.617,-36.7122 346.5707,-30.3658"/>
</g>
<!-- 53 -->
<g id="node61" class="node">
<title>53</title>
<ellipse fill="none" stroke="#000000" cx="387" cy="-18" rx="27" ry="18"/>
<text text-anchor="middle" x="387" y="-13.8" font-family="Times,serif" font-size="14.00" fill="#000000">53</text>
</g>
<!-- 557&#45;&gt;53 -->
<g id="edge138" class="edge">
<title>557&#45;&gt;53</title>
<path fill="none" stroke="#000000" d="M491.3588,-78.1107C470.9124,-66.3336 439.4047,-48.1851 416.3572,-34.9097"/>
<polygon fill="#000000" stroke="#000000" points="418.0841,-31.8654 407.6719,-29.907 414.5903,-37.9311 418.0841,-31.8654"/>
</g>
<!-- 54 -->
<g id="node62" class="node">
<title>54</title>
<ellipse fill="none" stroke="#000000" cx="459" cy="-18" rx="27" ry="18"/>
<text text-anchor="middle" x="459" y="-13.8" font-family="Times,serif" font-size="14.00" fill="#000000">54</text>
</g>
<!-- 557&#45;&gt;54 -->
<g id="edge139" class="edge">
<title>557&#45;&gt;54</title>
<path fill="none" stroke="#000000" d="M499.9735,-73.6621C493.1971,-64.4564 484.5993,-52.7764 477.0313,-42.4953"/>
<polygon fill="#000000" stroke="#000000" points="479.7258,-40.2518 470.9789,-34.2733 474.0885,-44.4015 479.7258,-40.2518"/>
</g>
<!-- 55 -->
<g id="node63" class="node">
<title>55</title>
<ellipse fill="none" stroke="#000000" cx="531" cy="-18" rx="27" ry="18"/>
<text text-anchor="middle" x="531" y="-13.8" font-family="Times,serif" font-size="14.00" fill="#000000">55</text>
</g>
<!-- 557&#45;&gt;55 -->
<g id="edge140" class="edge">
<title>557&#45;&gt;55</title>
<path fill="none" stroke="#000000" d="M516.6966,-72.2022C518.7976,-64.2406 521.324,-54.6671 523.665,-45.7957"/>
<polygon fill="#000000" stroke="#000000" points="527.1241,-46.4046 526.2916,-35.8425 520.3558,-44.6185 527.1241,-46.4046"/>
</g>
<!-- 56 -->
<g id="node64" class="node">
<title>56</title>
<ellipse fill="none" stroke="#000000" cx="603" cy="-18" rx="27" ry="18"/>
<text text-anchor="middle" x="603" y="-13.8" font-family="Times,serif" font-size="14.00" fill="#000000">56</text>
</g>
<!-- 557&#45;&gt;56 -->
<g id="edge141" class="edge">
<title>557&#45;&gt;56</title>
<path fill="none" stroke="#000000" d="M529.5457,-76.1177C543.1419,-65.3602 562.1753,-50.3009 577.4604,-38.2072"/>
<polygon fill="#000000" stroke="#000000" points="579.8376,-40.7893 585.5081,-31.8397 575.4942,-35.2998 579.8376,-40.7893"/>
</g>
<!-- 57 -->
<g id="node65" class="node">
<title>57</title>
<ellipse fill="none" stroke="#000000" cx="675" cy="-18" rx="27" ry="18"/>
<text text-anchor="middle" x="675" y="-13.8" font-family="Times,serif" font-size="14.00" fill="#000000">57</text>
</g>
<!-- 557&#45;&gt;57 -->
<g id="edge142" class="edge">
<title>557&#45;&gt;57</title>
<path fill="none" stroke="#000000" d="M535.13,-80.6667C560.7285,-70.2214 603.1135,-52.5819 639,-36 640.7603,-35.1866 642.5619,-34.3381 644.3753,-33.4716"/>
<polygon fill="#000000" stroke="#000000" points="645.949,-36.5982 653.4027,-29.0687 642.8804,-30.3066 645.949,-36.5982"/>
</g>
<!-- 58 -->
<g id="node66" class="node">
<title>58</title>
<ellipse fill="none" stroke="#000000" cx="747" cy="-18" rx="27" ry="18"/>
<text text-anchor="middle" x="747" y="-13.8" font-family="Times,serif" font-size="14.00" fill="#000000">58</text>
</g>
<!-- 557&#45;&gt;58 -->
<g id="edge143" class="edge">
<title>557&#45;&gt;58</title>
<path fill="none" stroke="#000000" d="M537.963,-84.6873C576.4585,-76.4252 650.6254,-59.0229 711,-36 712.8608,-35.2904 714.7535,-34.5157 716.6478,-33.6992"/>
<polygon fill="#000000" stroke="#000000" points="718.3874,-36.7509 725.9943,-29.3762 715.4488,-30.3976 718.3874,-36.7509"/>
</g>
</g>
</svg>
