<?xml version="1.0" encoding="UTF-8" standalone="no"?>
<!DOCTYPE svg PUBLIC "-//W3C//DTD SVG 1.1//EN"
 "http://www.w3.org/Graphics/SVG/1.1/DTD/svg11.dtd">
<!-- Generated by graphviz version 2.40.1 (20161225.0304)
 -->
<!-- Pages: 1 -->
<svg width="3402pt" height="404pt"
 viewBox="0.00 0.00 3402.00 404.00" xmlns="http://www.w3.org/2000/svg" xmlns:xlink="http://www.w3.org/1999/xlink">
<g id="graph0" class="graph" transform="scale(1 1) rotate(0) translate(4 400)">
<polygon fill="#ffffff" stroke="transparent" points="-4,4 -4,-400 3398,-400 3398,4 -4,4"/>
<!-- 193 -->
<g id="node1" class="node">
<title>193</title>
<ellipse fill="none" stroke="#000000" cx="1885" cy="-378" rx="27" ry="18"/>
<text text-anchor="middle" x="1885" y="-373.8" font-family="Times,serif" font-size="14.00" fill="#000000">193</text>
</g>
<!-- 176 -->
<g id="node2" class="node">
<title>176</title>
<ellipse fill="none" stroke="#000000" cx="1435" cy="-90" rx="27" ry="18"/>
<text text-anchor="middle" x="1435" y="-85.8" font-family="Times,serif" font-size="14.00" fill="#000000">176</text>
</g>
<!-- 193&#45;&gt;176 -->
<g id="edge1" class="edge">
<title>193&#45;&gt;176</title>
<path fill="none" stroke="#000000" d="M1857.9515,-377.2714C1705.7667,-373.0735 961.6519,-351.209 922,-324 851.8674,-275.8752 798.8833,-206.1049 857,-144 898.2389,-99.9311 1340.7517,-123.8067 1399,-108 1401.1369,-107.4201 1403.2964,-106.708 1405.4402,-105.9053"/>
<polygon fill="#000000" stroke="#000000" points="1406.8302,-109.1174 1414.6188,-101.9349 1404.0511,-102.6927 1406.8302,-109.1174"/>
</g>
<!-- 194 -->
<g id="node3" class="node">
<title>194</title>
<ellipse fill="none" stroke="#000000" cx="127" cy="-162" rx="27" ry="18"/>
<text text-anchor="middle" x="127" y="-157.8" font-family="Times,serif" font-size="14.00" fill="#000000">194</text>
</g>
<!-- 193&#45;&gt;194 -->
<g id="edge2" class="edge">
<title>193&#45;&gt;194</title>
<path fill="none" stroke="#000000" d="M1857.9736,-377.7924C1669.3795,-376.2412 553.36,-365.3554 409,-324 305.5264,-294.3575 199.7824,-219.0289 152.5285,-182.4937"/>
<polygon fill="#000000" stroke="#000000" points="154.4346,-179.5413 144.3995,-176.143 150.125,-185.0575 154.4346,-179.5413"/>
</g>
<!-- 195 -->
<g id="node4" class="node">
<title>195</title>
<ellipse fill="none" stroke="#000000" cx="237" cy="-162" rx="27" ry="18"/>
<text text-anchor="middle" x="237" y="-157.8" font-family="Times,serif" font-size="14.00" fill="#000000">195</text>
</g>
<!-- 193&#45;&gt;195 -->
<g id="edge3" class="edge">
<title>193&#45;&gt;195</title>
<path fill="none" stroke="#000000" d="M1857.7761,-377.79C1674.9201,-376.2682 628.7509,-365.7748 494,-324 398.6359,-294.4357 303.7812,-220.0142 260.8267,-183.2405"/>
<polygon fill="#000000" stroke="#000000" points="263.0331,-180.5213 253.1821,-176.6217 258.4512,-185.8134 263.0331,-180.5213"/>
</g>
<!-- 196 -->
<g id="node5" class="node">
<title>196</title>
<ellipse fill="none" stroke="#000000" cx="347" cy="-162" rx="27" ry="18"/>
<text text-anchor="middle" x="347" y="-157.8" font-family="Times,serif" font-size="14.00" fill="#000000">196</text>
</g>
<!-- 193&#45;&gt;196 -->
<g id="edge4" class="edge">
<title>193&#45;&gt;196</title>
<path fill="none" stroke="#000000" d="M1857.8454,-377.8232C1681.0201,-376.5484 696.5953,-367.526 571,-324 486.3279,-294.6563 406.0067,-221.9365 368.7335,-184.7254"/>
<polygon fill="#000000" stroke="#000000" points="370.9658,-182.0049 361.4471,-177.3523 365.9868,-186.9253 370.9658,-182.0049"/>
</g>
<!-- 197 -->
<g id="node6" class="node">
<title>197</title>
<ellipse fill="none" stroke="#000000" cx="203" cy="-18" rx="27" ry="18"/>
<text text-anchor="middle" x="203" y="-13.8" font-family="Times,serif" font-size="14.00" fill="#000000">197</text>
</g>
<!-- 193&#45;&gt;197 -->
<g id="edge5" class="edge">
<title>193&#45;&gt;197</title>
<path fill="none" stroke="#000000" d="M1857.8364,-377.7739C1653.9076,-375.992 366.0956,-363.2367 198,-324 103.866,-302.0274 0,-330.6644 0,-234 0,-234 0,-234 0,-162 0,-116.8741 12.8191,-101.462 47,-72 81.0352,-42.6636 131.8927,-29.0064 166.2021,-22.8268"/>
<polygon fill="#000000" stroke="#000000" points="166.9965,-26.2426 176.2816,-21.1399 165.8411,-19.3386 166.9965,-26.2426"/>
</g>
<!-- 198 -->
<g id="node7" class="node">
<title>198</title>
<ellipse fill="none" stroke="#000000" cx="419" cy="-162" rx="27" ry="18"/>
<text text-anchor="middle" x="419" y="-157.8" font-family="Times,serif" font-size="14.00" fill="#000000">198</text>
</g>
<!-- 193&#45;&gt;198 -->
<g id="edge6" class="edge">
<title>193&#45;&gt;198</title>
<path fill="none" stroke="#000000" d="M1857.8553,-377.7244C1687.3798,-375.8733 767.9181,-364.0801 650,-324 563.1881,-294.4928 479.826,-221.5242 441.2823,-184.4275"/>
<polygon fill="#000000" stroke="#000000" points="443.3555,-181.5605 433.7526,-177.0845 438.4682,-186.572 443.3555,-181.5605"/>
</g>
<!-- 199 -->
<g id="node8" class="node">
<title>199</title>
<ellipse fill="none" stroke="#000000" cx="2979" cy="-306" rx="27" ry="18"/>
<text text-anchor="middle" x="2979" y="-301.8" font-family="Times,serif" font-size="14.00" fill="#000000">199</text>
</g>
<!-- 193&#45;&gt;199 -->
<g id="edge7" class="edge">
<title>193&#45;&gt;199</title>
<path fill="none" stroke="#000000" d="M1912.1045,-377.2818C2067.3792,-373.0791 2840.6726,-350.928 2943,-324 2944.9766,-323.4798 2946.9715,-322.8436 2948.9547,-322.1245"/>
<polygon fill="#000000" stroke="#000000" points="2950.8109,-325.1378 2958.6345,-317.9934 2948.0632,-318.6996 2950.8109,-325.1378"/>
</g>
<!-- 200 -->
<g id="node9" class="node">
<title>200</title>
<ellipse fill="none" stroke="#000000" cx="491" cy="-162" rx="27" ry="18"/>
<text text-anchor="middle" x="491" y="-157.8" font-family="Times,serif" font-size="14.00" fill="#000000">200</text>
</g>
<!-- 193&#45;&gt;200 -->
<g id="edge8" class="edge">
<title>193&#45;&gt;200</title>
<path fill="none" stroke="#000000" d="M1857.8371,-377.6032C1694.1025,-375.0953 841.9961,-360.3675 732,-324 642.0266,-294.2525 554.25,-220.8507 513.9513,-183.939"/>
<polygon fill="#000000" stroke="#000000" points="516.2511,-181.2984 506.538,-177.0669 511.4923,-186.432 516.2511,-181.2984"/>
</g>
<!-- 201 -->
<g id="node10" class="node">
<title>201</title>
<ellipse fill="none" stroke="#000000" cx="893" cy="-162" rx="27" ry="18"/>
<text text-anchor="middle" x="893" y="-157.8" font-family="Times,serif" font-size="14.00" fill="#000000">201</text>
</g>
<!-- 193&#45;&gt;201 -->
<g id="edge9" class="edge">
<title>193&#45;&gt;201</title>
<path fill="none" stroke="#000000" d="M1857.9044,-377.678C1714.7703,-375.8082 1050.1499,-364.9635 969,-324 931.8144,-305.2292 926.5665,-289.7694 909,-252 899.9367,-232.5131 895.9849,-208.4581 894.2729,-190.1211"/>
<polygon fill="#000000" stroke="#000000" points="897.7561,-189.7663 893.5021,-180.063 890.7765,-190.3013 897.7561,-189.7663"/>
</g>
<!-- 202 -->
<g id="node11" class="node">
<title>202</title>
<ellipse fill="none" stroke="#000000" cx="1005" cy="-306" rx="27" ry="18"/>
<text text-anchor="middle" x="1005" y="-301.8" font-family="Times,serif" font-size="14.00" fill="#000000">202</text>
</g>
<!-- 193&#45;&gt;202 -->
<g id="edge10" class="edge">
<title>193&#45;&gt;202</title>
<path fill="none" stroke="#000000" d="M1857.9445,-377.6517C1756.1526,-376.0286 1386.6803,-367.3159 1086,-324 1070.855,-321.8182 1054.3331,-318.3481 1040.1844,-315.0344"/>
<polygon fill="#000000" stroke="#000000" points="1040.8961,-311.6059 1030.3549,-312.6699 1039.2589,-318.4117 1040.8961,-311.6059"/>
</g>
<!-- 203 -->
<g id="node12" class="node">
<title>203</title>
<ellipse fill="none" stroke="#000000" cx="1507" cy="-90" rx="27" ry="18"/>
<text text-anchor="middle" x="1507" y="-85.8" font-family="Times,serif" font-size="14.00" fill="#000000">203</text>
</g>
<!-- 193&#45;&gt;203 -->
<g id="edge11" class="edge">
<title>193&#45;&gt;203</title>
<path fill="none" stroke="#000000" d="M1858.0106,-376.3916C1761.9376,-370.5038 1436.9467,-349.1513 1336,-324 1219.3388,-294.9334 1145.0194,-294.0581 1107,-180 1101.9404,-164.8211 1096.2575,-155.8574 1107,-144 1161.5745,-83.7618 1392.9071,-130.5502 1471,-108 1473.1273,-107.3857 1475.2796,-106.6477 1477.418,-105.826"/>
<polygon fill="#000000" stroke="#000000" points="1478.8281,-109.0295 1486.5844,-101.8121 1476.0202,-102.6173 1478.8281,-109.0295"/>
</g>
<!-- 204 -->
<g id="node13" class="node">
<title>204</title>
<ellipse fill="none" stroke="#000000" cx="1701" cy="-162" rx="27" ry="18"/>
<text text-anchor="middle" x="1701" y="-157.8" font-family="Times,serif" font-size="14.00" fill="#000000">204</text>
</g>
<!-- 193&#45;&gt;204 -->
<g id="edge12" class="edge">
<title>193&#45;&gt;204</title>
<path fill="none" stroke="#000000" d="M1871.47,-362.117C1839.4366,-324.5125 1758.8216,-229.8775 1721.0772,-185.5689"/>
<polygon fill="#000000" stroke="#000000" points="1723.6988,-183.2491 1714.5498,-177.9063 1718.3701,-187.7884 1723.6988,-183.2491"/>
</g>
<!-- 205 -->
<g id="node14" class="node">
<title>205</title>
<ellipse fill="none" stroke="#000000" cx="1999" cy="-90" rx="27" ry="18"/>
<text text-anchor="middle" x="1999" y="-85.8" font-family="Times,serif" font-size="14.00" fill="#000000">205</text>
</g>
<!-- 193&#45;&gt;205 -->
<g id="edge13" class="edge">
<title>193&#45;&gt;205</title>
<path fill="none" stroke="#000000" d="M1911.9724,-376.3913C1971.5597,-372.291 2118.4559,-359.168 2236,-324 2383.4759,-279.8767 2467.801,-309.5142 2551,-180 2559.6477,-166.5383 2561.9129,-155.7008 2551,-144 2511.8004,-101.9702 2090.4415,-123.1442 2035,-108 2032.864,-107.4165 2030.7053,-106.7017 2028.5621,-105.8971"/>
<polygon fill="#000000" stroke="#000000" points="2029.952,-102.6849 2019.3846,-101.9222 2027.1699,-109.1083 2029.952,-102.6849"/>
</g>
<!-- 206 -->
<g id="node15" class="node">
<title>206</title>
<ellipse fill="none" stroke="#000000" cx="2755" cy="-162" rx="27" ry="18"/>
<text text-anchor="middle" x="2755" y="-157.8" font-family="Times,serif" font-size="14.00" fill="#000000">206</text>
</g>
<!-- 193&#45;&gt;206 -->
<g id="edge14" class="edge">
<title>193&#45;&gt;206</title>
<path fill="none" stroke="#000000" d="M1912.3638,-377.1166C2052.2874,-372.4868 2682.4715,-350.2333 2714,-324 2753.1749,-291.4045 2757.8924,-227.2664 2756.9952,-190.22"/>
<polygon fill="#000000" stroke="#000000" points="2760.4874,-189.9507 2756.5931,-180.0976 2753.4929,-190.2286 2760.4874,-189.9507"/>
</g>
<!-- 207 -->
<g id="node16" class="node">
<title>207</title>
<ellipse fill="none" stroke="#000000" cx="1849" cy="-162" rx="27" ry="18"/>
<text text-anchor="middle" x="1849" y="-157.8" font-family="Times,serif" font-size="14.00" fill="#000000">207</text>
</g>
<!-- 193&#45;&gt;207 -->
<g id="edge15" class="edge">
<title>193&#45;&gt;207</title>
<path fill="none" stroke="#000000" d="M1881.9926,-359.9555C1875.7191,-322.3144 1861.1978,-235.1867 1853.6874,-190.1246"/>
<polygon fill="#000000" stroke="#000000" points="1857.1206,-189.4336 1852.0242,-180.1451 1850.2159,-190.5844 1857.1206,-189.4336"/>
</g>
<!-- 208 -->
<g id="node17" class="node">
<title>208</title>
<ellipse fill="none" stroke="#000000" cx="783" cy="-162" rx="27" ry="18"/>
<text text-anchor="middle" x="783" y="-157.8" font-family="Times,serif" font-size="14.00" fill="#000000">208</text>
</g>
<!-- 193&#45;&gt;208 -->
<g id="edge16" class="edge">
<title>193&#45;&gt;208</title>
<path fill="none" stroke="#000000" d="M1857.9484,-377.5437C1696.0479,-374.6996 860.9616,-358.3936 820,-324 781.1901,-291.4131 778.2199,-227.2718 780.178,-190.2226"/>
<polygon fill="#000000" stroke="#000000" points="783.6798,-190.3153 780.8722,-180.0993 776.6962,-189.8364 783.6798,-190.3153"/>
</g>
<!-- 209 -->
<g id="node18" class="node">
<title>209</title>
<ellipse fill="none" stroke="#000000" cx="2827" cy="-162" rx="27" ry="18"/>
<text text-anchor="middle" x="2827" y="-157.8" font-family="Times,serif" font-size="14.00" fill="#000000">209</text>
</g>
<!-- 193&#45;&gt;209 -->
<g id="edge17" class="edge">
<title>193&#45;&gt;209</title>
<path fill="none" stroke="#000000" d="M1912.2737,-377.8449C2050.5018,-376.852 2669.9091,-369.8566 2741,-324 2747.3414,-319.9095 2791.4578,-233.027 2813.9202,-188.2245"/>
<polygon fill="#000000" stroke="#000000" points="2817.1455,-189.6003 2818.4916,-179.0913 2810.8858,-186.4671 2817.1455,-189.6003"/>
</g>
<!-- 210 -->
<g id="node19" class="node">
<title>210</title>
<ellipse fill="none" stroke="#000000" cx="1921" cy="-162" rx="27" ry="18"/>
<text text-anchor="middle" x="1921" y="-157.8" font-family="Times,serif" font-size="14.00" fill="#000000">210</text>
</g>
<!-- 193&#45;&gt;210 -->
<g id="edge18" class="edge">
<title>193&#45;&gt;210</title>
<path fill="none" stroke="#000000" d="M1888.0074,-359.9555C1894.2809,-322.3144 1908.8022,-235.1867 1916.3126,-190.1246"/>
<polygon fill="#000000" stroke="#000000" points="1919.7841,-190.5844 1917.9758,-180.1451 1912.8794,-189.4336 1919.7841,-190.5844"/>
</g>
<!-- 211 -->
<g id="node20" class="node">
<title>211</title>
<ellipse fill="none" stroke="#000000" cx="639" cy="-162" rx="27" ry="18"/>
<text text-anchor="middle" x="639" y="-157.8" font-family="Times,serif" font-size="14.00" fill="#000000">211</text>
</g>
<!-- 193&#45;&gt;211 -->
<g id="edge19" class="edge">
<title>193&#45;&gt;211</title>
<path fill="none" stroke="#000000" d="M1857.7912,-377.8763C1698.4131,-376.9914 889.5246,-370.2358 790,-324 726.8353,-294.6558 677.455,-225.7246 653.9785,-187.9238"/>
<polygon fill="#000000" stroke="#000000" points="656.7578,-185.7576 648.5753,-179.0272 650.7748,-189.3912 656.7578,-185.7576"/>
</g>
<!-- 212 -->
<g id="node21" class="node">
<title>212</title>
<ellipse fill="none" stroke="#000000" cx="1993" cy="-162" rx="27" ry="18"/>
<text text-anchor="middle" x="1993" y="-157.8" font-family="Times,serif" font-size="14.00" fill="#000000">212</text>
</g>
<!-- 193&#45;&gt;212 -->
<g id="edge20" class="edge">
<title>193&#45;&gt;212</title>
<path fill="none" stroke="#000000" d="M1893.6555,-360.6889C1912.5419,-322.9162 1957.5443,-232.9114 1979.9139,-188.1723"/>
<polygon fill="#000000" stroke="#000000" points="1983.1115,-189.6032 1984.4532,-179.0937 1976.8505,-186.4727 1983.1115,-189.6032"/>
</g>
<!-- 213 -->
<g id="node22" class="node">
<title>213</title>
<ellipse fill="none" stroke="#000000" cx="1579" cy="-90" rx="27" ry="18"/>
<text text-anchor="middle" x="1579" y="-85.8" font-family="Times,serif" font-size="14.00" fill="#000000">213</text>
</g>
<!-- 193&#45;&gt;213 -->
<g id="edge21" class="edge">
<title>193&#45;&gt;213</title>
<path fill="none" stroke="#000000" d="M1857.9979,-375.5076C1732.5992,-363.3106 1209.3533,-305.3585 1119,-180 1109.6446,-167.0201 1108.1754,-155.7826 1119,-144 1182.974,-74.3641 1451.9707,-133.6027 1543,-108 1545.1315,-107.4005 1547.2869,-106.6736 1549.4277,-105.8601"/>
<polygon fill="#000000" stroke="#000000" points="1550.8293,-109.0673 1558.5995,-101.8649 1548.0337,-102.6497 1550.8293,-109.0673"/>
</g>
<!-- 214 -->
<g id="node23" class="node">
<title>214</title>
<ellipse fill="none" stroke="#000000" cx="2071" cy="-90" rx="27" ry="18"/>
<text text-anchor="middle" x="2071" y="-85.8" font-family="Times,serif" font-size="14.00" fill="#000000">214</text>
</g>
<!-- 193&#45;&gt;214 -->
<g id="edge22" class="edge">
<title>193&#45;&gt;214</title>
<path fill="none" stroke="#000000" d="M1912.1698,-377.7454C2039.3838,-376.3274 2572.4418,-367.7945 2631,-324 2685.2538,-283.4247 2670.5678,-246.9402 2681,-180 2683.4637,-164.1908 2691.9539,-155.6624 2681,-144 2637.2508,-97.4209 2168.7034,-124.6222 2107,-108 2105.0265,-107.4683 2103.0339,-106.8232 2101.0525,-106.0974"/>
<polygon fill="#000000" stroke="#000000" points="2101.9475,-102.673 2091.3774,-101.949 2099.1889,-109.1066 2101.9475,-102.673"/>
</g>
<!-- 215 -->
<g id="node24" class="node">
<title>215</title>
<ellipse fill="none" stroke="#000000" cx="2065" cy="-162" rx="27" ry="18"/>
<text text-anchor="middle" x="2065" y="-157.8" font-family="Times,serif" font-size="14.00" fill="#000000">215</text>
</g>
<!-- 193&#45;&gt;215 -->
<g id="edge23" class="edge">
<title>193&#45;&gt;215</title>
<path fill="none" stroke="#000000" d="M1899.7371,-362.6686C1909.8558,-352.0014 1923.4856,-337.3529 1935,-324 1976.0736,-276.3682 2021.5229,-218.4434 2046.32,-186.3605"/>
<polygon fill="#000000" stroke="#000000" points="2049.1203,-188.4607 2052.4552,-178.4044 2043.577,-184.1861 2049.1203,-188.4607"/>
</g>
<!-- 216 -->
<g id="node25" class="node">
<title>216</title>
<ellipse fill="none" stroke="#000000" cx="2645" cy="-162" rx="27" ry="18"/>
<text text-anchor="middle" x="2645" y="-157.8" font-family="Times,serif" font-size="14.00" fill="#000000">216</text>
</g>
<!-- 193&#45;&gt;216 -->
<g id="edge24" class="edge">
<title>193&#45;&gt;216</title>
<path fill="none" stroke="#000000" d="M1912.1191,-377.8055C2036.678,-376.6693 2550.1573,-369.2535 2604,-324 2643.0128,-291.2107 2647.7907,-227.1447 2646.9473,-190.1627"/>
<polygon fill="#000000" stroke="#000000" points="2650.4406,-189.9177 2646.5608,-180.0589 2643.4457,-190.1854 2650.4406,-189.9177"/>
</g>
<!-- 217 -->
<g id="node26" class="node">
<title>217</title>
<ellipse fill="none" stroke="#000000" cx="2137" cy="-162" rx="27" ry="18"/>
<text text-anchor="middle" x="2137" y="-157.8" font-family="Times,serif" font-size="14.00" fill="#000000">217</text>
</g>
<!-- 193&#45;&gt;217 -->
<g id="edge25" class="edge">
<title>193&#45;&gt;217</title>
<path fill="none" stroke="#000000" d="M1904.7941,-365.4364C1920.907,-354.9428 1944.0096,-339.2823 1963,-324 2020.4538,-277.7649 2082.4695,-217.1533 2114.6912,-184.7563"/>
<polygon fill="#000000" stroke="#000000" points="2117.2978,-187.0983 2121.8486,-177.5306 2112.3245,-182.1721 2117.2978,-187.0983"/>
</g>
<!-- 218 -->
<g id="node27" class="node">
<title>218</title>
<ellipse fill="none" stroke="#000000" cx="2209" cy="-162" rx="27" ry="18"/>
<text text-anchor="middle" x="2209" y="-157.8" font-family="Times,serif" font-size="14.00" fill="#000000">218</text>
</g>
<!-- 193&#45;&gt;218 -->
<g id="edge26" class="edge">
<title>193&#45;&gt;218</title>
<path fill="none" stroke="#000000" d="M1908.2319,-368.3066C1931.1875,-358.3607 1966.9778,-341.8537 1996,-324 2068.2901,-279.5289 2145.8739,-216.0314 2184.3835,-183.3086"/>
<polygon fill="#000000" stroke="#000000" points="2187.1012,-185.5902 2192.4312,-176.4337 2182.5545,-180.2678 2187.1012,-185.5902"/>
</g>
<!-- 219 -->
<g id="node28" class="node">
<title>219</title>
<ellipse fill="none" stroke="#000000" cx="2281" cy="-162" rx="27" ry="18"/>
<text text-anchor="middle" x="2281" y="-157.8" font-family="Times,serif" font-size="14.00" fill="#000000">219</text>
</g>
<!-- 193&#45;&gt;219 -->
<g id="edge27" class="edge">
<title>193&#45;&gt;219</title>
<path fill="none" stroke="#000000" d="M1910.0727,-371.0597C1940.6621,-362.1387 1993.5462,-345.2368 2036,-324 2121.0812,-281.4395 2212.2721,-214.8751 2255.4819,-181.8964"/>
<polygon fill="#000000" stroke="#000000" points="2257.6672,-184.6312 2263.4681,-175.7655 2253.4046,-179.0787 2257.6672,-184.6312"/>
</g>
<!-- 220 -->
<g id="node29" class="node">
<title>220</title>
<ellipse fill="none" stroke="#000000" cx="2899" cy="-162" rx="27" ry="18"/>
<text text-anchor="middle" x="2899" y="-157.8" font-family="Times,serif" font-size="14.00" fill="#000000">220</text>
</g>
<!-- 193&#45;&gt;220 -->
<g id="edge28" class="edge">
<title>193&#45;&gt;220</title>
<path fill="none" stroke="#000000" d="M1912.4064,-377.6086C2052.7535,-375.433 2687.4035,-363.4651 2765,-324 2780.5552,-316.0887 2847.656,-229.5835 2880.6045,-186.3302"/>
<polygon fill="#000000" stroke="#000000" points="2883.449,-188.3717 2886.7134,-178.2923 2877.8759,-184.136 2883.449,-188.3717"/>
</g>
<!-- 221 -->
<g id="node30" class="node">
<title>221</title>
<ellipse fill="none" stroke="#000000" cx="2907" cy="-306" rx="27" ry="18"/>
<text text-anchor="middle" x="2907" y="-301.8" font-family="Times,serif" font-size="14.00" fill="#000000">221</text>
</g>
<!-- 193&#45;&gt;221 -->
<g id="edge29" class="edge">
<title>193&#45;&gt;221</title>
<path fill="none" stroke="#000000" d="M1912.3551,-377.0509C2047.4317,-372.2703 2644.1216,-350.0274 2828,-324 2842.5395,-321.942 2858.3575,-318.5693 2871.9936,-315.2964"/>
<polygon fill="#000000" stroke="#000000" points="2873.0717,-318.6353 2881.9387,-312.8364 2871.3908,-311.8401 2873.0717,-318.6353"/>
</g>
<!-- 222 -->
<g id="node31" class="node">
<title>222</title>
<ellipse fill="none" stroke="#000000" cx="93" cy="-90" rx="27" ry="18"/>
<text text-anchor="middle" x="93" y="-85.8" font-family="Times,serif" font-size="14.00" fill="#000000">222</text>
</g>
<!-- 193&#45;&gt;222 -->
<g id="edge30" class="edge">
<title>193&#45;&gt;222</title>
<path fill="none" stroke="#000000" d="M1857.867,-377.8724C1662.2366,-376.8465 470.5428,-368.7827 317,-324 202.6628,-290.6521 146.2756,-285.4973 91,-180 81.0095,-160.9324 82.3482,-136.3302 85.7173,-117.6683"/>
<polygon fill="#000000" stroke="#000000" points="89.1766,-118.2249 87.8018,-107.7196 82.3254,-116.7893 89.1766,-118.2249"/>
</g>
<!-- 223 -->
<g id="node32" class="node">
<title>223</title>
<ellipse fill="none" stroke="#000000" cx="2353" cy="-162" rx="27" ry="18"/>
<text text-anchor="middle" x="2353" y="-157.8" font-family="Times,serif" font-size="14.00" fill="#000000">223</text>
</g>
<!-- 193&#45;&gt;223 -->
<g id="edge31" class="edge">
<title>193&#45;&gt;223</title>
<path fill="none" stroke="#000000" d="M1911.2925,-373.0382C1949.4613,-365.3231 2021.9926,-348.7206 2080,-324 2175.6981,-283.217 2278.6882,-214.5057 2326.1931,-181.2206"/>
<polygon fill="#000000" stroke="#000000" points="2328.2469,-184.0551 2334.4034,-175.4326 2324.2135,-178.3339 2328.2469,-184.0551"/>
</g>
<!-- 224 -->
<g id="node33" class="node">
<title>224</title>
<ellipse fill="none" stroke="#000000" cx="1155" cy="-162" rx="27" ry="18"/>
<text text-anchor="middle" x="1155" y="-157.8" font-family="Times,serif" font-size="14.00" fill="#000000">224</text>
</g>
<!-- 193&#45;&gt;224 -->
<g id="edge32" class="edge">
<title>193&#45;&gt;224</title>
<path fill="none" stroke="#000000" d="M1860.2933,-370.6895C1751.6457,-338.5417 1316.1347,-209.6782 1189.6234,-172.2447"/>
<polygon fill="#000000" stroke="#000000" points="1190.2827,-168.7899 1179.7006,-169.3087 1188.2965,-175.5022 1190.2827,-168.7899"/>
</g>
<!-- 225 -->
<g id="node34" class="node">
<title>225</title>
<ellipse fill="none" stroke="#000000" cx="2425" cy="-162" rx="27" ry="18"/>
<text text-anchor="middle" x="2425" y="-157.8" font-family="Times,serif" font-size="14.00" fill="#000000">225</text>
</g>
<!-- 193&#45;&gt;225 -->
<g id="edge33" class="edge">
<title>193&#45;&gt;225</title>
<path fill="none" stroke="#000000" d="M1911.8086,-374.6191C1957.6403,-368.2879 2053.515,-352.6271 2130,-324 2192.5863,-300.5749 2203.4158,-284.1508 2262,-252 2308.5557,-226.4504 2362.4854,-196.629 2395.1523,-178.5404"/>
<polygon fill="#000000" stroke="#000000" points="2397.125,-181.4489 2404.1771,-173.542 2393.7334,-175.3253 2397.125,-181.4489"/>
</g>
<!-- 226 -->
<g id="node35" class="node">
<title>226</title>
<ellipse fill="none" stroke="#000000" cx="2497" cy="-162" rx="27" ry="18"/>
<text text-anchor="middle" x="2497" y="-157.8" font-family="Times,serif" font-size="14.00" fill="#000000">226</text>
</g>
<!-- 193&#45;&gt;226 -->
<g id="edge34" class="edge">
<title>193&#45;&gt;226</title>
<path fill="none" stroke="#000000" d="M1912.1024,-375.6978C1964.8688,-370.6406 2084.5821,-356.3362 2180,-324 2292.6042,-285.8395 2414.9781,-213.5528 2468.8539,-179.9765"/>
<polygon fill="#000000" stroke="#000000" points="2470.89,-182.8309 2477.5013,-174.5519 2467.1702,-176.901 2470.89,-182.8309"/>
</g>
<!-- 202&#45;&gt;176 -->
<g id="edge35" class="edge">
<title>202&#45;&gt;176</title>
<path fill="none" stroke="#000000" d="M992.038,-290.0916C984.579,-279.8814 975.9281,-265.9607 972,-252 958.9993,-205.7941 939.5159,-179.3381 972,-144 1036.4442,-73.894 1307.3236,-133.7554 1399,-108 1401.1317,-107.4011 1403.2873,-106.6747 1405.4281,-105.8615"/>
<polygon fill="#000000" stroke="#000000" points="1406.8293,-109.0689 1414.6001,-101.8671 1404.0343,-102.6511 1406.8293,-109.0689"/>
</g>
<!-- 202&#45;&gt;197 -->
<g id="edge36" class="edge">
<title>202&#45;&gt;197</title>
<path fill="none" stroke="#000000" d="M977.787,-304.221C853.5024,-295.7256 339.9257,-256.4979 201,-180 180.6208,-168.7784 182.9195,-156.0187 163,-144 120.3997,-118.2965 85.9775,-148.4445 57,-108 47.6813,-94.9937 47.8568,-85.1302 57,-72 69.9363,-53.4226 128.4664,-36.034 167.376,-26.2341"/>
<polygon fill="#000000" stroke="#000000" points="168.4172,-29.5824 177.2906,-23.7933 166.7438,-22.7853 168.4172,-29.5824"/>
</g>
<!-- 202&#45;&gt;201 -->
<g id="edge37" class="edge">
<title>202&#45;&gt;201</title>
<path fill="none" stroke="#000000" d="M984.4353,-294.2428C968.9316,-284.5387 948.0151,-269.5449 934,-252 919.1027,-233.3507 908.2946,-208.4163 901.5276,-189.5222"/>
<polygon fill="#000000" stroke="#000000" points="904.8164,-188.3225 898.2703,-179.9919 898.1926,-190.5864 904.8164,-188.3225"/>
</g>
<!-- 202&#45;&gt;203 -->
<g id="edge39" class="edge">
<title>202&#45;&gt;203</title>
<path fill="none" stroke="#000000" d="M998.8689,-288.2767C988.6242,-255.0433 972.6107,-183.1923 1010,-144 1045.4647,-106.8251 1421.4941,-121.7433 1471,-108 1473.1335,-107.4077 1475.2905,-106.6863 1477.4323,-105.8767"/>
<polygon fill="#000000" stroke="#000000" points="1478.8297,-109.0857 1486.6067,-101.8906 1476.0402,-102.6655 1478.8297,-109.0857"/>
</g>
<!-- 202&#45;&gt;205 -->
<g id="edge40" class="edge">
<title>202&#45;&gt;205</title>
<path fill="none" stroke="#000000" d="M1032.0208,-305.9177C1228.0253,-305.0483 2427.064,-295.0311 2533,-180 2543.8389,-168.2306 2543.8982,-155.7145 2533,-144 2495.212,-103.3817 2088.4987,-122.6856 2035,-108 2032.8648,-107.4139 2030.7065,-106.6971 2028.5638,-105.8909"/>
<polygon fill="#000000" stroke="#000000" points="2029.9544,-102.679 2019.3873,-101.9126 2027.17,-109.1015 2029.9544,-102.679"/>
</g>
<!-- 202&#45;&gt;213 -->
<g id="edge41" class="edge">
<title>202&#45;&gt;213</title>
<path fill="none" stroke="#000000" d="M1008.0495,-288.0942C1014.978,-253.5434 1035.4083,-178.0854 1086,-144 1170.4845,-87.0798 1444.8513,-135.2829 1543,-108 1545.1333,-107.407 1547.2901,-106.685 1549.4319,-105.875"/>
<polygon fill="#000000" stroke="#000000" points="1550.8296,-109.0839 1558.6059,-101.8881 1548.0396,-102.6639 1550.8296,-109.0839"/>
</g>
<!-- 202&#45;&gt;222 -->
<g id="edge42" class="edge">
<title>202&#45;&gt;222</title>
<path fill="none" stroke="#000000" d="M978.6974,-301.6574C855.6791,-281.2922 341.7561,-195.584 311,-180 290.2475,-169.4848 293.3503,-155.2739 273,-144 217.1776,-113.075 194.2988,-128.8938 134,-108 130.9149,-106.931 127.7386,-105.7283 124.584,-104.4645"/>
<polygon fill="#000000" stroke="#000000" points="125.8732,-101.2098 115.2981,-100.5625 123.1614,-107.6632 125.8732,-101.2098"/>
</g>
<!-- 202&#45;&gt;224 -->
<g id="edge43" class="edge">
<title>202&#45;&gt;224</title>
<path fill="none" stroke="#000000" d="M1020.4877,-291.1318C1046.9856,-265.6938 1101.1445,-213.7013 1132.0473,-184.0346"/>
<polygon fill="#000000" stroke="#000000" points="1134.5818,-186.4532 1139.3719,-177.003 1129.7341,-181.4035 1134.5818,-186.4532"/>
</g>
<!-- 401 -->
<g id="node36" class="node">
<title>401</title>
<ellipse fill="none" stroke="#000000" cx="1602" cy="-234" rx="27" ry="18"/>
<text text-anchor="middle" x="1602" y="-229.8" font-family="Times,serif" font-size="14.00" fill="#000000">401</text>
</g>
<!-- 202&#45;&gt;401 -->
<g id="edge38" class="edge">
<title>202&#45;&gt;401</title>
<path fill="none" stroke="#000000" d="M1031.8116,-302.7664C1127.8626,-291.1824 1454.8959,-251.7412 1565.2721,-238.4295"/>
<polygon fill="#000000" stroke="#000000" points="1565.7533,-241.8969 1575.2622,-237.2247 1564.9151,-234.9473 1565.7533,-241.8969"/>
</g>
<!-- 204&#45;&gt;176 -->
<g id="edge44" class="edge">
<title>204&#45;&gt;176</title>
<path fill="none" stroke="#000000" d="M1680.1025,-150.3217C1675.2534,-147.9609 1670.0351,-145.6885 1665,-144 1581.8564,-116.1179 1554.1436,-135.8821 1471,-108 1469.1118,-107.3668 1467.1979,-106.6515 1465.2874,-105.8802"/>
<polygon fill="#000000" stroke="#000000" points="1466.4549,-102.5683 1455.8975,-101.6783 1463.5957,-108.9577 1466.4549,-102.5683"/>
</g>
<!-- 204&#45;&gt;203 -->
<g id="edge47" class="edge">
<title>204&#45;&gt;203</title>
<path fill="none" stroke="#000000" d="M1679.963,-150.7044C1675.1212,-148.3238 1669.941,-145.9466 1665,-144 1612.4011,-123.2779 1595.5989,-128.7221 1543,-108 1541.1471,-107.27 1539.2606,-106.4795 1537.3709,-105.6509"/>
<polygon fill="#000000" stroke="#000000" points="1538.579,-102.3524 1528.037,-101.2956 1535.619,-108.6958 1538.579,-102.3524"/>
</g>
<!-- 204&#45;&gt;213 -->
<g id="edge49" class="edge">
<title>204&#45;&gt;213</title>
<path fill="none" stroke="#000000" d="M1680.5799,-149.9488C1660.7865,-138.2675 1630.5607,-120.4293 1608.2226,-107.2461"/>
<polygon fill="#000000" stroke="#000000" points="1609.8777,-104.1589 1599.4867,-102.0905 1606.3199,-110.1873 1609.8777,-104.1589"/>
</g>
<!-- 230 -->
<g id="node37" class="node">
<title>230</title>
<ellipse fill="none" stroke="#000000" cx="1898" cy="-90" rx="27" ry="18"/>
<text text-anchor="middle" x="1898" y="-85.8" font-family="Times,serif" font-size="14.00" fill="#000000">230</text>
</g>
<!-- 204&#45;&gt;230 -->
<g id="edge45" class="edge">
<title>204&#45;&gt;230</title>
<path fill="none" stroke="#000000" d="M1723.4203,-151.7686C1729.4158,-149.1394 1735.9201,-146.3824 1742,-144 1783.4151,-127.7712 1831.9518,-111.3723 1863.7527,-100.9745"/>
<polygon fill="#000000" stroke="#000000" points="1865.0323,-104.2389 1873.4593,-97.8173 1862.8671,-97.5821 1865.0323,-104.2389"/>
</g>
<!-- 179 -->
<g id="node38" class="node">
<title>179</title>
<ellipse fill="none" stroke="#000000" cx="1363" cy="-18" rx="27" ry="18"/>
<text text-anchor="middle" x="1363" y="-13.8" font-family="Times,serif" font-size="14.00" fill="#000000">179</text>
</g>
<!-- 204&#45;&gt;179 -->
<g id="edge46" class="edge">
<title>204&#45;&gt;179</title>
<path fill="none" stroke="#000000" d="M1719.9319,-148.9683C1744.2185,-130.7012 1780.7586,-96.927 1759,-72 1735.5495,-45.1346 1494.3951,-26.5942 1400.3072,-20.3328"/>
<polygon fill="#000000" stroke="#000000" points="1400.3127,-16.8257 1390.1051,-19.6638 1399.8546,-23.8107 1400.3127,-16.8257"/>
</g>
<!-- 402 -->
<g id="node39" class="node">
<title>402</title>
<ellipse fill="none" stroke="#000000" cx="1651" cy="-90" rx="27" ry="18"/>
<text text-anchor="middle" x="1651" y="-85.8" font-family="Times,serif" font-size="14.00" fill="#000000">402</text>
</g>
<!-- 204&#45;&gt;402 -->
<g id="edge48" class="edge">
<title>204&#45;&gt;402</title>
<path fill="none" stroke="#000000" d="M1689.6542,-145.6621C1683.4145,-136.6768 1675.5377,-125.3343 1668.5251,-115.2362"/>
<polygon fill="#000000" stroke="#000000" points="1671.2267,-112.9902 1662.6479,-106.7729 1665.4771,-116.983 1671.2267,-112.9902"/>
</g>
<!-- 403 -->
<g id="node40" class="node">
<title>403</title>
<ellipse fill="none" stroke="#000000" cx="2287" cy="-90" rx="27" ry="18"/>
<text text-anchor="middle" x="2287" y="-85.8" font-family="Times,serif" font-size="14.00" fill="#000000">403</text>
</g>
<!-- 204&#45;&gt;403 -->
<g id="edge50" class="edge">
<title>204&#45;&gt;403</title>
<path fill="none" stroke="#000000" d="M1727.1696,-157.2065C1749.8165,-153.1992 1783.4784,-147.58 1813,-144 2006.9025,-120.4857 2062.9013,-160.6309 2251,-108 2253.1323,-107.4034 2255.2884,-106.6786 2257.4295,-105.8667"/>
<polygon fill="#000000" stroke="#000000" points="2258.8294,-109.0746 2266.6023,-101.8751 2256.0363,-102.656 2258.8294,-109.0746"/>
</g>
<!-- 404 -->
<g id="node41" class="node">
<title>404</title>
<ellipse fill="none" stroke="#000000" cx="1723" cy="-90" rx="27" ry="18"/>
<text text-anchor="middle" x="1723" y="-85.8" font-family="Times,serif" font-size="14.00" fill="#000000">404</text>
</g>
<!-- 204&#45;&gt;404 -->
<g id="edge51" class="edge">
<title>204&#45;&gt;404</title>
<path fill="none" stroke="#000000" d="M1706.4382,-144.2022C1708.8974,-136.1541 1711.8598,-126.4588 1714.5952,-117.5067"/>
<polygon fill="#000000" stroke="#000000" points="1717.9731,-118.4289 1717.5481,-107.8425 1711.2786,-116.3833 1717.9731,-118.4289"/>
</g>
<!-- 405 -->
<g id="node42" class="node">
<title>405</title>
<ellipse fill="none" stroke="#000000" cx="2215" cy="-90" rx="27" ry="18"/>
<text text-anchor="middle" x="2215" y="-85.8" font-family="Times,serif" font-size="14.00" fill="#000000">405</text>
</g>
<!-- 204&#45;&gt;405 -->
<g id="edge52" class="edge">
<title>204&#45;&gt;405</title>
<path fill="none" stroke="#000000" d="M1727.1846,-157.3259C1749.8408,-153.3933 1783.5081,-147.8167 1813,-144 1975.0999,-123.022 2021.9522,-153.3037 2179,-108 2181.1275,-107.3863 2183.2799,-106.6487 2185.4184,-105.8274"/>
<polygon fill="#000000" stroke="#000000" points="2186.8282,-109.0309 2194.585,-101.8141 2184.0208,-102.6185 2186.8282,-109.0309"/>
</g>
<!-- 206&#45;&gt;230 -->
<g id="edge55" class="edge">
<title>206&#45;&gt;230</title>
<path fill="none" stroke="#000000" d="M2730.2247,-154.7346C2715.959,-150.8644 2697.6171,-146.4155 2681,-144 2364.8112,-98.0374 2278.4246,-158.9436 1963,-108 1952.8763,-106.3649 1942.0721,-103.742 1932.2378,-100.9984"/>
<polygon fill="#000000" stroke="#000000" points="1932.9897,-97.572 1922.4097,-98.132 1931.0297,-104.292 1932.9897,-97.572"/>
</g>
<!-- 276 -->
<g id="node43" class="node">
<title>276</title>
<ellipse fill="none" stroke="#000000" cx="2719" cy="-90" rx="27" ry="18"/>
<text text-anchor="middle" x="2719" y="-85.8" font-family="Times,serif" font-size="14.00" fill="#000000">276</text>
</g>
<!-- 206&#45;&gt;276 -->
<g id="edge53" class="edge">
<title>206&#45;&gt;276</title>
<path fill="none" stroke="#000000" d="M2746.2854,-144.5708C2742.0403,-136.0807 2736.8464,-125.6929 2732.1337,-116.2674"/>
<polygon fill="#000000" stroke="#000000" points="2735.237,-114.6477 2727.6343,-107.2687 2728.976,-117.7782 2735.237,-114.6477"/>
</g>
<!-- 235 -->
<g id="node44" class="node">
<title>235</title>
<ellipse fill="none" stroke="#000000" cx="2791" cy="-90" rx="27" ry="18"/>
<text text-anchor="middle" x="2791" y="-85.8" font-family="Times,serif" font-size="14.00" fill="#000000">235</text>
</g>
<!-- 206&#45;&gt;235 -->
<g id="edge54" class="edge">
<title>206&#45;&gt;235</title>
<path fill="none" stroke="#000000" d="M2763.7146,-144.5708C2767.9597,-136.0807 2773.1536,-125.6929 2777.8663,-116.2674"/>
<polygon fill="#000000" stroke="#000000" points="2781.024,-117.7782 2782.3657,-107.2687 2774.763,-114.6477 2781.024,-117.7782"/>
</g>
<!-- 406 -->
<g id="node45" class="node">
<title>406</title>
<ellipse fill="none" stroke="#000000" cx="2359" cy="-90" rx="27" ry="18"/>
<text text-anchor="middle" x="2359" y="-85.8" font-family="Times,serif" font-size="14.00" fill="#000000">406</text>
</g>
<!-- 206&#45;&gt;406 -->
<g id="edge56" class="edge">
<title>206&#45;&gt;406</title>
<path fill="none" stroke="#000000" d="M2733.3125,-151.0289C2727.2008,-148.34 2720.4555,-145.7383 2714,-144 2576.2296,-106.9023 2531.8009,-148.5272 2395,-108 2393.0905,-107.4343 2391.16,-106.7715 2389.2369,-106.0402"/>
<polygon fill="#000000" stroke="#000000" points="2390.3797,-102.7207 2379.8132,-101.9454 2387.5899,-109.1408 2390.3797,-102.7207"/>
</g>
<!-- 407 -->
<g id="node46" class="node">
<title>407</title>
<ellipse fill="none" stroke="#000000" cx="2431" cy="-90" rx="27" ry="18"/>
<text text-anchor="middle" x="2431" y="-85.8" font-family="Times,serif" font-size="14.00" fill="#000000">407</text>
</g>
<!-- 206&#45;&gt;407 -->
<g id="edge57" class="edge">
<title>206&#45;&gt;407</title>
<path fill="none" stroke="#000000" d="M2733.2742,-151.1668C2727.1623,-148.4784 2720.4266,-145.8425 2714,-144 2607.3586,-113.426 2572.8445,-141.228 2467,-108 2465.0999,-107.4035 2463.1767,-106.7167 2461.2591,-105.9672"/>
<polygon fill="#000000" stroke="#000000" points="2462.4129,-102.651 2451.8504,-101.8235 2459.5915,-109.0572 2462.4129,-102.651"/>
</g>
<!-- 408 -->
<g id="node47" class="node">
<title>408</title>
<ellipse fill="none" stroke="#000000" cx="2503" cy="-90" rx="27" ry="18"/>
<text text-anchor="middle" x="2503" y="-85.8" font-family="Times,serif" font-size="14.00" fill="#000000">408</text>
</g>
<!-- 206&#45;&gt;408 -->
<g id="edge58" class="edge">
<title>206&#45;&gt;408</title>
<path fill="none" stroke="#000000" d="M2732.7724,-151.2254C2726.7753,-148.6005 2720.2222,-145.9814 2714,-144 2638.3372,-119.906 2614.0374,-133.9763 2539,-108 2537.1181,-107.3485 2535.209,-106.619 2533.3021,-105.8369"/>
<polygon fill="#000000" stroke="#000000" points="2534.4769,-102.5273 2523.9222,-101.606 2531.5987,-108.9082 2534.4769,-102.5273"/>
</g>
<!-- 409 -->
<g id="node48" class="node">
<title>409</title>
<ellipse fill="none" stroke="#000000" cx="2575" cy="-90" rx="27" ry="18"/>
<text text-anchor="middle" x="2575" y="-85.8" font-family="Times,serif" font-size="14.00" fill="#000000">409</text>
</g>
<!-- 206&#45;&gt;409 -->
<g id="edge59" class="edge">
<title>206&#45;&gt;409</title>
<path fill="none" stroke="#000000" d="M2732.5749,-151.7809C2726.5793,-149.1516 2720.0763,-146.3916 2714,-144 2668.876,-126.2398 2655.6664,-126.8817 2611,-108 2609.2139,-107.245 2607.3921,-106.4421 2605.5632,-105.6107"/>
<polygon fill="#000000" stroke="#000000" points="2607.0277,-102.4317 2596.493,-101.3045 2604.0255,-108.7552 2607.0277,-102.4317"/>
</g>
<!-- 241 -->
<g id="node49" class="node">
<title>241</title>
<ellipse fill="none" stroke="#000000" cx="2647" cy="-90" rx="27" ry="18"/>
<text text-anchor="middle" x="2647" y="-85.8" font-family="Times,serif" font-size="14.00" fill="#000000">241</text>
</g>
<!-- 206&#45;&gt;241 -->
<g id="edge60" class="edge">
<title>206&#45;&gt;241</title>
<path fill="none" stroke="#000000" d="M2735.6918,-149.1278C2718.6445,-137.763 2693.5981,-121.0654 2674.4656,-108.3104"/>
<polygon fill="#000000" stroke="#000000" points="2676.4031,-105.3956 2666.1411,-102.7607 2672.5201,-111.2199 2676.4031,-105.3956"/>
</g>
<!-- 208&#45;&gt;214 -->
<g id="edge62" class="edge">
<title>208&#45;&gt;214</title>
<path fill="none" stroke="#000000" d="M807.7579,-154.6108C822.018,-150.7006 840.3601,-146.253 857,-144 1116.5318,-108.8598 1781.055,-172.0587 2035,-108 2036.9818,-107.5001 2038.9807,-106.8794 2040.967,-106.1721"/>
<polygon fill="#000000" stroke="#000000" points="2042.8098,-109.1928 2050.6546,-102.0717 2040.0813,-102.7464 2042.8098,-109.1928"/>
</g>
<!-- 410 -->
<g id="node50" class="node">
<title>410</title>
<ellipse fill="none" stroke="#000000" cx="1291" cy="-90" rx="27" ry="18"/>
<text text-anchor="middle" x="1291" y="-85.8" font-family="Times,serif" font-size="14.00" fill="#000000">410</text>
</g>
<!-- 208&#45;&gt;410 -->
<g id="edge61" class="edge">
<title>208&#45;&gt;410</title>
<path fill="none" stroke="#000000" d="M804.655,-150.9047C810.7666,-148.2153 817.5199,-145.6444 824,-144 1010.3175,-96.7207 1069.9215,-159.9181 1255,-108 1257.1319,-107.4019 1259.2877,-106.6762 1261.4286,-105.8634"/>
<polygon fill="#000000" stroke="#000000" points="1262.8293,-109.071 1270.6009,-101.8701 1260.035,-102.6529 1262.8293,-109.071"/>
</g>
<!-- 411 -->
<g id="node51" class="node">
<title>411</title>
<ellipse fill="none" stroke="#000000" cx="1363" cy="-90" rx="27" ry="18"/>
<text text-anchor="middle" x="1363" y="-85.8" font-family="Times,serif" font-size="14.00" fill="#000000">411</text>
</g>
<!-- 208&#45;&gt;411 -->
<g id="edge63" class="edge">
<title>208&#45;&gt;411</title>
<path fill="none" stroke="#000000" d="M804.6422,-150.8537C810.7538,-148.1641 817.5102,-145.6058 824,-144 1041.5659,-90.1652 1110.8466,-167.252 1327,-108 1329.1355,-107.4146 1331.2938,-106.6984 1333.4367,-105.8926"/>
<polygon fill="#000000" stroke="#000000" points="1334.83,-109.1034 1342.6135,-101.9153 1332.0463,-102.6807 1334.83,-109.1034"/>
</g>
<!-- 209&#45;&gt;230 -->
<g id="edge64" class="edge">
<title>209&#45;&gt;230</title>
<path fill="none" stroke="#000000" d="M2806.642,-149.9777C2801.6792,-147.5723 2796.2762,-145.3672 2791,-144 2612.7145,-97.8016 2144.9143,-136.7606 1963,-108 1952.8709,-106.3986 1942.065,-103.7863 1932.2308,-101.0421"/>
<polygon fill="#000000" stroke="#000000" points="1932.9836,-97.6158 1922.4033,-98.1715 1931.0209,-104.335 1932.9836,-97.6158"/>
</g>
<!-- 412 -->
<g id="node52" class="node">
<title>412</title>
<ellipse fill="none" stroke="#000000" cx="2863" cy="-90" rx="27" ry="18"/>
<text text-anchor="middle" x="2863" y="-85.8" font-family="Times,serif" font-size="14.00" fill="#000000">412</text>
</g>
<!-- 209&#45;&gt;412 -->
<g id="edge65" class="edge">
<title>209&#45;&gt;412</title>
<path fill="none" stroke="#000000" d="M2835.7146,-144.5708C2839.9597,-136.0807 2845.1536,-125.6929 2849.8663,-116.2674"/>
<polygon fill="#000000" stroke="#000000" points="2853.024,-117.7782 2854.3657,-107.2687 2846.763,-114.6477 2853.024,-117.7782"/>
</g>
<!-- 231 -->
<g id="node53" class="node">
<title>231</title>
<ellipse fill="none" stroke="#000000" cx="3007" cy="-90" rx="27" ry="18"/>
<text text-anchor="middle" x="3007" y="-85.8" font-family="Times,serif" font-size="14.00" fill="#000000">231</text>
</g>
<!-- 209&#45;&gt;231 -->
<g id="edge66" class="edge">
<title>209&#45;&gt;231</title>
<path fill="none" stroke="#000000" d="M2848.4711,-150.643C2853.1992,-148.3177 2858.2227,-145.9788 2863,-144 2909.745,-124.6376 2924.255,-127.3624 2971,-108 2972.7915,-107.2579 2974.6176,-106.4653 2976.4498,-105.6416"/>
<polygon fill="#000000" stroke="#000000" points="2977.9792,-108.7901 2985.5289,-101.357 2974.9916,-102.4596 2977.9792,-108.7901"/>
</g>
<!-- 413 -->
<g id="node54" class="node">
<title>413</title>
<ellipse fill="none" stroke="#000000" cx="2935" cy="-90" rx="27" ry="18"/>
<text text-anchor="middle" x="2935" y="-85.8" font-family="Times,serif" font-size="14.00" fill="#000000">413</text>
</g>
<!-- 209&#45;&gt;413 -->
<g id="edge67" class="edge">
<title>209&#45;&gt;413</title>
<path fill="none" stroke="#000000" d="M2846.3082,-149.1278C2863.3555,-137.763 2888.4019,-121.0654 2907.5344,-108.3104"/>
<polygon fill="#000000" stroke="#000000" points="2909.4799,-111.2199 2915.8589,-102.7607 2905.5969,-105.3956 2909.4799,-111.2199"/>
</g>
<!-- 211&#45;&gt;176 -->
<g id="edge68" class="edge">
<title>211&#45;&gt;176</title>
<path fill="none" stroke="#000000" d="M659.3642,-150.0016C664.3268,-147.5951 669.7281,-145.3836 675,-144 986.6215,-62.2137 1087.3785,-189.7863 1399,-108 1400.977,-107.4811 1402.9721,-106.8459 1404.9555,-106.1275"/>
<polygon fill="#000000" stroke="#000000" points="1406.8108,-109.1413 1414.6358,-101.9984 1404.0644,-102.7026 1406.8108,-109.1413"/>
</g>
<!-- 211&#45;&gt;197 -->
<g id="edge73" class="edge">
<title>211&#45;&gt;197</title>
<path fill="none" stroke="#000000" d="M617.3113,-151.0335C611.1996,-148.3446 604.4546,-145.7417 598,-144 461.5283,-107.1746 407.2541,-173.5138 282,-108 254.1126,-93.4136 231.5833,-64.6092 217.8262,-43.5013"/>
<polygon fill="#000000" stroke="#000000" points="220.7618,-41.5946 212.4774,-34.9902 214.835,-45.3194 220.7618,-41.5946"/>
</g>
<!-- 211&#45;&gt;222 -->
<g id="edge77" class="edge">
<title>211&#45;&gt;222</title>
<path fill="none" stroke="#000000" d="M613.5507,-155.2979C598.1498,-151.4685 578.0599,-146.8716 560,-144 386.7781,-116.4567 340.0164,-136.8058 167,-108 154.1615,-105.8625 140.2549,-102.7074 128,-99.6333"/>
<polygon fill="#000000" stroke="#000000" points="128.7112,-96.2023 118.154,-97.0943 126.9632,-102.9805 128.7112,-96.2023"/>
</g>
<!-- 211&#45;&gt;179 -->
<g id="edge74" class="edge">
<title>211&#45;&gt;179</title>
<path fill="none" stroke="#000000" d="M617.2961,-151.0893C611.1842,-148.4007 604.4431,-145.7839 598,-144 472.9211,-109.3687 225.6208,-166.1032 315,-72 350.5209,-34.6017 1143.4899,-21.1101 1325.845,-18.4964"/>
<polygon fill="#000000" stroke="#000000" points="1326.0554,-21.9939 1336.005,-18.3531 1325.9566,-14.9946 1326.0554,-21.9939"/>
</g>
<!-- 414 -->
<g id="node55" class="node">
<title>414</title>
<ellipse fill="none" stroke="#000000" cx="639" cy="-90" rx="27" ry="18"/>
<text text-anchor="middle" x="639" y="-85.8" font-family="Times,serif" font-size="14.00" fill="#000000">414</text>
</g>
<!-- 211&#45;&gt;414 -->
<g id="edge69" class="edge">
<title>211&#45;&gt;414</title>
<path fill="none" stroke="#000000" d="M639,-143.8314C639,-136.131 639,-126.9743 639,-118.4166"/>
<polygon fill="#000000" stroke="#000000" points="642.5001,-118.4132 639,-108.4133 635.5001,-118.4133 642.5001,-118.4132"/>
</g>
<!-- 415 -->
<g id="node56" class="node">
<title>415</title>
<ellipse fill="none" stroke="#000000" cx="711" cy="-90" rx="27" ry="18"/>
<text text-anchor="middle" x="711" y="-85.8" font-family="Times,serif" font-size="14.00" fill="#000000">415</text>
</g>
<!-- 211&#45;&gt;415 -->
<g id="edge70" class="edge">
<title>211&#45;&gt;415</title>
<path fill="none" stroke="#000000" d="M654.2693,-146.7307C664.197,-136.803 677.3153,-123.6847 688.4363,-112.5637"/>
<polygon fill="#000000" stroke="#000000" points="691.1564,-114.7933 695.7527,-105.2473 686.2067,-109.8436 691.1564,-114.7933"/>
</g>
<!-- 416 -->
<g id="node57" class="node">
<title>416</title>
<ellipse fill="none" stroke="#000000" cx="783" cy="-90" rx="27" ry="18"/>
<text text-anchor="middle" x="783" y="-85.8" font-family="Times,serif" font-size="14.00" fill="#000000">416</text>
</g>
<!-- 211&#45;&gt;416 -->
<g id="edge71" class="edge">
<title>211&#45;&gt;416</title>
<path fill="none" stroke="#000000" d="M660.8705,-151.0647C685.2222,-138.8889 724.762,-119.119 752.2285,-105.3858"/>
<polygon fill="#000000" stroke="#000000" points="754.0165,-108.4049 761.3955,-100.8022 750.886,-102.1439 754.0165,-108.4049"/>
</g>
<!-- 417 -->
<g id="node58" class="node">
<title>417</title>
<ellipse fill="none" stroke="#000000" cx="927" cy="-90" rx="27" ry="18"/>
<text text-anchor="middle" x="927" y="-85.8" font-family="Times,serif" font-size="14.00" fill="#000000">417</text>
</g>
<!-- 211&#45;&gt;417 -->
<g id="edge72" class="edge">
<title>211&#45;&gt;417</title>
<path fill="none" stroke="#000000" d="M659.8749,-150.2531C664.7251,-147.8959 669.9497,-145.6423 675,-144 767.5536,-113.9031 798.4464,-138.0969 891,-108 892.8939,-107.3841 894.8123,-106.6823 896.7262,-105.9213"/>
<polygon fill="#000000" stroke="#000000" points="898.4066,-109.0047 906.1251,-101.7469 895.5653,-102.6073 898.4066,-109.0047"/>
</g>
<!-- 418 -->
<g id="node59" class="node">
<title>418</title>
<ellipse fill="none" stroke="#000000" cx="855" cy="-90" rx="27" ry="18"/>
<text text-anchor="middle" x="855" y="-85.8" font-family="Times,serif" font-size="14.00" fill="#000000">418</text>
</g>
<!-- 211&#45;&gt;418 -->
<g id="edge75" class="edge">
<title>211&#45;&gt;418</title>
<path fill="none" stroke="#000000" d="M659.978,-150.5501C664.8229,-148.1775 670.0192,-145.8425 675,-144 736.872,-121.1121 757.128,-130.8879 819,-108 820.8678,-107.3091 822.7659,-106.5489 824.6644,-105.7434"/>
<polygon fill="#000000" stroke="#000000" points="826.3926,-108.8014 834.022,-101.4499 823.4734,-102.4391 826.3926,-108.8014"/>
</g>
<!-- 419 -->
<g id="node60" class="node">
<title>419</title>
<ellipse fill="none" stroke="#000000" cx="1071" cy="-90" rx="27" ry="18"/>
<text text-anchor="middle" x="1071" y="-85.8" font-family="Times,serif" font-size="14.00" fill="#000000">419</text>
</g>
<!-- 211&#45;&gt;419 -->
<g id="edge76" class="edge">
<title>211&#45;&gt;419</title>
<path fill="none" stroke="#000000" d="M659.4168,-150.192C664.3771,-147.7777 669.7644,-145.5149 675,-144 829.4619,-99.3064 880.5381,-152.6936 1035,-108 1037.127,-107.3846 1039.279,-106.6457 1041.4172,-105.8234"/>
<polygon fill="#000000" stroke="#000000" points="1042.828,-109.0265 1050.5832,-101.808 1040.0192,-102.6148 1042.828,-109.0265"/>
</g>
<!-- 420 -->
<g id="node61" class="node">
<title>420</title>
<ellipse fill="none" stroke="#000000" cx="1219" cy="-90" rx="27" ry="18"/>
<text text-anchor="middle" x="1219" y="-85.8" font-family="Times,serif" font-size="14.00" fill="#000000">420</text>
</g>
<!-- 211&#45;&gt;420 -->
<g id="edge78" class="edge">
<title>211&#45;&gt;420</title>
<path fill="none" stroke="#000000" d="M659.3989,-150.1292C664.36,-147.7175 669.752,-145.4716 675,-144 860.5099,-91.9801 915.7489,-131.3028 1107,-108 1132.4837,-104.895 1161.0547,-100.285 1182.9614,-96.5077"/>
<polygon fill="#000000" stroke="#000000" points="1183.5803,-99.9527 1192.8294,-94.7851 1182.3764,-93.057 1183.5803,-99.9527"/>
</g>
<!-- 421 -->
<g id="node62" class="node">
<title>421</title>
<ellipse fill="none" stroke="#000000" cx="999" cy="-90" rx="27" ry="18"/>
<text text-anchor="middle" x="999" y="-85.8" font-family="Times,serif" font-size="14.00" fill="#000000">421</text>
</g>
<!-- 211&#45;&gt;421 -->
<g id="edge79" class="edge">
<title>211&#45;&gt;421</title>
<path fill="none" stroke="#000000" d="M659.8268,-150.0998C664.6795,-147.7506 669.9172,-145.5389 675,-144 798.4612,-106.619 839.5388,-145.381 963,-108 964.906,-107.4229 966.8339,-106.7512 968.755,-106.0131"/>
<polygon fill="#000000" stroke="#000000" points="970.4097,-109.1098 978.1732,-101.9002 967.6082,-102.6948 970.4097,-109.1098"/>
</g>
<!-- 422 -->
<g id="node63" class="node">
<title>422</title>
<ellipse fill="none" stroke="#000000" cx="351" cy="-90" rx="27" ry="18"/>
<text text-anchor="middle" x="351" y="-85.8" font-family="Times,serif" font-size="14.00" fill="#000000">422</text>
</g>
<!-- 211&#45;&gt;422 -->
<g id="edge80" class="edge">
<title>211&#45;&gt;422</title>
<path fill="none" stroke="#000000" d="M617.244,-151.2697C611.132,-148.5818 604.4038,-145.9203 598,-144 506.876,-116.6745 477.4131,-137.593 387,-108 385.1073,-107.3805 383.1898,-106.6759 381.2766,-105.9127"/>
<polygon fill="#000000" stroke="#000000" points="382.4389,-102.5991 371.8796,-101.7325 379.5938,-108.9948 382.4389,-102.5991"/>
</g>
<!-- 130 -->
<g id="node64" class="node">
<title>130</title>
<ellipse fill="none" stroke="#000000" cx="423" cy="-90" rx="27" ry="18"/>
<text text-anchor="middle" x="423" y="-85.8" font-family="Times,serif" font-size="14.00" fill="#000000">130</text>
</g>
<!-- 211&#45;&gt;130 -->
<g id="edge81" class="edge">
<title>211&#45;&gt;130</title>
<path fill="none" stroke="#000000" d="M616.7019,-151.4375C610.7054,-148.8109 604.1701,-146.138 598,-144 537.7012,-123.1062 518.7581,-130.3933 459,-108 457.1351,-107.3012 455.2393,-106.5349 453.3425,-105.7247"/>
<polygon fill="#000000" stroke="#000000" points="454.5369,-102.4215 443.9897,-101.4188 451.6095,-108.78 454.5369,-102.4215"/>
</g>
<!-- 423 -->
<g id="node65" class="node">
<title>423</title>
<ellipse fill="none" stroke="#000000" cx="495" cy="-90" rx="27" ry="18"/>
<text text-anchor="middle" x="495" y="-85.8" font-family="Times,serif" font-size="14.00" fill="#000000">423</text>
</g>
<!-- 211&#45;&gt;423 -->
<g id="edge82" class="edge">
<title>211&#45;&gt;423</title>
<path fill="none" stroke="#000000" d="M617.1295,-151.0647C592.7778,-138.8889 553.238,-119.119 525.7715,-105.3858"/>
<polygon fill="#000000" stroke="#000000" points="527.114,-102.1439 516.6045,-100.8022 523.9835,-108.4049 527.114,-102.1439"/>
</g>
<!-- 424 -->
<g id="node66" class="node">
<title>424</title>
<ellipse fill="none" stroke="#000000" cx="203" cy="-90" rx="27" ry="18"/>
<text text-anchor="middle" x="203" y="-85.8" font-family="Times,serif" font-size="14.00" fill="#000000">424</text>
</g>
<!-- 211&#45;&gt;424 -->
<g id="edge83" class="edge">
<title>211&#45;&gt;424</title>
<path fill="none" stroke="#000000" d="M617.3251,-150.9818C611.2134,-148.2927 604.465,-145.7027 598,-144 445.07,-103.7235 396.93,-148.2765 244,-108 240.7675,-107.1487 237.4641,-106.0755 234.205,-104.879"/>
<polygon fill="#000000" stroke="#000000" points="235.2574,-101.5291 224.6749,-101.0182 232.629,-108.0169 235.2574,-101.5291"/>
</g>
<!-- 425 -->
<g id="node67" class="node">
<title>425</title>
<ellipse fill="none" stroke="#000000" cx="567" cy="-90" rx="27" ry="18"/>
<text text-anchor="middle" x="567" y="-85.8" font-family="Times,serif" font-size="14.00" fill="#000000">425</text>
</g>
<!-- 211&#45;&gt;425 -->
<g id="edge84" class="edge">
<title>211&#45;&gt;425</title>
<path fill="none" stroke="#000000" d="M623.7307,-146.7307C613.803,-136.803 600.6847,-123.6847 589.5637,-112.5637"/>
<polygon fill="#000000" stroke="#000000" points="591.7933,-109.8436 582.2473,-105.2473 586.8436,-114.7933 591.7933,-109.8436"/>
</g>
<!-- 216&#45;&gt;205 -->
<g id="edge85" class="edge">
<title>216&#45;&gt;205</title>
<path fill="none" stroke="#000000" d="M2623.3665,-150.8182C2617.255,-148.1285 2610.4963,-145.579 2604,-144 2357.7744,-84.1522 2279.654,-173.979 2035,-108 2033.0266,-107.4678 2031.0342,-106.8222 2029.0528,-106.0962"/>
<polygon fill="#000000" stroke="#000000" points="2029.948,-102.6718 2019.3779,-101.9469 2027.1888,-109.1051 2029.948,-102.6718"/>
</g>
<!-- 216&#45;&gt;214 -->
<g id="edge86" class="edge">
<title>216&#45;&gt;214</title>
<path fill="none" stroke="#000000" d="M2623.3569,-150.8574C2617.2453,-148.1678 2610.4891,-145.6086 2604,-144 2389.0389,-90.7117 2320.563,-166.6407 2107,-108 2104.8648,-107.4137 2102.7066,-106.6968 2100.5639,-105.8905"/>
<polygon fill="#000000" stroke="#000000" points="2101.9545,-102.6787 2091.3874,-101.9121 2099.17,-109.1011 2101.9545,-102.6787"/>
</g>
<!-- 426 -->
<g id="node68" class="node">
<title>426</title>
<ellipse fill="none" stroke="#000000" cx="2143" cy="-90" rx="27" ry="18"/>
<text text-anchor="middle" x="2143" y="-85.8" font-family="Times,serif" font-size="14.00" fill="#000000">426</text>
</g>
<!-- 216&#45;&gt;426 -->
<g id="edge87" class="edge">
<title>216&#45;&gt;426</title>
<path fill="none" stroke="#000000" d="M2623.3438,-150.9097C2617.2321,-148.2203 2610.4791,-145.6482 2604,-144 2420.2855,-97.2667 2361.4899,-159.3073 2179,-108 2176.8684,-107.4007 2174.713,-106.674 2172.5722,-105.8606"/>
<polygon fill="#000000" stroke="#000000" points="2173.9661,-102.6501 2163.4003,-101.8656 2171.1707,-109.0678 2173.9661,-102.6501"/>
</g>
<!-- 220&#45;&gt;214 -->
<g id="edge91" class="edge">
<title>220&#45;&gt;214</title>
<path fill="none" stroke="#000000" d="M2878.6379,-149.9935C2873.6753,-147.5874 2868.2733,-145.3781 2863,-144 2537.549,-58.9492 2432.451,-193.0508 2107,-108 2105.0225,-107.4832 2103.0269,-106.8495 2101.0432,-106.1324"/>
<polygon fill="#000000" stroke="#000000" points="2101.9338,-102.7074 2091.3621,-102.0065 2099.1893,-109.147 2101.9338,-102.7074"/>
</g>
<!-- 220&#45;&gt;403 -->
<g id="edge92" class="edge">
<title>220&#45;&gt;403</title>
<path fill="none" stroke="#000000" d="M2878.6186,-150.066C2873.6567,-147.6569 2868.26,-145.4281 2863,-144 2630.8705,-80.9772 2555.1295,-171.0228 2323,-108 2320.8631,-107.4198 2318.7037,-106.7075 2316.56,-105.9046"/>
<polygon fill="#000000" stroke="#000000" points="2317.9491,-102.6922 2307.3814,-101.934 2315.1698,-109.1168 2317.9491,-102.6922"/>
</g>
<!-- 220&#45;&gt;405 -->
<g id="edge95" class="edge">
<title>220&#45;&gt;405</title>
<path fill="none" stroke="#000000" d="M2878.6266,-150.0362C2873.6644,-147.6284 2868.2655,-145.4075 2863,-144 2599.7719,-73.6368 2514.2281,-178.3632 2251,-108 2249.0254,-107.4722 2247.0321,-106.83 2245.0501,-106.1064"/>
<polygon fill="#000000" stroke="#000000" points="2245.9439,-102.6819 2235.3734,-101.9638 2243.1889,-109.117 2245.9439,-102.6819"/>
</g>
<!-- 220&#45;&gt;420 -->
<g id="edge94" class="edge">
<title>220&#45;&gt;420</title>
<path fill="none" stroke="#000000" d="M2878.6625,-149.897C2873.6988,-147.4949 2868.2903,-145.3115 2863,-144 2516.0794,-57.993 1601.9206,-194.007 1255,-108 1253.0162,-107.5082 1251.0157,-106.8937 1249.0283,-106.1912"/>
<polygon fill="#000000" stroke="#000000" points="1249.9117,-102.7652 1239.3375,-102.103 1247.1908,-109.2148 1249.9117,-102.7652"/>
</g>
<!-- 311 -->
<g id="node69" class="node">
<title>311</title>
<ellipse fill="none" stroke="#000000" cx="3079" cy="-90" rx="27" ry="18"/>
<text text-anchor="middle" x="3079" y="-85.8" font-family="Times,serif" font-size="14.00" fill="#000000">311</text>
</g>
<!-- 220&#45;&gt;311 -->
<g id="edge88" class="edge">
<title>220&#45;&gt;311</title>
<path fill="none" stroke="#000000" d="M2920.4711,-150.643C2925.1992,-148.3177 2930.2227,-145.9788 2935,-144 2981.745,-124.6376 2996.255,-127.3624 3043,-108 3044.7915,-107.2579 3046.6176,-106.4653 3048.4498,-105.6416"/>
<polygon fill="#000000" stroke="#000000" points="3049.9792,-108.7901 3057.5289,-101.357 3046.9916,-102.4596 3049.9792,-108.7901"/>
</g>
<!-- 427 -->
<g id="node70" class="node">
<title>427</title>
<ellipse fill="none" stroke="#000000" cx="3151" cy="-90" rx="27" ry="18"/>
<text text-anchor="middle" x="3151" y="-85.8" font-family="Times,serif" font-size="14.00" fill="#000000">427</text>
</g>
<!-- 220&#45;&gt;427 -->
<g id="edge89" class="edge">
<title>220&#45;&gt;427</title>
<path fill="none" stroke="#000000" d="M2919.9151,-150.3736C2924.7633,-148.0101 2929.9768,-145.7235 2935,-144 3012.1684,-117.5229 3037.8316,-134.4771 3115,-108 3116.8837,-107.3537 3118.7942,-106.6282 3120.7021,-105.8491"/>
<polygon fill="#000000" stroke="#000000" points="3122.4022,-108.9222 3130.0849,-101.6264 3119.5294,-102.5388 3122.4022,-108.9222"/>
</g>
<!-- 428 -->
<g id="node71" class="node">
<title>428</title>
<ellipse fill="none" stroke="#000000" cx="3223" cy="-90" rx="27" ry="18"/>
<text text-anchor="middle" x="3223" y="-85.8" font-family="Times,serif" font-size="14.00" fill="#000000">428</text>
</g>
<!-- 220&#45;&gt;428 -->
<g id="edge90" class="edge">
<title>220&#45;&gt;428</title>
<path fill="none" stroke="#000000" d="M2919.8471,-150.1659C2924.6987,-147.8132 2929.9309,-145.5835 2935,-144 3042.9909,-110.2662 3079.0091,-141.7338 3187,-108 3188.9009,-107.4062 3190.8248,-106.7215 3192.7429,-105.9736"/>
<polygon fill="#000000" stroke="#000000" points="3194.4087,-109.0645 3202.1529,-101.8341 3191.5901,-102.657 3194.4087,-109.0645"/>
</g>
<!-- 429 -->
<g id="node72" class="node">
<title>429</title>
<ellipse fill="none" stroke="#000000" cx="3295" cy="-90" rx="27" ry="18"/>
<text text-anchor="middle" x="3295" y="-85.8" font-family="Times,serif" font-size="14.00" fill="#000000">429</text>
</g>
<!-- 220&#45;&gt;429 -->
<g id="edge93" class="edge">
<title>220&#45;&gt;429</title>
<path fill="none" stroke="#000000" d="M2919.8113,-150.0481C2924.6648,-147.7016 2929.9068,-145.5041 2935,-144 3073.9537,-102.965 3120.0463,-149.035 3259,-108 3260.91,-107.436 3262.8408,-106.7744 3264.7643,-106.0441"/>
<polygon fill="#000000" stroke="#000000" points="3266.4101,-109.1452 3274.1887,-101.9519 3263.6221,-102.7244 3266.4101,-109.1452"/>
</g>
<!-- 430 -->
<g id="node73" class="node">
<title>430</title>
<ellipse fill="none" stroke="#000000" cx="3367" cy="-90" rx="27" ry="18"/>
<text text-anchor="middle" x="3367" y="-85.8" font-family="Times,serif" font-size="14.00" fill="#000000">430</text>
</g>
<!-- 220&#45;&gt;430 -->
<g id="edge96" class="edge">
<title>220&#45;&gt;430</title>
<path fill="none" stroke="#000000" d="M2919.4069,-150.1578C2924.3677,-147.7449 2929.7576,-145.4913 2935,-144 3104.9816,-95.6444 3161.0184,-156.3556 3331,-108 3333.1297,-107.3941 3335.2838,-106.6625 3337.4235,-105.8455"/>
<polygon fill="#000000" stroke="#000000" points="3338.8288,-109.051 3346.5931,-101.8422 3336.028,-102.6358 3338.8288,-109.051"/>
</g>
<!-- 153 -->
<g id="node74" class="node">
<title>153</title>
<ellipse fill="none" stroke="#000000" cx="2907" cy="-234" rx="27" ry="18"/>
<text text-anchor="middle" x="2907" y="-229.8" font-family="Times,serif" font-size="14.00" fill="#000000">153</text>
</g>
<!-- 221&#45;&gt;153 -->
<g id="edge97" class="edge">
<title>221&#45;&gt;153</title>
<path fill="none" stroke="#000000" d="M2907,-287.8314C2907,-280.131 2907,-270.9743 2907,-262.4166"/>
<polygon fill="#000000" stroke="#000000" points="2910.5001,-262.4132 2907,-252.4133 2903.5001,-262.4133 2910.5001,-262.4132"/>
</g>
<!-- 154 -->
<g id="node75" class="node">
<title>154</title>
<ellipse fill="none" stroke="#000000" cx="2979" cy="-234" rx="27" ry="18"/>
<text text-anchor="middle" x="2979" y="-229.8" font-family="Times,serif" font-size="14.00" fill="#000000">154</text>
</g>
<!-- 221&#45;&gt;154 -->
<g id="edge98" class="edge">
<title>221&#45;&gt;154</title>
<path fill="none" stroke="#000000" d="M2922.2693,-290.7307C2932.197,-280.803 2945.3153,-267.6847 2956.4363,-256.5637"/>
<polygon fill="#000000" stroke="#000000" points="2959.1564,-258.7933 2963.7527,-249.2473 2954.2067,-253.8436 2959.1564,-258.7933"/>
</g>
<!-- 155 -->
<g id="node76" class="node">
<title>155</title>
<ellipse fill="none" stroke="#000000" cx="2971" cy="-162" rx="27" ry="18"/>
<text text-anchor="middle" x="2971" y="-157.8" font-family="Times,serif" font-size="14.00" fill="#000000">155</text>
</g>
<!-- 221&#45;&gt;155 -->
<g id="edge99" class="edge">
<title>221&#45;&gt;155</title>
<path fill="none" stroke="#000000" d="M2892.5796,-290.6719C2877.0286,-272.1959 2856.3445,-240.5698 2871,-216 2873.0205,-212.6126 2911.541,-192.3843 2940.1702,-177.6777"/>
<polygon fill="#000000" stroke="#000000" points="2942.1276,-180.6077 2949.4331,-172.9343 2938.9369,-174.3771 2942.1276,-180.6077"/>
</g>
<!-- 156 -->
<g id="node77" class="node">
<title>156</title>
<ellipse fill="none" stroke="#000000" cx="3051" cy="-234" rx="27" ry="18"/>
<text text-anchor="middle" x="3051" y="-229.8" font-family="Times,serif" font-size="14.00" fill="#000000">156</text>
</g>
<!-- 221&#45;&gt;156 -->
<g id="edge100" class="edge">
<title>221&#45;&gt;156</title>
<path fill="none" stroke="#000000" d="M2928.8705,-295.0647C2953.2222,-282.8889 2992.762,-263.119 3020.2285,-249.3858"/>
<polygon fill="#000000" stroke="#000000" points="3022.0165,-252.4049 3029.3955,-244.8022 3018.886,-246.1439 3022.0165,-252.4049"/>
</g>
<!-- 157 -->
<g id="node78" class="node">
<title>157</title>
<ellipse fill="none" stroke="#000000" cx="3123" cy="-234" rx="27" ry="18"/>
<text text-anchor="middle" x="3123" y="-229.8" font-family="Times,serif" font-size="14.00" fill="#000000">157</text>
</g>
<!-- 221&#45;&gt;157 -->
<g id="edge101" class="edge">
<title>221&#45;&gt;157</title>
<path fill="none" stroke="#000000" d="M2927.978,-294.5501C2932.8229,-292.1775 2938.0192,-289.8425 2943,-288 3004.872,-265.1121 3025.128,-274.8879 3087,-252 3088.8678,-251.3091 3090.7659,-250.5489 3092.6644,-249.7434"/>
<polygon fill="#000000" stroke="#000000" points="3094.3926,-252.8014 3102.022,-245.4499 3091.4734,-246.4391 3094.3926,-252.8014"/>
</g>
<!-- 401&#45;&gt;176 -->
<g id="edge102" class="edge">
<title>401&#45;&gt;176</title>
<path fill="none" stroke="#000000" d="M1574.9896,-231.7983C1497.0326,-225.173 1275.8701,-204.3691 1255,-180 1244.5924,-167.8475 1245.1534,-156.6113 1255,-144 1295.5986,-92.0023 1337.128,-130.8879 1399,-108 1400.8678,-107.3091 1402.7659,-106.5489 1404.6644,-105.7434"/>
<polygon fill="#000000" stroke="#000000" points="1406.3926,-108.8014 1414.022,-101.4499 1403.4734,-102.4391 1406.3926,-108.8014"/>
</g>
<!-- 401&#45;&gt;194 -->
<g id="edge103" class="edge">
<title>401&#45;&gt;194</title>
<path fill="none" stroke="#000000" d="M1574.7419,-233.6935C1404.0602,-231.6621 480.6489,-219.0001 201,-180 188.0072,-178.188 173.97,-175.0767 161.6496,-171.9455"/>
<polygon fill="#000000" stroke="#000000" points="162.3268,-168.5045 151.7649,-169.3387 160.5417,-175.2731 162.3268,-168.5045"/>
</g>
<!-- 401&#45;&gt;195 -->
<g id="edge104" class="edge">
<title>401&#45;&gt;195</title>
<path fill="none" stroke="#000000" d="M1574.809,-233.5916C1412.2721,-231.0401 567.5563,-216.2084 311,-180 298.0102,-178.1667 283.9736,-175.0507 271.6529,-171.9216"/>
<polygon fill="#000000" stroke="#000000" points="272.3294,-168.4804 261.7678,-169.3179 270.5465,-175.2496 272.3294,-168.4804"/>
</g>
<!-- 401&#45;&gt;196 -->
<g id="edge105" class="edge">
<title>401&#45;&gt;196</title>
<path fill="none" stroke="#000000" d="M1575.003,-233.4791C1406.45,-230.1375 501.926,-210.8688 383,-180 381.0217,-179.4865 379.0254,-178.8553 377.0412,-178.1401"/>
<polygon fill="#000000" stroke="#000000" points="377.9308,-174.715 367.3588,-174.0191 375.1894,-181.1559 377.9308,-174.715"/>
</g>
<!-- 401&#45;&gt;197 -->
<g id="edge106" class="edge">
<title>401&#45;&gt;197</title>
<path fill="none" stroke="#000000" d="M1574.5757,-233.5859C1423.3953,-231.1614 695.1741,-217.5956 603,-180 580.5462,-170.8416 584.2811,-153.5709 562,-144 481.0139,-109.2122 226.4298,-173.0925 167,-108 149.6474,-88.994 165.8742,-60.5778 181.7535,-40.777"/>
<polygon fill="#000000" stroke="#000000" points="184.4323,-43.0295 188.2084,-33.1304 179.0833,-38.5141 184.4323,-43.0295"/>
</g>
<!-- 401&#45;&gt;198 -->
<g id="edge107" class="edge">
<title>401&#45;&gt;198</title>
<path fill="none" stroke="#000000" d="M1574.7729,-233.3936C1411.5856,-229.6698 566.4535,-209.0943 455,-180 453.0224,-179.4837 451.0267,-178.8505 449.0429,-178.1337"/>
<polygon fill="#000000" stroke="#000000" points="449.9333,-174.7086 439.3616,-174.0085 447.1893,-181.1484 449.9333,-174.7086"/>
</g>
<!-- 401&#45;&gt;200 -->
<g id="edge109" class="edge">
<title>401&#45;&gt;200</title>
<path fill="none" stroke="#000000" d="M1574.8632,-233.2182C1418.5333,-228.6365 636.1966,-204.6231 532,-180 528.7469,-179.2312 525.4298,-178.2129 522.1621,-177.0505"/>
<polygon fill="#000000" stroke="#000000" points="523.2051,-173.6982 512.6203,-173.2367 520.607,-180.1982 523.2051,-173.6982"/>
</g>
<!-- 401&#45;&gt;201 -->
<g id="edge110" class="edge">
<title>401&#45;&gt;201</title>
<path fill="none" stroke="#000000" d="M1575.0721,-231.2654C1465.9455,-220.1835 1056.4386,-178.5974 930.2517,-165.783"/>
<polygon fill="#000000" stroke="#000000" points="930.2572,-162.2656 919.9547,-164.7373 929.5499,-169.2298 930.2572,-162.2656"/>
</g>
<!-- 401&#45;&gt;203 -->
<g id="edge112" class="edge">
<title>401&#45;&gt;203</title>
<path fill="none" stroke="#000000" d="M1575.1095,-231.652C1499.1267,-224.7483 1287.03,-203.5173 1267,-180 1256.6255,-167.8193 1256.7163,-156.2574 1267,-144 1326.175,-73.468 1383.5819,-136.888 1471,-108 1472.8909,-107.3751 1474.807,-106.6663 1476.7192,-105.8999"/>
<polygon fill="#000000" stroke="#000000" points="1478.4055,-108.9803 1486.1134,-101.7113 1475.5548,-102.587 1478.4055,-108.9803"/>
</g>
<!-- 401&#45;&gt;204 -->
<g id="edge113" class="edge">
<title>401&#45;&gt;204</title>
<path fill="none" stroke="#000000" d="M1620.6211,-220.4574C1635.6935,-209.4956 1657.1254,-193.9088 1674.0687,-181.5864"/>
<polygon fill="#000000" stroke="#000000" points="1676.4336,-184.1943 1682.4624,-175.4819 1672.3164,-178.5331 1676.4336,-184.1943"/>
</g>
<!-- 401&#45;&gt;205 -->
<g id="edge114" class="edge">
<title>401&#45;&gt;205</title>
<path fill="none" stroke="#000000" d="M1626.736,-226.7215C1654.6691,-217.9206 1700.9242,-201.5643 1737,-180 1758.3939,-167.2118 1757.7033,-155.1396 1780,-144 1842.8789,-112.5853 1865.8937,-125.383 1934,-108 1943.8521,-105.4854 1954.4993,-102.6057 1964.2687,-99.8978"/>
<polygon fill="#000000" stroke="#000000" points="1965.3727,-103.2235 1974.0614,-97.1607 1963.4883,-96.4819 1965.3727,-103.2235"/>
</g>
<!-- 401&#45;&gt;206 -->
<g id="edge115" class="edge">
<title>401&#45;&gt;206</title>
<path fill="none" stroke="#000000" d="M1629.337,-233.3313C1775.8054,-229.6422 2468.9391,-210.8161 2681,-180 2693.9822,-178.1135 2708.017,-174.9854 2720.3385,-171.8616"/>
<polygon fill="#000000" stroke="#000000" points="2721.4414,-175.1908 2730.2248,-169.266 2719.6638,-168.4202 2721.4414,-175.1908"/>
</g>
<!-- 401&#45;&gt;207 -->
<g id="edge116" class="edge">
<title>401&#45;&gt;207</title>
<path fill="none" stroke="#000000" d="M1628.0829,-228.5477C1667.5668,-219.9854 1744.6263,-202.0637 1808,-180 1811.0835,-178.9265 1814.2588,-177.7207 1817.4127,-176.455"/>
<polygon fill="#000000" stroke="#000000" points="1818.8364,-179.6532 1826.6976,-172.5502 1816.1228,-173.2006 1818.8364,-179.6532"/>
</g>
<!-- 401&#45;&gt;208 -->
<g id="edge117" class="edge">
<title>401&#45;&gt;208</title>
<path fill="none" stroke="#000000" d="M1574.7536,-233.6562C1477.0044,-232.0777 1135.0101,-223.5776 857,-180 844.0397,-177.9685 830.0098,-174.8079 817.6862,-171.6985"/>
<polygon fill="#000000" stroke="#000000" points="818.3557,-168.2563 807.7966,-169.1246 816.5926,-175.0306 818.3557,-168.2563"/>
</g>
<!-- 401&#45;&gt;209 -->
<g id="edge118" class="edge">
<title>401&#45;&gt;209</title>
<path fill="none" stroke="#000000" d="M1629.1357,-233.4439C1795.5897,-229.9433 2675.1993,-210.1265 2791,-180 2792.9781,-179.4854 2794.9741,-178.8534 2796.9581,-178.1375"/>
<polygon fill="#000000" stroke="#000000" points="2798.8107,-181.1529 2806.6401,-174.0149 2796.0682,-174.7124 2798.8107,-181.1529"/>
</g>
<!-- 401&#45;&gt;210 -->
<g id="edge119" class="edge">
<title>401&#45;&gt;210</title>
<path fill="none" stroke="#000000" d="M1628.7626,-231.3742C1679.733,-225.8353 1793.7889,-210.8448 1885,-180 1886.8865,-179.362 1888.7992,-178.643 1890.7088,-177.8689"/>
<polygon fill="#000000" stroke="#000000" points="1892.4036,-180.9448 1900.0961,-173.6594 1889.5394,-174.5576 1892.4036,-180.9448"/>
</g>
<!-- 401&#45;&gt;212 -->
<g id="edge121" class="edge">
<title>401&#45;&gt;212</title>
<path fill="none" stroke="#000000" d="M1629.3745,-232.742C1689.8298,-229.3411 1838.7533,-217.5261 1957,-180 1958.8982,-179.3976 1960.8199,-178.7062 1962.7364,-177.9532"/>
<polygon fill="#000000" stroke="#000000" points="1964.408,-181.0412 1972.1422,-173.8001 1961.5805,-174.6376 1964.408,-181.0412"/>
</g>
<!-- 401&#45;&gt;213 -->
<g id="edge122" class="edge">
<title>401&#45;&gt;213</title>
<path fill="none" stroke="#000000" d="M1598.9512,-216.008C1597.185,-205.5107 1594.935,-192.0107 1593,-180 1589.6517,-159.217 1585.9999,-135.7113 1583.2657,-117.9348"/>
<polygon fill="#000000" stroke="#000000" points="1586.7081,-117.2922 1581.732,-107.9387 1579.7891,-118.3539 1586.7081,-117.2922"/>
</g>
<!-- 401&#45;&gt;214 -->
<g id="edge123" class="edge">
<title>401&#45;&gt;214</title>
<path fill="none" stroke="#000000" d="M1628.1152,-229.206C1662.6976,-222.097 1724.8117,-206.6473 1772,-180 1793.1156,-168.076 1791.0668,-154.3434 1813,-144 1903.4069,-101.3655 1939.8765,-138.7021 2035,-108 2036.8952,-107.3883 2038.8147,-106.6897 2040.7294,-105.9311"/>
<polygon fill="#000000" stroke="#000000" points="2042.4071,-109.016 2050.1304,-101.7633 2039.57,-102.6166 2042.4071,-109.016"/>
</g>
<!-- 401&#45;&gt;215 -->
<g id="edge124" class="edge">
<title>401&#45;&gt;215</title>
<path fill="none" stroke="#000000" d="M1629.0776,-231.7773C1710.6873,-224.8897 1953.2988,-202.98 2029,-180 2030.9056,-179.4215 2032.8331,-178.7488 2034.754,-178.0099"/>
<polygon fill="#000000" stroke="#000000" points="2036.4096,-181.106 2044.1716,-173.8947 2033.6068,-174.6917 2036.4096,-181.106"/>
</g>
<!-- 401&#45;&gt;216 -->
<g id="edge125" class="edge">
<title>401&#45;&gt;216</title>
<path fill="none" stroke="#000000" d="M1629.122,-233.4322C1740.9219,-230.8796 2176.9003,-218.8412 2533,-180 2558.5208,-177.2163 2587.0912,-172.6004 2608.9882,-168.74"/>
<polygon fill="#000000" stroke="#000000" points="2609.625,-172.1817 2618.8511,-166.973 2608.3905,-165.2914 2609.625,-172.1817"/>
</g>
<!-- 401&#45;&gt;217 -->
<g id="edge126" class="edge">
<title>401&#45;&gt;217</title>
<path fill="none" stroke="#000000" d="M1629.0662,-232.3401C1719.5716,-226.5919 2011.0201,-206.4325 2101,-180 2103.1245,-179.3759 2105.2746,-178.6305 2107.4114,-177.8035"/>
<polygon fill="#000000" stroke="#000000" points="2108.8272,-181.0044 2116.5742,-173.7771 2106.0111,-174.5959 2108.8272,-181.0044"/>
</g>
<!-- 401&#45;&gt;218 -->
<g id="edge127" class="edge">
<title>401&#45;&gt;218</title>
<path fill="none" stroke="#000000" d="M1629.1117,-232.7593C1727.9585,-228.0313 2068.6601,-209.887 2173,-180 2175.1286,-179.3903 2177.2819,-178.6557 2179.421,-177.8366"/>
<polygon fill="#000000" stroke="#000000" points="2180.8285,-181.0412 2188.5891,-173.8284 2178.0244,-174.6273 2180.8285,-181.0412"/>
</g>
<!-- 401&#45;&gt;219 -->
<g id="edge128" class="edge">
<title>401&#45;&gt;219</title>
<path fill="none" stroke="#000000" d="M1629.1676,-233.0859C1735.8749,-229.2849 2126.2252,-213.3476 2245,-180 2247.1318,-179.4015 2249.2874,-178.6753 2251.4283,-177.8623"/>
<polygon fill="#000000" stroke="#000000" points="2252.8293,-181.0698 2260.6004,-173.8684 2250.0346,-174.6518 2252.8293,-181.0698"/>
</g>
<!-- 401&#45;&gt;220 -->
<g id="edge129" class="edge">
<title>401&#45;&gt;220</title>
<path fill="none" stroke="#000000" d="M1629.0873,-233.52C1801.2577,-230.3793 2739.762,-211.8912 2863,-180 2864.9787,-179.488 2866.9753,-178.8579 2868.9597,-178.1436"/>
<polygon fill="#000000" stroke="#000000" points="2870.8105,-181.1598 2878.6426,-174.0248 2868.0705,-174.7184 2870.8105,-181.1598"/>
</g>
<!-- 401&#45;&gt;222 -->
<g id="edge131" class="edge">
<title>401&#45;&gt;222</title>
<path fill="none" stroke="#000000" d="M1574.9486,-233.6065C1421.6991,-231.2419 665.9539,-217.7312 570,-180 546.8043,-170.8789 550.0131,-153.5724 527,-144 365.0533,-76.6374 303.8354,-151.822 134,-108 130.7633,-107.1648 127.4571,-106.1024 124.1962,-104.9126"/>
<polygon fill="#000000" stroke="#000000" points="125.2467,-101.5622 114.6637,-101.061 122.6243,-108.0524 125.2467,-101.5622"/>
</g>
<!-- 401&#45;&gt;223 -->
<g id="edge132" class="edge">
<title>401&#45;&gt;223</title>
<path fill="none" stroke="#000000" d="M1629.0523,-233.3524C1742.94,-230.4122 2183.6594,-216.8334 2317,-180 2319.1343,-179.4104 2321.2918,-178.691 2323.4341,-177.883"/>
<polygon fill="#000000" stroke="#000000" points="2324.8298,-181.0927 2332.6094,-173.9004 2322.0426,-174.6715 2324.8298,-181.0927"/>
</g>
<!-- 401&#45;&gt;224 -->
<g id="edge133" class="edge">
<title>401&#45;&gt;224</title>
<path fill="none" stroke="#000000" d="M1574.8734,-233.0184C1508.8484,-230.0677 1335.0028,-218.9133 1196,-180 1192.781,-179.0989 1189.4867,-177.9926 1186.2331,-176.7756"/>
<polygon fill="#000000" stroke="#000000" points="1187.2917,-173.4273 1176.7107,-172.8864 1184.645,-179.9077 1187.2917,-173.4273"/>
</g>
<!-- 401&#45;&gt;225 -->
<g id="edge134" class="edge">
<title>401&#45;&gt;225</title>
<path fill="none" stroke="#000000" d="M1629.2845,-233.5631C1750.5525,-231.4022 2241.1753,-220.2881 2389,-180 2391.1363,-179.4178 2393.2953,-178.7039 2395.4387,-177.8999"/>
<polygon fill="#000000" stroke="#000000" points="2396.8302,-181.1115 2404.6165,-173.9266 2394.0491,-174.6876 2396.8302,-181.1115"/>
</g>
<!-- 401&#45;&gt;226 -->
<g id="edge135" class="edge">
<title>401&#45;&gt;226</title>
<path fill="none" stroke="#000000" d="M1629.1704,-233.7451C1756.9306,-232.3256 2298.5048,-223.787 2461,-180 2462.9735,-179.4682 2464.966,-178.8229 2466.9474,-178.0971"/>
<polygon fill="#000000" stroke="#000000" points="2468.8111,-181.1062 2476.6225,-173.9484 2466.0524,-174.6727 2468.8111,-181.1062"/>
</g>
<!-- 401&#45;&gt;155 -->
<g id="edge137" class="edge">
<title>401&#45;&gt;155</title>
<path fill="none" stroke="#000000" d="M1629.1823,-233.5855C1807.2872,-230.779 2804.3487,-213.6487 2935,-180 2936.9793,-179.4902 2938.9763,-178.862 2940.9611,-178.1489"/>
<polygon fill="#000000" stroke="#000000" points="2942.8104,-181.166 2950.6449,-174.0336 2940.0726,-174.7236 2942.8104,-181.166"/>
</g>
<!-- 236 -->
<g id="node79" class="node">
<title>236</title>
<ellipse fill="none" stroke="#000000" cx="1303" cy="-162" rx="27" ry="18"/>
<text text-anchor="middle" x="1303" y="-157.8" font-family="Times,serif" font-size="14.00" fill="#000000">236</text>
</g>
<!-- 401&#45;&gt;236 -->
<g id="edge108" class="edge">
<title>401&#45;&gt;236</title>
<path fill="none" stroke="#000000" d="M1575.26,-230.8569C1527.0272,-224.676 1422.6959,-208.9561 1339,-180 1337.118,-179.3489 1335.2088,-178.6196 1333.3018,-177.8377"/>
<polygon fill="#000000" stroke="#000000" points="1334.4765,-174.5281 1323.9217,-173.6074 1331.5986,-180.9091 1334.4765,-174.5281"/>
</g>
<!-- 516 -->
<g id="node80" class="node">
<title>516</title>
<ellipse fill="none" stroke="#000000" cx="1629" cy="-162" rx="27" ry="18"/>
<text text-anchor="middle" x="1629" y="-157.8" font-family="Times,serif" font-size="14.00" fill="#000000">516</text>
</g>
<!-- 401&#45;&gt;516 -->
<g id="edge111" class="edge">
<title>401&#45;&gt;516</title>
<path fill="none" stroke="#000000" d="M1608.6742,-216.2022C1611.7476,-208.0064 1615.4616,-198.1024 1618.8695,-189.0145"/>
<polygon fill="#000000" stroke="#000000" points="1622.1685,-190.1853 1622.4026,-179.593 1615.6142,-187.7274 1622.1685,-190.1853"/>
</g>
<!-- 517 -->
<g id="node81" class="node">
<title>517</title>
<ellipse fill="none" stroke="#000000" cx="711" cy="-162" rx="27" ry="18"/>
<text text-anchor="middle" x="711" y="-157.8" font-family="Times,serif" font-size="14.00" fill="#000000">517</text>
</g>
<!-- 401&#45;&gt;517 -->
<g id="edge120" class="edge">
<title>401&#45;&gt;517</title>
<path fill="none" stroke="#000000" d="M1574.956,-233.7373C1447.79,-232.2825 908.7351,-223.6076 747,-180 745.0266,-179.4679 743.0341,-178.8224 741.0528,-178.0964"/>
<polygon fill="#000000" stroke="#000000" points="741.9479,-174.672 731.3778,-173.9473 739.1889,-181.1054 741.9479,-174.672"/>
</g>
<!-- 518 -->
<g id="node82" class="node">
<title>518</title>
<ellipse fill="none" stroke="#000000" cx="1375" cy="-162" rx="27" ry="18"/>
<text text-anchor="middle" x="1375" y="-157.8" font-family="Times,serif" font-size="14.00" fill="#000000">518</text>
</g>
<!-- 401&#45;&gt;518 -->
<g id="edge130" class="edge">
<title>401&#45;&gt;518</title>
<path fill="none" stroke="#000000" d="M1576.1665,-228.3303C1538.9816,-219.8048 1468.5175,-202.2817 1411,-180 1409.143,-179.2806 1407.2532,-178.4983 1405.3611,-177.676"/>
<polygon fill="#000000" stroke="#000000" points="1406.5645,-174.3759 1396.0207,-173.3374 1403.6156,-180.7244 1406.5645,-174.3759"/>
</g>
<!-- 519 -->
<g id="node83" class="node">
<title>519</title>
<ellipse fill="none" stroke="#000000" cx="1447" cy="-162" rx="27" ry="18"/>
<text text-anchor="middle" x="1447" y="-157.8" font-family="Times,serif" font-size="14.00" fill="#000000">519</text>
</g>
<!-- 401&#45;&gt;519 -->
<g id="edge136" class="edge">
<title>401&#45;&gt;519</title>
<path fill="none" stroke="#000000" d="M1579.0689,-223.9016C1555.018,-213.2384 1516.1769,-195.8149 1483,-180 1481.2496,-179.1656 1479.4557,-178.3006 1477.6482,-177.4215"/>
<polygon fill="#000000" stroke="#000000" points="1479.1547,-174.262 1468.6372,-172.9836 1476.0619,-180.5417 1479.1547,-174.262"/>
</g>
<!-- 520 -->
<g id="node84" class="node">
<title>520</title>
<ellipse fill="none" stroke="#000000" cx="1519" cy="-162" rx="27" ry="18"/>
<text text-anchor="middle" x="1519" y="-157.8" font-family="Times,serif" font-size="14.00" fill="#000000">520</text>
</g>
<!-- 401&#45;&gt;520 -->
<g id="edge138" class="edge">
<title>401&#45;&gt;520</title>
<path fill="none" stroke="#000000" d="M1585.2037,-219.4297C1573.2002,-209.017 1556.8613,-194.8435 1543.4189,-183.1827"/>
<polygon fill="#000000" stroke="#000000" points="1545.3354,-180.2118 1535.4881,-176.3029 1540.7485,-185.4996 1545.3354,-180.2118"/>
</g>
<!-- 411&#45;&gt;197 -->
<g id="edge139" class="edge">
<title>411&#45;&gt;197</title>
<path fill="none" stroke="#000000" d="M1342.6375,-77.9951C1337.6748,-75.589 1332.273,-73.3792 1327,-72 1220.039,-44.0235 423.4009,-23.3013 240.3983,-18.8786"/>
<polygon fill="#000000" stroke="#000000" points="240.2839,-15.375 230.2027,-18.6338 240.1157,-22.3729 240.2839,-15.375"/>
</g>
<!-- 411&#45;&gt;179 -->
<g id="edge140" class="edge">
<title>411&#45;&gt;179</title>
<path fill="none" stroke="#000000" d="M1363,-71.8314C1363,-64.131 1363,-54.9743 1363,-46.4166"/>
<polygon fill="#000000" stroke="#000000" points="1366.5001,-46.4132 1363,-36.4133 1359.5001,-46.4133 1366.5001,-46.4132"/>
</g>
<!-- 521 -->
<g id="node85" class="node">
<title>521</title>
<ellipse fill="none" stroke="#000000" cx="2971" cy="-18" rx="27" ry="18"/>
<text text-anchor="middle" x="2971" y="-13.8" font-family="Times,serif" font-size="14.00" fill="#000000">521</text>
</g>
<!-- 413&#45;&gt;521 -->
<g id="edge141" class="edge">
<title>413&#45;&gt;521</title>
<path fill="none" stroke="#000000" d="M2943.7146,-72.5708C2947.9597,-64.0807 2953.1536,-53.6929 2957.8663,-44.2674"/>
<polygon fill="#000000" stroke="#000000" points="2961.024,-45.7782 2962.3657,-35.2687 2954.763,-42.6477 2961.024,-45.7782"/>
</g>
<!-- 522 -->
<g id="node86" class="node">
<title>522</title>
<ellipse fill="none" stroke="#000000" cx="3043" cy="-18" rx="27" ry="18"/>
<text text-anchor="middle" x="3043" y="-13.8" font-family="Times,serif" font-size="14.00" fill="#000000">522</text>
</g>
<!-- 413&#45;&gt;522 -->
<g id="edge142" class="edge">
<title>413&#45;&gt;522</title>
<path fill="none" stroke="#000000" d="M2954.3082,-77.1278C2971.3555,-65.763 2996.4019,-49.0654 3015.5344,-36.3104"/>
<polygon fill="#000000" stroke="#000000" points="3017.4799,-39.2199 3023.8589,-30.7607 3013.5969,-33.3956 3017.4799,-39.2199"/>
</g>
<!-- 523 -->
<g id="node87" class="node">
<title>523</title>
<ellipse fill="none" stroke="#000000" cx="2827" cy="-18" rx="27" ry="18"/>
<text text-anchor="middle" x="2827" y="-13.8" font-family="Times,serif" font-size="14.00" fill="#000000">523</text>
</g>
<!-- 413&#45;&gt;523 -->
<g id="edge143" class="edge">
<title>413&#45;&gt;523</title>
<path fill="none" stroke="#000000" d="M2915.6918,-77.1278C2898.6445,-65.763 2873.5981,-49.0654 2854.4656,-36.3104"/>
<polygon fill="#000000" stroke="#000000" points="2856.4031,-33.3956 2846.1411,-30.7607 2852.5201,-39.2199 2856.4031,-33.3956"/>
</g>
<!-- 524 -->
<g id="node88" class="node">
<title>524</title>
<ellipse fill="none" stroke="#000000" cx="2899" cy="-18" rx="27" ry="18"/>
<text text-anchor="middle" x="2899" y="-13.8" font-family="Times,serif" font-size="14.00" fill="#000000">524</text>
</g>
<!-- 413&#45;&gt;524 -->
<g id="edge144" class="edge">
<title>413&#45;&gt;524</title>
<path fill="none" stroke="#000000" d="M2926.2854,-72.5708C2922.0403,-64.0807 2916.8464,-53.6929 2912.1337,-44.2674"/>
<polygon fill="#000000" stroke="#000000" points="2915.237,-42.6477 2907.6343,-35.2687 2908.976,-45.7782 2915.237,-42.6477"/>
</g>
<!-- 426&#45;&gt;179 -->
<g id="edge145" class="edge">
<title>426&#45;&gt;179</title>
<path fill="none" stroke="#000000" d="M2122.6124,-78.0885C2117.6509,-75.6785 2112.2558,-73.4436 2107,-72 1971.7162,-34.8429 1532.5187,-21.9014 1400.7261,-18.8013"/>
<polygon fill="#000000" stroke="#000000" points="1400.4313,-15.2937 1390.3535,-18.5629 1400.2704,-22.2919 1400.4313,-15.2937"/>
</g>
<!-- 516&#45;&gt;176 -->
<g id="edge146" class="edge">
<title>516&#45;&gt;176</title>
<path fill="none" stroke="#000000" d="M1604.2592,-154.6762C1572.8288,-145.1158 1517.1257,-127.3109 1471,-108 1469.2113,-107.2512 1467.3874,-106.4532 1465.557,-105.6255"/>
<polygon fill="#000000" stroke="#000000" points="1467.0184,-102.445 1456.4825,-101.3295 1464.0232,-108.7718 1467.0184,-102.445"/>
</g>
<!-- 516&#45;&gt;203 -->
<g id="edge148" class="edge">
<title>516&#45;&gt;203</title>
<path fill="none" stroke="#000000" d="M1608.5799,-149.9488C1588.7865,-138.2675 1558.5607,-120.4293 1536.2226,-107.2461"/>
<polygon fill="#000000" stroke="#000000" points="1537.8777,-104.1589 1527.4867,-102.0905 1534.3199,-110.1873 1537.8777,-104.1589"/>
</g>
<!-- 516&#45;&gt;213 -->
<g id="edge150" class="edge">
<title>516&#45;&gt;213</title>
<path fill="none" stroke="#000000" d="M1617.6542,-145.6621C1611.4145,-136.6768 1603.5377,-125.3343 1596.5251,-115.2362"/>
<polygon fill="#000000" stroke="#000000" points="1599.2267,-112.9902 1590.6479,-106.7729 1593.4771,-116.983 1599.2267,-112.9902"/>
</g>
<!-- 516&#45;&gt;230 -->
<g id="edge147" class="edge">
<title>516&#45;&gt;230</title>
<path fill="none" stroke="#000000" d="M1649.9548,-150.4863C1654.8008,-148.117 1660.0035,-145.7995 1665,-144 1732.5555,-119.6695 1815.1572,-103.5699 1861.655,-95.6828"/>
<polygon fill="#000000" stroke="#000000" points="1862.2733,-99.1282 1871.5632,-94.0343 1861.1243,-92.2231 1862.2733,-99.1282"/>
</g>
<!-- 516&#45;&gt;402 -->
<g id="edge149" class="edge">
<title>516&#45;&gt;402</title>
<path fill="none" stroke="#000000" d="M1634.4382,-144.2022C1636.8974,-136.1541 1639.8598,-126.4588 1642.5952,-117.5067"/>
<polygon fill="#000000" stroke="#000000" points="1645.9731,-118.4289 1645.5481,-107.8425 1639.2786,-116.3833 1645.9731,-118.4289"/>
</g>
<!-- 516&#45;&gt;404 -->
<g id="edge151" class="edge">
<title>516&#45;&gt;404</title>
<path fill="none" stroke="#000000" d="M1647.1241,-148.1177C1661.2586,-137.2913 1681.0817,-122.1076 1696.9216,-109.975"/>
<polygon fill="#000000" stroke="#000000" points="1699.4398,-112.4549 1705.2503,-103.5955 1695.1832,-106.8978 1699.4398,-112.4549"/>
</g>
<!-- 517&#45;&gt;176 -->
<g id="edge152" class="edge">
<title>517&#45;&gt;176</title>
<path fill="none" stroke="#000000" d="M731.3697,-150.0225C736.3321,-147.6152 741.7319,-145.3981 747,-144 1027.5094,-69.5577 1118.4906,-182.4423 1399,-108 1400.9755,-107.4757 1402.9696,-106.8363 1404.9522,-106.1148"/>
<polygon fill="#000000" stroke="#000000" points="1406.811,-109.1266 1414.6303,-101.9775 1404.0594,-102.6901 1406.811,-109.1266"/>
</g>
<!-- 517&#45;&gt;197 -->
<g id="edge157" class="edge">
<title>517&#45;&gt;197</title>
<path fill="none" stroke="#000000" d="M731.4168,-150.192C736.3771,-147.7777 741.7644,-145.5149 747,-144 903.7391,-98.6475 1218.8849,-190.7677 1107,-72 1076.8027,-39.9451 406.8496,-22.633 240.25,-18.8142"/>
<polygon fill="#000000" stroke="#000000" points="240.0932,-15.3098 230.0164,-18.5821 239.9344,-22.308 240.0932,-15.3098"/>
</g>
<!-- 517&#45;&gt;222 -->
<g id="edge161" class="edge">
<title>517&#45;&gt;222</title>
<path fill="none" stroke="#000000" d="M690.6142,-150.082C685.6526,-147.6722 680.257,-145.4391 675,-144 456.6879,-84.2385 390.6417,-142.8711 167,-108 154.0381,-105.9789 140.0078,-102.8206 127.6843,-99.7103"/>
<polygon fill="#000000" stroke="#000000" points="128.3543,-96.2681 117.795,-97.1348 126.5901,-103.0421 128.3543,-96.2681"/>
</g>
<!-- 517&#45;&gt;179 -->
<g id="edge158" class="edge">
<title>517&#45;&gt;179</title>
<path fill="none" stroke="#000000" d="M731.4097,-150.1676C736.3704,-147.7543 741.7595,-145.4981 747,-144 912.2384,-96.7637 970.7957,-167.5667 1132,-108 1158.025,-98.3835 1158.0543,-84.1444 1183,-72 1230.4598,-48.8949 1289.8252,-33.426 1327.0919,-25.1697"/>
<polygon fill="#000000" stroke="#000000" points="1327.9532,-28.5645 1336.9888,-23.0319 1326.4752,-21.7223 1327.9532,-28.5645"/>
</g>
<!-- 517&#45;&gt;414 -->
<g id="edge153" class="edge">
<title>517&#45;&gt;414</title>
<path fill="none" stroke="#000000" d="M695.7307,-146.7307C685.803,-136.803 672.6847,-123.6847 661.5637,-112.5637"/>
<polygon fill="#000000" stroke="#000000" points="663.7933,-109.8436 654.2473,-105.2473 658.8436,-114.7933 663.7933,-109.8436"/>
</g>
<!-- 517&#45;&gt;415 -->
<g id="edge154" class="edge">
<title>517&#45;&gt;415</title>
<path fill="none" stroke="#000000" d="M711,-143.8314C711,-136.131 711,-126.9743 711,-118.4166"/>
<polygon fill="#000000" stroke="#000000" points="714.5001,-118.4132 711,-108.4133 707.5001,-118.4133 714.5001,-118.4132"/>
</g>
<!-- 517&#45;&gt;416 -->
<g id="edge155" class="edge">
<title>517&#45;&gt;416</title>
<path fill="none" stroke="#000000" d="M726.2693,-146.7307C736.197,-136.803 749.3153,-123.6847 760.4363,-112.5637"/>
<polygon fill="#000000" stroke="#000000" points="763.1564,-114.7933 767.7527,-105.2473 758.2067,-109.8436 763.1564,-114.7933"/>
</g>
<!-- 517&#45;&gt;417 -->
<g id="edge156" class="edge">
<title>517&#45;&gt;417</title>
<path fill="none" stroke="#000000" d="M731.978,-150.5501C736.8229,-148.1775 742.0192,-145.8425 747,-144 808.872,-121.1121 829.128,-130.8879 891,-108 892.8678,-107.3091 894.7659,-106.5489 896.6644,-105.7434"/>
<polygon fill="#000000" stroke="#000000" points="898.3926,-108.8014 906.022,-101.4499 895.4734,-102.4391 898.3926,-108.8014"/>
</g>
<!-- 517&#45;&gt;418 -->
<g id="edge159" class="edge">
<title>517&#45;&gt;418</title>
<path fill="none" stroke="#000000" d="M732.8705,-151.0647C757.2222,-138.8889 796.762,-119.119 824.2285,-105.3858"/>
<polygon fill="#000000" stroke="#000000" points="826.0165,-108.4049 833.3955,-100.8022 822.886,-102.1439 826.0165,-108.4049"/>
</g>
<!-- 517&#45;&gt;419 -->
<g id="edge160" class="edge">
<title>517&#45;&gt;419</title>
<path fill="none" stroke="#000000" d="M731.8268,-150.0998C736.6795,-147.7506 741.9172,-145.5389 747,-144 870.4612,-106.619 911.5388,-145.381 1035,-108 1036.906,-107.4229 1038.8339,-106.7512 1040.755,-106.0131"/>
<polygon fill="#000000" stroke="#000000" points="1042.4097,-109.1098 1050.1732,-101.9002 1039.6082,-102.6948 1042.4097,-109.1098"/>
</g>
<!-- 517&#45;&gt;420 -->
<g id="edge162" class="edge">
<title>517&#45;&gt;420</title>
<path fill="none" stroke="#000000" d="M731.3991,-150.1299C736.3602,-147.7182 741.7522,-145.4721 747,-144 932.0785,-92.0819 991.6825,-155.2793 1178,-108 1181.2401,-107.1778 1184.5484,-106.124 1187.8107,-104.9395"/>
<polygon fill="#000000" stroke="#000000" points="1189.3794,-108.0809 1197.345,-101.0953 1186.7617,-101.5888 1189.3794,-108.0809"/>
</g>
<!-- 517&#45;&gt;421 -->
<g id="edge163" class="edge">
<title>517&#45;&gt;421</title>
<path fill="none" stroke="#000000" d="M731.8749,-150.2531C736.7251,-147.8959 741.9497,-145.6423 747,-144 839.5536,-113.9031 870.4464,-138.0969 963,-108 964.8939,-107.3841 966.8123,-106.6823 968.7262,-105.9213"/>
<polygon fill="#000000" stroke="#000000" points="970.4066,-109.0047 978.1251,-101.7469 967.5653,-102.6073 970.4066,-109.0047"/>
</g>
<!-- 517&#45;&gt;422 -->
<g id="edge164" class="edge">
<title>517&#45;&gt;422</title>
<path fill="none" stroke="#000000" d="M690.1732,-150.0998C685.3205,-147.7506 680.0828,-145.5389 675,-144 551.5388,-106.619 510.4612,-145.381 387,-108 385.094,-107.4229 383.1661,-106.7512 381.245,-106.0131"/>
<polygon fill="#000000" stroke="#000000" points="382.3918,-102.6948 371.8268,-101.9002 379.5903,-109.1098 382.3918,-102.6948"/>
</g>
<!-- 517&#45;&gt;130 -->
<g id="edge165" class="edge">
<title>517&#45;&gt;130</title>
<path fill="none" stroke="#000000" d="M690.1251,-150.2531C685.2749,-147.8959 680.0503,-145.6423 675,-144 582.4464,-113.9031 551.5536,-138.0969 459,-108 457.1061,-107.3841 455.1877,-106.6823 453.2738,-105.9213"/>
<polygon fill="#000000" stroke="#000000" points="454.4347,-102.6073 443.8749,-101.7469 451.5934,-109.0047 454.4347,-102.6073"/>
</g>
<!-- 517&#45;&gt;423 -->
<g id="edge166" class="edge">
<title>517&#45;&gt;423</title>
<path fill="none" stroke="#000000" d="M690.022,-150.5501C685.1771,-148.1775 679.9808,-145.8425 675,-144 613.128,-121.1121 592.872,-130.8879 531,-108 529.1322,-107.3091 527.2341,-106.5489 525.3356,-105.7434"/>
<polygon fill="#000000" stroke="#000000" points="526.5266,-102.4391 515.978,-101.4499 523.6074,-108.8014 526.5266,-102.4391"/>
</g>
<!-- 517&#45;&gt;425 -->
<g id="edge167" class="edge">
<title>517&#45;&gt;425</title>
<path fill="none" stroke="#000000" d="M689.1295,-151.0647C664.7778,-138.8889 625.238,-119.119 597.7715,-105.3858"/>
<polygon fill="#000000" stroke="#000000" points="599.114,-102.1439 588.6045,-100.8022 595.9835,-108.4049 599.114,-102.1439"/>
</g>
</g>
</svg>
