<?xml version="1.0" encoding="UTF-8" standalone="no"?>
<!DOCTYPE svg PUBLIC "-//W3C//DTD SVG 1.1//EN"
 "http://www.w3.org/Graphics/SVG/1.1/DTD/svg11.dtd">
<!-- Generated by graphviz version 2.40.1 (20161225.0304)
 -->
<!-- Pages: 1 -->
<svg width="278pt" height="188pt"
 viewBox="0.00 0.00 278.00 188.00" xmlns="http://www.w3.org/2000/svg" xmlns:xlink="http://www.w3.org/1999/xlink">
<g id="graph0" class="graph" transform="scale(1 1) rotate(0) translate(4 184)">
<polygon fill="#ffffff" stroke="transparent" points="-4,4 -4,-184 274,-184 274,4 -4,4"/>
<!-- 116 -->
<g id="node1" class="node">
<title>116</title>
<ellipse fill="none" stroke="#000000" cx="99" cy="-162" rx="27" ry="18"/>
<text text-anchor="middle" x="99" y="-157.8" font-family="Times,serif" font-size="14.00" fill="#000000">116</text>
</g>
<!-- 117 -->
<g id="node2" class="node">
<title>117</title>
<ellipse fill="none" stroke="#000000" cx="99" cy="-90" rx="27" ry="18"/>
<text text-anchor="middle" x="99" y="-85.8" font-family="Times,serif" font-size="14.00" fill="#000000">117</text>
</g>
<!-- 116&#45;&gt;117 -->
<g id="edge1" class="edge">
<title>116&#45;&gt;117</title>
<path fill="none" stroke="#000000" d="M99,-143.8314C99,-136.131 99,-126.9743 99,-118.4166"/>
<polygon fill="#000000" stroke="#000000" points="102.5001,-118.4132 99,-108.4133 95.5001,-118.4133 102.5001,-118.4132"/>
</g>
<!-- 118 -->
<g id="node3" class="node">
<title>118</title>
<ellipse fill="none" stroke="#000000" cx="27" cy="-18" rx="27" ry="18"/>
<text text-anchor="middle" x="27" y="-13.8" font-family="Times,serif" font-size="14.00" fill="#000000">118</text>
</g>
<!-- 116&#45;&gt;118 -->
<g id="edge2" class="edge">
<title>116&#45;&gt;118</title>
<path fill="none" stroke="#000000" d="M86.717,-145.53C79.279,-135.1084 69.9241,-121.1628 63,-108 52.3407,-87.7364 42.8432,-63.5907 36.2832,-45.4128"/>
<polygon fill="#000000" stroke="#000000" points="39.4946,-43.9956 32.8632,-35.7328 32.8944,-46.3276 39.4946,-43.9956"/>
</g>
<!-- 119 -->
<g id="node4" class="node">
<title>119</title>
<ellipse fill="none" stroke="#000000" cx="171" cy="-90" rx="27" ry="18"/>
<text text-anchor="middle" x="171" y="-85.8" font-family="Times,serif" font-size="14.00" fill="#000000">119</text>
</g>
<!-- 116&#45;&gt;119 -->
<g id="edge3" class="edge">
<title>116&#45;&gt;119</title>
<path fill="none" stroke="#000000" d="M114.2693,-146.7307C124.197,-136.803 137.3153,-123.6847 148.4363,-112.5637"/>
<polygon fill="#000000" stroke="#000000" points="151.1564,-114.7933 155.7527,-105.2473 146.2067,-109.8436 151.1564,-114.7933"/>
</g>
<!-- 117&#45;&gt;118 -->
<g id="edge5" class="edge">
<title>117&#45;&gt;118</title>
<path fill="none" stroke="#000000" d="M83.7307,-74.7307C73.803,-64.803 60.6847,-51.6847 49.5637,-40.5637"/>
<polygon fill="#000000" stroke="#000000" points="51.7933,-37.8436 42.2473,-33.2473 46.8436,-42.7933 51.7933,-37.8436"/>
</g>
<!-- 136 -->
<g id="node5" class="node">
<title>136</title>
<ellipse fill="none" stroke="#000000" cx="99" cy="-18" rx="27" ry="18"/>
<text text-anchor="middle" x="99" y="-13.8" font-family="Times,serif" font-size="14.00" fill="#000000">136</text>
</g>
<!-- 117&#45;&gt;136 -->
<g id="edge4" class="edge">
<title>117&#45;&gt;136</title>
<path fill="none" stroke="#000000" d="M99,-71.8314C99,-64.131 99,-54.9743 99,-46.4166"/>
<polygon fill="#000000" stroke="#000000" points="102.5001,-46.4132 99,-36.4133 95.5001,-46.4133 102.5001,-46.4132"/>
</g>
<!-- 290 -->
<g id="node6" class="node">
<title>290</title>
<ellipse fill="none" stroke="#000000" cx="171" cy="-18" rx="27" ry="18"/>
<text text-anchor="middle" x="171" y="-13.8" font-family="Times,serif" font-size="14.00" fill="#000000">290</text>
</g>
<!-- 117&#45;&gt;290 -->
<g id="edge6" class="edge">
<title>117&#45;&gt;290</title>
<path fill="none" stroke="#000000" d="M114.2693,-74.7307C124.197,-64.803 137.3153,-51.6847 148.4363,-40.5637"/>
<polygon fill="#000000" stroke="#000000" points="151.1564,-42.7933 155.7527,-33.2473 146.2067,-37.8436 151.1564,-42.7933"/>
</g>
<!-- 291 -->
<g id="node7" class="node">
<title>291</title>
<ellipse fill="none" stroke="#000000" cx="243" cy="-18" rx="27" ry="18"/>
<text text-anchor="middle" x="243" y="-13.8" font-family="Times,serif" font-size="14.00" fill="#000000">291</text>
</g>
<!-- 117&#45;&gt;291 -->
<g id="edge7" class="edge">
<title>117&#45;&gt;291</title>
<path fill="none" stroke="#000000" d="M120.8705,-79.0647C145.2222,-66.8889 184.762,-47.119 212.2285,-33.3858"/>
<polygon fill="#000000" stroke="#000000" points="214.0165,-36.4049 221.3955,-28.8022 210.886,-30.1439 214.0165,-36.4049"/>
</g>
</g>
</svg>
