<?xml version="1.0" encoding="UTF-8" standalone="no"?>
<!DOCTYPE svg PUBLIC "-//W3C//DTD SVG 1.1//EN"
 "http://www.w3.org/Graphics/SVG/1.1/DTD/svg11.dtd">
<!-- Generated by graphviz version 2.40.1 (20161225.0304)
 -->
<!-- Pages: 1 -->
<svg width="62pt" height="188pt"
 viewBox="0.00 0.00 62.00 188.00" xmlns="http://www.w3.org/2000/svg" xmlns:xlink="http://www.w3.org/1999/xlink">
<g id="graph0" class="graph" transform="scale(1 1) rotate(0) translate(4 184)">
<polygon fill="#ffffff" stroke="transparent" points="-4,4 -4,-184 58,-184 58,4 -4,4"/>
<!-- 124 -->
<g id="node1" class="node">
<title>124</title>
<ellipse fill="none" stroke="#000000" cx="27" cy="-162" rx="27" ry="18"/>
<text text-anchor="middle" x="27" y="-157.8" font-family="Times,serif" font-size="14.00" fill="#000000">124</text>
</g>
<!-- 125 -->
<g id="node2" class="node">
<title>125</title>
<ellipse fill="none" stroke="#000000" cx="27" cy="-90" rx="27" ry="18"/>
<text text-anchor="middle" x="27" y="-85.8" font-family="Times,serif" font-size="14.00" fill="#000000">125</text>
</g>
<!-- 124&#45;&gt;125 -->
<g id="edge1" class="edge">
<title>124&#45;&gt;125</title>
<path fill="none" stroke="#000000" d="M27,-143.8314C27,-136.131 27,-126.9743 27,-118.4166"/>
<polygon fill="#000000" stroke="#000000" points="30.5001,-118.4132 27,-108.4133 23.5001,-118.4133 30.5001,-118.4132"/>
</g>
<!-- 292 -->
<g id="node3" class="node">
<title>292</title>
<ellipse fill="none" stroke="#000000" cx="27" cy="-18" rx="27" ry="18"/>
<text text-anchor="middle" x="27" y="-13.8" font-family="Times,serif" font-size="14.00" fill="#000000">292</text>
</g>
<!-- 125&#45;&gt;292 -->
<g id="edge2" class="edge">
<title>125&#45;&gt;292</title>
<path fill="none" stroke="#000000" d="M27,-71.8314C27,-64.131 27,-54.9743 27,-46.4166"/>
<polygon fill="#000000" stroke="#000000" points="30.5001,-46.4132 27,-36.4133 23.5001,-46.4133 30.5001,-46.4132"/>
</g>
</g>
</svg>
